STARTFONT 2.3
FONT -FontForge-Roboto Condensed-Book-R-Condensed---36-360-72-72-P-177-ISO10646-1
SIZE 36 72 72  4
FONTBOUNDINGBOX 63 47 -27 -9
COMMENT "Generated by fontforge, http://fontforge.sourceforge.net"
COMMENT "Copyright 2011 Google Inc. All Rights Reserved."
STARTPROPERTIES 42
FOUNDRY "FontForge"
FAMILY_NAME "Roboto Condensed"
WEIGHT_NAME "Book"
SLANT "R"
SETWIDTH_NAME "Condensed"
ADD_STYLE_NAME ""
PIXEL_SIZE 36
POINT_SIZE 360
RESOLUTION_X 72
RESOLUTION_Y 72
SPACING "P"
AVERAGE_WIDTH 177
CHARSET_REGISTRY "ISO10646"
CHARSET_ENCODING "1"
FONTNAME_REGISTRY ""
CHARSET_COLLECTIONS "ISO8859-2 ISO8859-5 ISO8859-7 ISO8859-9 ISO8859-4 ISO10646-1"
BITS_PER_PIXEL 4
FONT_NAME "RobotoCondensed-Regular"
FACE_NAME "Roboto Condensed"
COPYRIGHT "Copyright 2011 Google Inc. All Rights Reserved."
FONT_VERSION "2.137; 2017"
FONT_ASCENT 27
FONT_DESCENT 9
UNDERLINE_POSITION -4
UNDERLINE_THICKNESS 2
X_HEIGHT 18
CAP_HEIGHT 25
DEFAULT_CHAR 1
RAW_ASCENT 750
RAW_DESCENT 250
NORM_SPACE 8
RELATIVE_WEIGHT 40
RELATIVE_SETWIDTH 50
SUPERSCRIPT_X 0
SUPERSCRIPT_Y 17
SUPERSCRIPT_SIZE 23
SUBSCRIPT_X 0
SUBSCRIPT_Y 5
SUBSCRIPT_SIZE 23
FIGURE_WIDTH 18
AVG_LOWERCASE_WIDTH 172
AVG_UPPERCASE_WIDTH 207
ENDPROPERTIES
CHARS 1296
STARTCHAR uni0000
ENCODING 0
SWIDTH 0 0
DWIDTH 0 0
BBX 1 1 0 0
BITMAP
00
ENDCHAR
STARTCHAR uni0002
ENCODING 2
SWIDTH 0 0
DWIDTH 0 0
BBX 1 1 0 0
BITMAP
00
ENDCHAR
STARTCHAR uni000D
ENCODING 13
SWIDTH 229 0
DWIDTH 8 0
BBX 1 1 0 0
BITMAP
00
ENDCHAR
STARTCHAR space
ENCODING 32
SWIDTH 229 0
DWIDTH 8 0
BBX 1 1 0 0
BITMAP
00
ENDCHAR
STARTCHAR exclam
ENCODING 33
SWIDTH 245 0
DWIDTH 9 0
BBX 5 26 2 0
BITMAP
3FFF10
3FFF10
2FFF10
2FFF00
2FFF00
2FFF00
2FFF00
1FFF00
1FFF00
1FFE00
1FFE00
1FFE00
0FFE00
0FFE00
0FFD00
0FFD00
0FFD00
0FFD00
088700
000000
000000
000000
05A500
2FFF20
3FFF40
0AEA00
ENDCHAR
STARTCHAR quotedbl
ENCODING 34
SWIDTH 319 0
DWIDTH 12 0
BBX 8 9 2 18
BITMAP
9FD00DF9
9FD00DF9
9FD00DF9
9FC00DF8
9FB00DF7
9F900DF6
9F800DF4
9F700DF3
9F600DF2
ENDCHAR
STARTCHAR numbersign
ENCODING 35
SWIDTH 547 0
DWIDTH 20 0
BBX 17 26 2 0
BITMAP
0000004FF1005FF100
0000007FD0007FD000
000000AFB000AFB000
000000CF8000DF8000
000000FF6000FF5000
000002FF3003FF3000
000005FF0006FF0000
09FFFFFFFFFFFFFFC0
09FFFFFFFFFFFFFFC0
04777EFB777EFB7750
00000FF5000FF50000
00002FF3003FF30000
00005FF1005FF10000
00007FD0007FD00000
00009FB000AFB00000
0000CF8000CF800000
BFFFFFFFFFFFFFFA00
BFFFFFFFFFFFFFFA00
4669FF6669FF666400
0007FE0007FE000000
0009FB0009FB000000
000BF9000CF9000000
000EF7000EF7000000
001FF4001FF4000000
003FF2004FF2000000
006FE0006FE0000000
ENDCHAR
STARTCHAR dollar
ENCODING 36
SWIDTH 493 0
DWIDTH 18 0
BBX 14 34 2 -4
BITMAP
000000DD600000
000000FF700000
000000FF700000
000000FF700000
00018DFFEA3000
003EFFFFFFF600
01EFFFDCFFFF40
08FFE3002DFFC0
0DFF600004FFF2
1FFF100000DFF6
3FFE0000009FF8
2FFF0000008FF9
1FFF3000001221
0CFFC000000000
06FFFB20000000
00BFFFF9300000
001BFFFFFB3000
00006DFFFFF600
0000005CFFFF60
000000005EFFE1
0000000003FFF7
00000000009FFA
CCC10000006FFC
FFF20000004FFC
CFF50000007FFB
9FFC000000CFF8
3FFF91001AFFF2
09FFFECCFFFF80
00AFFFFFFFF900
0005BEFFEA4000
000005FF200000
000005FF200000
000005FF200000
00000266100000
ENDCHAR
STARTCHAR percent
ENCODING 37
SWIDTH 632 0
DWIDTH 23 0
BBX 21 26 1 0
BITMAP
0018DFC600000000000000
00CFFFFF80000000000000
07FF639FF3000000000000
0DF8000DF9000078000000
1FF40008FB0001EF500000
2FF20007FC0008FC000000
2FF20007FC001EF4000000
1FF40008FC009FB0000000
0DF8000CF902FF30000000
07FF639FF30AFA00000000
00CFFFFF803FF300000000
0018DFD600AFA000000000
0000000003FF2000000000
000000000BF90000000000
000000004FE106CFE91000
00000000CF807FFFFFD100
00000005FE12FF936EF800
0000000DF708FD0007FE00
0000006FD00BF90003FF20
000000DF600CF70002FF30
000007FD000CF70002FF30
00001EF5000BF90003FF20
00007FC00008FD0007FE00
00001A400002FF935EF800
0000000000007FFFFFD100
00000000000006CFE91000
ENDCHAR
STARTCHAR ampersand
ENCODING 38
SWIDTH 543 0
DWIDTH 20 0
BBX 19 26 1 0
BITMAP
000007CEEC6000000000
0001CFFFFFFB00000000
0009FFFCCFFF80000000
001FFF6004FFF1000000
005FFD0000AFF4000000
007FFA00008FF5000000
007FFA0000AFF3000000
005FFD0001EFE0000000
001FFF501CFF80000000
0008FFD3DFFC00000000
0001EFFFFFB100000000
00005FFFFA0000000000
00008FFFF20000000000
000AFFFFFB0000000000
009FFE6FFF6000DFE000
04FFF307FFF200FFD000
0BFF8000CFFC01FFB000
0FFF20002EFF85FF9000
2FFE000006FFFCFF5000
2FFE000000BFFFFE0000
1FFF2000002EFFF80000
0BFF90000009FFF50000
05FFF600018FFFFE1000
00AFFFDABEFFFEFFA000
001AFFFFFFFE65FFF400
00004ADFEC8100BFFD10
ENDCHAR
STARTCHAR quotesingle
ENCODING 39
SWIDTH 174 0
DWIDTH 6 0
BBX 4 8 1 19
BITMAP
3FF7
3FF7
3FF6
3FF5
3FF4
3FF3
3FF3
3FF2
ENDCHAR
STARTCHAR parenleft
ENCODING 40
SWIDTH 313 0
DWIDTH 11 0
BBX 9 37 2 -8
BITMAP
0000001A00
000001DF20
00000BFE20
00007FF300
0002FF8000
000BFE1000
003FF80000
00AFF20000
01FFC00000
06FF700000
0AFF300000
0EFF100000
2FFC000000
5FFA000000
7FF8000000
9FF7000000
AFF6000000
BFF6000000
BFF6000000
BFF6000000
AFF7000000
9FF7000000
7FF9000000
5FFB000000
3FFD000000
0EFF100000
0AFF400000
06FF700000
01FFC00000
00AFF20000
003FF80000
000BFE1000
0002FF8000
00007FF200
00000CFD10
000001DF30
0000002A00
ENDCHAR
STARTCHAR parenright
ENCODING 41
SWIDTH 318 0
DWIDTH 11 0
BBX 8 37 1 -8
BITMAP
84000000
DF400000
9FE20000
0DFC0000
04FF7000
00BFE100
005FF700
000EFE00
0009FF40
0004FF90
0001FFE0
0000CFF3
00009FF6
00007FF9
00005FFB
00003FFC
00003FFD
00002FFE
00001FFF
00002FFE
00002FFE
00003FFD
00004FFB
00006FF9
00008FF6
0000BFF3
0000EFE0
0003FF90
0007FF40
000CFE00
003FF700
00AFE100
03FF6000
0CFC0000
9FE20000
DF400000
84000000
ENDCHAR
STARTCHAR asterisk
ENCODING 42
SWIDTH 430 0
DWIDTH 16 0
BBX 15 15 0 11
BITMAP
0000008FF2000000
0000008FF1000000
0000007FF1000000
0000007FF1000000
0961007FF0002830
1FFE936FF16CFF90
5FFFFFEFFFFFFFD0
037CFFFFFFFEA510
000029FFFD300000
00001DFFFF500000
0000BFF4EFE20000
0007FF905FFC0000
003FFD100AFF8000
005EF40001EFA000
0002700000570000
ENDCHAR
STARTCHAR plus
ENCODING 43
SWIDTH 496 0
DWIDTH 18 0
BBX 16 20 1 2
BITMAP
0000005773000000
000000AFF7000000
000000AFF7000000
000000AFF7000000
000000AFF7000000
000000AFF7000000
000000AFF7000000
000000AFF7000000
7FFFFFFFFFFFFFF4
7FFFFFFFFFFFFFF4
7FFFFFFFFFFFFFF4
111111AFF8111110
000000AFF7000000
000000AFF7000000
000000AFF7000000
000000AFF7000000
000000AFF7000000
000000AFF7000000
000000AFF7000000
0000002331000000
ENDCHAR
STARTCHAR comma
ENCODING 44
SWIDTH 196 0
DWIDTH 7 0
BBX 6 9 0 -5
BITMAP
00ADD5
00CFF6
00CFF6
00CFF5
00EFF2
04FFC0
0BFF50
4FFB00
06B100
ENDCHAR
STARTCHAR hyphen
ENCODING 45
SWIDTH 248 0
DWIDTH 9 0
BBX 9 3 0 9
BITMAP
3FFFFFFF10
3FFFFFFF10
2AAAAAAA10
ENDCHAR
STARTCHAR period
ENCODING 46
SWIDTH 263 0
DWIDTH 9 0
BBX 5 4 2 0
BITMAP
09D910
5FFF70
6FFF70
1BEB10
ENDCHAR
STARTCHAR slash
ENCODING 47
SWIDTH 370 0
DWIDTH 13 0
BBX 12 28 0 -2
BITMAP
0000000009FE
000000000EFA
000000004FF5
000000009FF1
00000000EFB0
00000004FF60
00000008FF10
0000000DFB00
0000003FF600
0000008FF200
000000DFC000
000002FF7000
000007FF2000
00000CFC0000
00002FF80000
00007FF30000
0000CFD00000
0001FF800000
0006FF300000
000BFD000000
001FF9000000
006FF4000000
00AFE0000000
01FF90000000
05FF50000000
0AFE00000000
0EFA00000000
4FF500000000
ENDCHAR
STARTCHAR zero
ENCODING 48
SWIDTH 493 0
DWIDTH 18 0
BBX 14 26 2 0
BITMAP
00029DEEC71000
005EFFFFFFD200
03EFFEBCFFFD10
0AFFB1003EFF70
2FFF200005FFD0
6FFA000000EFF2
9FF7000000BFF5
BFF40000008FF8
DFF30000007FF9
EFF20000006FFA
FFF20000006FFB
FFF20000006FFB
FFF20000006FFB
FFF20000006FFB
FFF20000006FFB
FFF20000006FFB
EFF20000006FFA
DFF30000007FF9
BFF50000008FF7
9FF7000000BFF5
5FFB000000EFF2
1FFF200006FFD0
0AFFC1003EFF60
02EFFEBBFFFC00
004EFFFFFFD200
00028DEEC71000
ENDCHAR
STARTCHAR one
ENCODING 49
SWIDTH 493 0
DWIDTH 18 0
BBX 10 26 2 0
BITMAP
00000005C5
000005CFF5
0005CFFFF5
05DFFFFFF5
3FFFFADFF5
3FFA30CFF5
392000CFF5
000000CFF5
000000CFF5
000000CFF5
000000CFF5
000000CFF5
000000CFF5
000000CFF5
000000CFF5
000000CFF5
000000CFF5
000000CFF5
000000CFF5
000000CFF5
000000CFF5
000000CFF5
000000CFF5
000000CFF5
000000CFF5
000000CFF5
ENDCHAR
STARTCHAR two
ENCODING 50
SWIDTH 493 0
DWIDTH 18 0
BBX 16 26 1 0
BITMAP
00004ADFEC810000
0009FFFFFFFE4000
00AFFFDBCFFFE300
05FFF60003EFFB00
0CFF8000006FFF10
1FFF2000000EFF50
4FFD0000000CFF60
4DDB0000000BFF50
00000000000DFF30
00000000002FFE00
00000000007FF900
0000000001EFF300
000000000AFFA000
000000005FFE2000
00000002EFF60000
0000000CFFB00000
0000008FFE100000
000005FFF4000000
00002EFF70000000
0000CFFA00000000
0008FFD100000000
005FFF3000000000
02EFF60000000000
0CFFEAAAAAAAAAA4
0EFFFFFFFFFFFFF5
0EFFFFFFFFFFFFF5
ENDCHAR
STARTCHAR three
ENCODING 51
SWIDTH 493 0
DWIDTH 18 0
BBX 15 26 1 0
BITMAP
00004AEFEB600000
000AFFFFFFFC2000
00AFFFDACFFFC000
04FFF50003EFF600
0BFF9000007FFC00
0FFF3000002FFF00
1FFF0000000FFF10
01110000001FFF00
00000000004FFD00
0000000000BFF700
000000013BFFC100
00000FFFFFFC2000
00000FFFFFF50000
00000AABDFFFA000
0000000005EFF700
00000000006FFD00
00000000000EFF30
00000000000BFF50
02210000000BFF60
4FFE0000000BFF50
2FFF1000000EFF30
0DFF7000005FFD00
07FFE40003EFF700
01CFFFCACFFFC000
002CFFFFFFFB1000
00006BEFEB500000
ENDCHAR
STARTCHAR four
ENCODING 52
SWIDTH 493 0
DWIDTH 18 0
BBX 16 26 1 0
BITMAP
000000000BFFC000
000000004FFFC000
00000000CFFFC000
00000005FFFFC000
0000000DFFFFC000
0000006FFAFFC000
000000DFD5FFC000
000007FF64FFC000
00001EFD04FFC000
00008FF504FFC000
0002EFC004FFC000
0009FF5004FFC000
002FFC0004FFC000
00AFF40004FFC000
03FFC00004FFC000
0BFF400004FFC000
4FFB000004FFC000
CFFFFFFFFFFFFFFA
EFFFFFFFFFFFFFFA
9AAAAAAAABFFEAA7
0000000004FFC000
0000000004FFC000
0000000004FFC000
0000000004FFC000
0000000004FFC000
0000000004FFC000
ENDCHAR
STARTCHAR five
ENCODING 53
SWIDTH 493 0
DWIDTH 18 0
BBX 15 26 2 0
BITMAP
009FFFFFFFFFF800
00AFFFFFFFFFF800
00CFFFFFFFFFF800
00DFF00000000000
00EFE00000000000
01FFD00000000000
02FFB00000000000
03FFA00000000000
04FF900000000000
06FF87CFEC600000
07FFFFFFFFFB1000
08FFFFFFFFFFA000
09FFC4003CFFF300
0037100001DFFA00
00000000006FFE00
00000000001FFF20
00000000000EFF30
00000000000DFF40
01110000000DFF30
6FF90000000FFF20
3FFC0000004FFE00
0EFF400000BFF900
07FFD20008FFF300
01CFFFBADFFF8000
002CFFFFFFF90000
00006BEFDA400000
ENDCHAR
STARTCHAR six
ENCODING 54
SWIDTH 493 0
DWIDTH 18 0
BBX 14 26 2 0
BITMAP
00000049CED000
00003CFFFFD000
0004EFFFFDA000
002EFFE6100000
00BFFC10000000
03FFE200000000
09FF8000000000
0EFF2000000000
2FFD0000000000
5FFA18CEEB5000
7FFADFFFFFF900
8FFFFFDBEFFF60
9FFFE5001BFFE1
AFFF400001EFF6
AFFB0000009FFA
AFF70000004FFD
AFF70000003FFE
9FF70000001FFF
7FF90000002FFE
4FFC0000004FFC
1FFF2000008FF9
0AFF900001EFF5
03FFF6001AFFD0
008FFFDBEFFF40
0009FFFFFFF500
00005BEFD92000
ENDCHAR
STARTCHAR seven
ENCODING 55
SWIDTH 493 0
DWIDTH 18 0
BBX 16 26 1 0
BITMAP
8FFFFFFFFFFFFFF3
8FFFFFFFFFFFFFF2
5AAAAAAAAAABFFE0
000000000006FF80
00000000000CFF30
00000000002FFC00
00000000008FF700
0000000000EFF200
0000000004FFB000
000000000AFF6000
000000001FFE1000
000000006FFA0000
00000000CFF40000
00000003FFE00000
00000008FF800000
0000000EFF300000
0000005FFC000000
000000AFF7000000
000001FFF2000000
000007FFB0000000
00000CFF50000000
00003FFE10000000
00009FFA00000000
0000EFF400000000
0005FFD000000000
000BFF8000000000
ENDCHAR
STARTCHAR eight
ENCODING 56
SWIDTH 493 0
DWIDTH 18 0
BBX 14 26 2 0
BITMAP
00029DFEC71000
005FFFFFFFD300
04FFFEBCFFFD10
0CFFC1003EFF80
3FFF300007FFE0
6FFC000001FFF2
7FFA000000EFF3
6FFB000000EFF2
4FFD000002FFE0
0DFF500009FF90
05FFE5117FFE20
007FFFFFFFE400
001BFFFFFF7000
01DFFEBBFFF900
0BFF91002DFF70
4FFD000002FFE1
AFF7000000BFF6
CFF40000007FF9
EFF30000006FFA
DFF40000008FFA
CFF6000000AFF8
8FFC000002FFF4
2FFF80001BFFD0
07FFFDABEFFF40
008FFFFFFFE500
00039DFEC81000
ENDCHAR
STARTCHAR nine
ENCODING 57
SWIDTH 493 0
DWIDTH 18 0
BBX 15 26 1 0
BITMAP
00003ADFDA300000
0007FFFFFFF70000
005FFFEBEFFF5000
01EFF9001BFFE100
06FFC00001EFF600
0BFF6000007FFB00
0EFF2000002FFF00
1FFE0000000DFF30
2FFD0000000BFF50
2FFE0000000BFF50
1FFF0000000AFF60
0EFF3000000BFF60
0BFF8000003FFF60
06FFE10001CFFF60
01EFFC314DFFFF50
005FFFFFFFCCFF40
0006FFFFFC2DFF20
000027A9500FFE00
00000000003FFB00
00000000009FF700
0000000002EFF200
000000001CFFA000
00000016DFFE2000
0001CDFFFFE30000
0002FFFFFB200000
0002EDC830000000
ENDCHAR
STARTCHAR colon
ENCODING 58
SWIDTH 233 0
DWIDTH 8 0
BBX 5 20 2 0
BITMAP
1AD900
7FFF50
7FFF60
1CEB10
000000
000000
000000
000000
000000
000000
000000
000000
000000
000000
000000
000000
1AD900
7FFF50
8FFF60
1CEB10
ENDCHAR
STARTCHAR semicolon
ENCODING 59
SWIDTH 202 0
DWIDTH 7 0
BBX 6 25 0 -5
BITMAP
004CC4
00DFFE
00EFFF
005EE6
000000
000000
000000
000000
000000
000000
000000
000000
000000
000000
000000
000000
007DD9
008FFA
008FFA
009FF9
00BFF6
01FFF1
07FF90
1EFE10
04C300
ENDCHAR
STARTCHAR less
ENCODING 60
SWIDTH 445 0
DWIDTH 16 0
BBX 13 16 1 3
BITMAP
00000000001750
0000000006DF60
00000004CFFF60
000002BFFFFE30
00019FFFFE7000
007EFFFE710000
4DFFFE71000000
9FFE8100000000
9FFE6000000000
4DFFFD60000000
007EFFFD600000
00019FFFFD6000
000002BFFFFD30
00000004CFFF60
0000000006DF60
00000000001750
ENDCHAR
STARTCHAR equal
ENCODING 61
SWIDTH 479 0
DWIDTH 17 0
BBX 13 10 2 7
BITMAP
6FFFFFFFFFFFE0
6FFFFFFFFFFFE0
5CCCCCCCCCCCB0
00000000000000
00000000000000
00000000000000
00000000000000
6FFFFFFFFFFFE0
6FFFFFFFFFFFE0
5CCCCCCCCCCCB0
ENDCHAR
STARTCHAR greater
ENCODING 62
SWIDTH 459 0
DWIDTH 17 0
BBX 14 16 2 3
BITMAP
86000000000000
9FD50000000000
9FFFC400000000
5DFFFFB3000000
006DFFFFB30000
00005CFFFFA200
0000004CFFFF90
000000004BFFF1
000000005DFFF1
0000006DFFFF90
00006DFFFFA200
017DFFFFA30000
5EFFFFB3000000
9FFFC400000000
9FD50000000000
86000000000000
ENDCHAR
STARTCHAR question
ENCODING 63
SWIDTH 421 0
DWIDTH 15 0
BBX 13 26 1 0
BITMAP
0004ADFEB50000
008FFFFFFFA000
07FFFFDEFFF900
1EFFB1019FFF20
5FFE10000DFF60
8FF9000009FF90
3552000007FFA0
0000000008FF90
000000000BFF60
000000003FFF10
00000000CFF900
00000009FFE100
0000006FFF4000
000002EFF70000
00000BFFA00000
00002FFF200000
00005FFC000000
00006FFA000000
00004996000000
00000000000000
00000000000000
00000000000000
00000893000000
00006FFD000000
00007FFE000000
00002DE6000000
ENDCHAR
STARTCHAR at
ENCODING 64
SWIDTH 769 0
DWIDTH 28 0
BBX 24 33 2 -8
BITMAP
0000000028CEFED950000000
0000002AFFFFFFFFFD400000
000004EFFD96568CFFF80000
00004FFE500000002BFF7000
0002EFC100000000008FF400
000CFD10000000000009FD00
006FF300000000000001EF50
00DF90000000000000007FC0
05FF2000004BFEB600001FF1
0BFB000005FFFFFFB1000CF5
1FF600003FFC55AFF20008F8
4FF20000CFD1006FF00006FB
7FE00005FF40008FE00004FC
AFB0000BFD00009FD00003FD
CF90001FF80000AFC00003FD
DF80004FF50000BFA00003FE
EF70006FF30000CF900004FD
EF70008FF10000EF800005FC
EF70009FF10000FF700007F9
EF70009FF10002FF60000BF6
CF90008FF30008FF60001FF2
BFB0005FF9003FFF90009FB0
8FD0001EFFB9EECFE428FF30
5FF20007FFFFF43FFFFFF500
1FF600006DEC4004CEEA3000
0BFC00000000000000000000
05FF50000000000000000000
00CFD1000000000000000000
004FFC100000000000000000
0007FFD30000000140000000
00007FFFC75346AFC0000000
000004DFFFFFFFFFB0000000
000000049CEFEC9400000000
ENDCHAR
STARTCHAR A
ENCODING 65
SWIDTH 576 0
DWIDTH 21 0
BBX 20 26 0 0
BITMAP
000000002FFE00000000
000000007FFF40000000
00000000CFFF80000000
00000002FFFFD0000000
00000006FFEFF3000000
0000000BFF7FF8000000
0000001FFC1FFC000000
0000006FF70BFF200000
000000BFF306FF700000
000001FFD002FFC00000
000005FF9000CFF20000
00000AFF40008FF60000
00000EFE00003FFB0000
00004FFA00000DFF1000
00009FF5000009FF5000
0000EFF1000004FFA000
0004FFFFFFFFFFFFE100
0008FFFFFFFFFFFFF500
000DFFCCCCCCCCDFFA00
003FFD000000001FFE00
008FF9000000000CFF40
00CFF40000000008FF90
02FFF10000000004FFD0
07FFB00000000000EFF3
0CFF700000000000BFF8
1FFF3000000000006FFD
ENDCHAR
STARTCHAR B
ENCODING 66
SWIDTH 545 0
DWIDTH 20 0
BBX 16 26 2 0
BITMAP
4FFFFFFFFDB60000
4FFFFFFFFFFFD200
4FFFCCCCDFFFFD10
4FFF0000008FFF70
4FFF0000000AFFC0
4FFF00000005FFF0
4FFF00000003FFF1
4FFF00000003FFF0
4FFF00000007FFD0
4FFF0000001DFF70
4FFF000014CFFC00
4FFFFFFFFFFFA100
4FFFFFFFFFFF7000
4FFFBBBBBDFFFC10
4FFF0000003DFF90
4FFF00000004FFF1
4FFF00000000DFF5
4FFF00000000BFF8
4FFF00000000AFF8
4FFF00000000BFF8
4FFF00000000EFF5
4FFF00000006FFF2
4FFF0000006FFFA0
4FFFCCCCCEFFFE20
4FFFFFFFFFFFD300
4FFFFFFFFEB61000
ENDCHAR
STARTCHAR C
ENCODING 67
SWIDTH 566 0
DWIDTH 20 0
BBX 17 26 2 0
BITMAP
000005ADEED9400000
0003CFFFFFFFFA1000
003EFFFECDFFFFC000
01DFFE500018FFF700
08FFE30000008FFE10
0EFF700000001FFF50
4FFF100000000BFF80
7FFB0000000008FFA0
AFF900000000049970
BFF700000000000000
CFF700000000000000
CFF700000000000000
CFF700000000000000
CFF700000000000000
CFF700000000000000
CFF700000000000000
BFF700000000000000
AFF900000000037760
7FFB0000000008FFA0
4FFE000000000BFF80
0EFF600000001EFF40
08FFD10000007FFE10
01DFFD300017FFF700
003EFFFDCCFFFFB000
0003DFFFFFFFF90000
000006BDFEC9300000
ENDCHAR
STARTCHAR D
ENCODING 68
SWIDTH 570 0
DWIDTH 21 0
BBX 17 26 2 0
BITMAP
4FFFFFFEDA60000000
4FFFFFFFFFFD500000
4FFFCCCDEFFFF60000
4FFF000004CFFF4000
4FFF0000000AFFD000
4FFF00000001EFF500
4FFF000000008FFB00
4FFF000000003FFE00
4FFF000000001FFF20
4FFF000000000EFF30
4FFF000000000DFF40
4FFF000000000DFF40
4FFF000000000DFF40
4FFF000000000DFF40
4FFF000000000DFF40
4FFF000000000DFF40
4FFF000000000EFF30
4FFF000000001FFF20
4FFF000000004FFE00
4FFF000000008FFB00
4FFF00000001EFF500
4FFF0000000BFFD000
4FFF000004CFFF4000
4FFFCCCDEFFFF60000
4FFFFFFFFFFD400000
4FFFFFFED950000000
ENDCHAR
STARTCHAR E
ENCODING 69
SWIDTH 496 0
DWIDTH 18 0
BBX 15 26 2 0
BITMAP
4FFFFFFFFFFFFF50
4FFFFFFFFFFFFF50
4FFFCCCCCCCCCC40
4FFF000000000000
4FFF000000000000
4FFF000000000000
4FFF000000000000
4FFF000000000000
4FFF000000000000
4FFF000000000000
4FFF000000000000
4FFFFFFFFFFFF000
4FFFFFFFFFFFF000
4FFFCCCCCCCCC000
4FFF000000000000
4FFF000000000000
4FFF000000000000
4FFF000000000000
4FFF000000000000
4FFF000000000000
4FFF000000000000
4FFF000000000000
4FFF000000000000
4FFFCCCCCCCCCC60
4FFFFFFFFFFFFF80
4FFFFFFFFFFFFF80
ENDCHAR
STARTCHAR F
ENCODING 70
SWIDTH 480 0
DWIDTH 17 0
BBX 15 26 2 0
BITMAP
4FFFFFFFFFFFFF10
4FFFFFFFFFFFFF10
4FFFCCCCCCCCCC10
4FFF000000000000
4FFF000000000000
4FFF000000000000
4FFF000000000000
4FFF000000000000
4FFF000000000000
4FFF000000000000
4FFF000000000000
4FFF000000000000
4FFFFFFFFFFF9000
4FFFFFFFFFFF9000
4FFFCCCCCCCC7000
4FFF000000000000
4FFF000000000000
4FFF000000000000
4FFF000000000000
4FFF000000000000
4FFF000000000000
4FFF000000000000
4FFF000000000000
4FFF000000000000
4FFF000000000000
4FFF000000000000
ENDCHAR
STARTCHAR G
ENCODING 71
SWIDTH 590 0
DWIDTH 21 0
BBX 17 26 2 0
BITMAP
000017BDFED9400000
0006EFFFFFFFFB1000
007FFFFECDFFFFC100
03FFFC300018FFF900
0BFFC10000008FFF10
2FFF400000001EFF60
6FFD000000000AFF90
8FFA0000000006DD90
AFF800000000000000
BFF700000000000000
CFF600000000000000
CFF600000000000000
CFF600000000000000
CFF600002FFFFFFFC0
CFF600002FFFFFFFC0
CFF600001BBBBDFFC0
BFF70000000007FFC0
AFF90000000007FFC0
8FFB0000000007FFC0
4FFF1000000007FFC0
1EFF7000000007FFC0
08FFE300000008FFC0
01DFFE6000029FFFA0
003EFFFECCDFFFFC10
0003CFFFFFFFFF9100
000005ADEFDB720000
ENDCHAR
STARTCHAR H
ENCODING 72
SWIDTH 620 0
DWIDTH 22 0
BBX 18 26 2 0
BITMAP
4FFF0000000000BFF8
4FFF0000000000BFF8
4FFF0000000000BFF8
4FFF0000000000BFF8
4FFF0000000000BFF8
4FFF0000000000BFF8
4FFF0000000000BFF8
4FFF0000000000BFF8
4FFF0000000000BFF8
4FFF0000000000BFF8
4FFF0000000000BFF8
4FFFFFFFFFFFFFFFF8
4FFFFFFFFFFFFFFFF8
4FFFCCCCCCCCCCEFF8
4FFF0000000000BFF8
4FFF0000000000BFF8
4FFF0000000000BFF8
4FFF0000000000BFF8
4FFF0000000000BFF8
4FFF0000000000BFF8
4FFF0000000000BFF8
4FFF0000000000BFF8
4FFF0000000000BFF8
4FFF0000000000BFF8
4FFF0000000000BFF8
4FFF0000000000BFF8
ENDCHAR
STARTCHAR I
ENCODING 73
SWIDTH 250 0
DWIDTH 9 0
BBX 5 26 2 0
BITMAP
1FFF20
1FFF20
1FFF20
1FFF20
1FFF20
1FFF20
1FFF20
1FFF20
1FFF20
1FFF20
1FFF20
1FFF20
1FFF20
1FFF20
1FFF20
1FFF20
1FFF20
1FFF20
1FFF20
1FFF20
1FFF20
1FFF20
1FFF20
1FFF20
1FFF20
1FFF20
ENDCHAR
STARTCHAR J
ENCODING 74
SWIDTH 483 0
DWIDTH 17 0
BBX 14 26 1 0
BITMAP
00000000006FFC
00000000006FFC
00000000006FFC
00000000006FFC
00000000006FFC
00000000006FFC
00000000006FFC
00000000006FFC
00000000006FFC
00000000006FFC
00000000006FFC
00000000006FFC
00000000006FFC
00000000006FFC
00000000006FFC
00000000006FFC
00000000006FFC
00000000006FFC
66620000007FFC
EFF50000008FFB
CFF8000000BFF8
8FFE100003FFF4
2FFFA1003DFFD0
08FFFFCDFFFF40
009FFFFFFFE500
0004ADFEC82000
ENDCHAR
STARTCHAR K
ENCODING 75
SWIDTH 544 0
DWIDTH 20 0
BBX 18 26 2 0
BITMAP
4FFF000000006FFF70
4FFF00000002EFFB00
4FFF0000000CFFE200
4FFF0000008FFF5000
4FFF000003FFF90000
4FFF00001DFFC00000
4FFF0000AFFE200000
4FFF0005FFF6000000
4FFF002EFFA0000000
4FFF00BFFD10000000
4FFF08FFF400000000
4FFF4FFFA000000000
4FFFDFFFF300000000
4FFFFFFFFC00000000
4FFFFE6FFF60000000
4FFFF409FFE1000000
4FFF7001EFFA000000
4FFF00007FFF400000
4FFF00000CFFD00000
4FFF000004FFF70000
4FFF000000AFFF2000
4FFF0000001EFFB000
4FFF00000007FFF500
4FFF00000000DFFE10
4FFF000000004FFF90
4FFF000000000AFFF3
ENDCHAR
STARTCHAR L
ENCODING 76
SWIDTH 475 0
DWIDTH 17 0
BBX 14 26 2 0
BITMAP
4FFF0000000000
4FFF0000000000
4FFF0000000000
4FFF0000000000
4FFF0000000000
4FFF0000000000
4FFF0000000000
4FFF0000000000
4FFF0000000000
4FFF0000000000
4FFF0000000000
4FFF0000000000
4FFF0000000000
4FFF0000000000
4FFF0000000000
4FFF0000000000
4FFF0000000000
4FFF0000000000
4FFF0000000000
4FFF0000000000
4FFF0000000000
4FFF0000000000
4FFF0000000000
4FFFCCCCCCCCCC
4FFFFFFFFFFFFF
4FFFFFFFFFFFFF
ENDCHAR
STARTCHAR M
ENCODING 77
SWIDTH 755 0
DWIDTH 27 0
BBX 23 26 2 0
BITMAP
4FFFF1000000000000DFFF60
4FFFF6000000000003FFFF60
4FFFFA000000000008FFFF60
4FFFFE10000000000DFFFF60
4FFFFF50000000002FFFFF60
4FFFFFA0000000007FFFFF60
4FFCFFE000000000CFFCFF60
4FFBCFF400000001FFE8FF60
4FFB7FF900000006FF99FF60
4FFC2FFD0000000BFF49FF60
4FFC0CFF3000001FFE0AFF60
4FFD07FF8000005FF90AFF60
4FFD02FFD00000AFF40BFF60
4FFE00CFF20000EFE00BFF60
4FFE007FF70004FF900BFF60
4FFF002FFC0009FF400CFF60
4FFF000CFF200EFE000CFF60
4FFF0007FF604FF9000CFF60
4FFF0002FFB08FF4000CFF60
4FFF0000CFF1DFE0000CFF60
4FFF00007FF8FF90000CFF60
4FFF00002FFFFF40000CFF60
4FFF00000CFFFE00000CFF60
4FFF000007FFF900000CFF60
4FFF000002FFF400000CFF60
4FFF000000CFE000000CFF60
ENDCHAR
STARTCHAR N
ENCODING 78
SWIDTH 619 0
DWIDTH 22 0
BBX 18 26 2 0
BITMAP
4FFF4000000000BFF7
4FFFB000000000BFF7
4FFFF400000000BFF7
4FFFFC00000000BFF7
4FFFFF40000000BFF7
4FFFFFC0000000BFF7
4FFFBFF5000000BFF7
4FFF3FFC000000BFF7
4FFF0BFF500000BFF7
4FFF03FFD00000BFF7
4FFF00AFF50000BFF7
4FFF003FFD0000BFF7
4FFF000AFF6000BFF7
4FFF0002FFD000BFF7
4FFF0000AFF600BFF7
4FFF00002FFD00BFF7
4FFF000009FF60BFF7
4FFF000002FFE1BFF7
4FFF0000009FF7BFF7
4FFF0000002FFEBFF7
4FFF00000008FFFFF7
4FFF00000001EFFFF7
4FFF000000008FFFF7
4FFF000000001EFFF7
4FFF0000000008FFF7
4FFF0000000001EFF7
ENDCHAR
STARTCHAR O
ENCODING 79
SWIDTH 600 0
DWIDTH 22 0
BBX 18 26 2 0
BITMAP
000006ADFED9300000
0003DFFFFFFFFA1000
003EFFFFEFFFFFB100
01DFFE610039FFF900
08FFE30000007FFF20
0EFF700000000CFF80
4FFF1000000006FFD0
7FFB0000000002FFF1
AFF80000000000EFF4
BFF70000000000DFF5
CFF60000000000CFF6
CFF60000000000CFF6
CFF60000000000CFF6
CFF60000000000CFF6
CFF60000000000CFF6
CFF60000000000CFF6
BFF70000000000DFF5
AFF80000000000EFF4
7FFB0000000002FFF2
4FFE1000000006FFE0
0EFF600000000BFF90
08FFE20000006FFF30
01DFFE610028FFF900
003EFFFFDEFFFFC100
0003DFFFFFFFFA1000
000006ADFED9400000
ENDCHAR
STARTCHAR P
ENCODING 80
SWIDTH 554 0
DWIDTH 20 0
BBX 17 26 2 0
BITMAP
4FFFFFFFFED9400000
4FFFFFFFFFFFFA1000
4FFFCCCCCDFFFFB000
4FFF00000019FFF700
4FFF00000000AFFE00
4FFF000000002FFF40
4FFF000000000CFF70
4FFF000000000AFF80
4FFF000000000AFF80
4FFF000000000CFF70
4FFF000000002FFF40
4FFF00000000AFFE00
4FFF0000014BFFF700
4FFFFFFFFFFFFFB000
4FFFFFFFFFFFF80000
4FFFCCCCCB96200000
4FFF00000000000000
4FFF00000000000000
4FFF00000000000000
4FFF00000000000000
4FFF00000000000000
4FFF00000000000000
4FFF00000000000000
4FFF00000000000000
4FFF00000000000000
4FFF00000000000000
ENDCHAR
STARTCHAR Q
ENCODING 81
SWIDTH 600 0
DWIDTH 22 0
BBX 18 30 2 -4
BITMAP
000016BDFEC8300000
0005EFFFFFFFF80000
005FFFFFEFFFFFA000
02EFFD51003BFFF600
0AFFD10000009FFE10
2FFF500000001EFF60
6FFD0000000008FFB0
9FF90000000004FFE0
CFF60000000002FFF2
DFF50000000000FFF3
EFF40000000000FFF4
EFF40000000000EFF4
EFF40000000000EFF4
EFF40000000000EFF4
EFF40000000000EFF4
EFF40000000000EFF4
DFF50000000000FFF3
CFF60000000001FFF2
AFF90000000004FFF0
6FFD0000000008FFC0
2FFF400000000DFF70
0AFFD10000008FFF10
02EFFD500029FFF800
005FFFFFDEFFFFB000
0004EFFFFFFFFE2000
000016BDFEDFFFD200
000000000006FFFE30
0000000000005FFFE4
00000000000004EFC1
000000000000003B10
ENDCHAR
STARTCHAR R
ENCODING 82
SWIDTH 530 0
DWIDTH 19 0
BBX 17 26 2 0
BITMAP
4FFFFFFFEDA5000000
4FFFFFFFFFFFC20000
4FFFCCCCDFFFFD1000
4FFF0000018FFF9000
4FFF00000008FFF100
4FFF00000001FFF400
4FFF00000000CFF700
4FFF00000000BFF800
4FFF00000000BFF800
4FFF00000000DFF600
4FFF00000003FFF300
4FFF0000000CFFD000
4FFF000014CFFF5000
4FFFFFFFFFFFF80000
4FFFFFFFFFFE500000
4FFFCCCCDFFC000000
4FFF00003FFF400000
4FFF00000BFFA00000
4FFF000004FFF20000
4FFF000000DFF90000
4FFF0000006FFF1000
4FFF0000000EFF8000
4FFF00000008FFE100
4FFF00000001FFF700
4FFF000000009FFD00
4FFF000000003FFF60
ENDCHAR
STARTCHAR S
ENCODING 83
SWIDTH 518 0
DWIDTH 19 0
BBX 17 26 1 0
BITMAP
000017BEFEB7100000
0004EFFFFFFFE40000
004FFFFDCDFFFF4000
01EFFC30003CFFE100
06FFE1000001DFF700
0AFF900000006FFD00
0CFF700000003FFF00
0CFF700000001CCC10
0AFFC0000000000000
05FFF8000000000000
00BFFFC30000000000
002DFFFFC610000000
0001BFFFFFF9200000
000004BFFFFFE60000
000000028EFFFF8000
00000000006EFFF400
000000000002DFFB00
0000000000006FFF00
6CC9000000002FFF20
6FFD000000001FFF20
3FFF200000003FFF10
0CFFB0000000AFFC00
04FFFB300018FFF600
006FFFFDCCFFFFB000
0005EFFFFFFFFA1000
000016BDFED9300000
ENDCHAR
STARTCHAR T
ENCODING 84
SWIDTH 520 0
DWIDTH 19 0
BBX 17 26 1 0
BITMAP
EFFFFFFFFFFFFFFFB0
EFFFFFFFFFFFFFFFB0
BCCCCCDFFFCCCCCC80
0000004FFF00000000
0000004FFF00000000
0000004FFF00000000
0000004FFF00000000
0000004FFF00000000
0000004FFF00000000
0000004FFF00000000
0000004FFF00000000
0000004FFF00000000
0000004FFF00000000
0000004FFF00000000
0000004FFF00000000
0000004FFF00000000
0000004FFF00000000
0000004FFF00000000
0000004FFF00000000
0000004FFF00000000
0000004FFF00000000
0000004FFF00000000
0000004FFF00000000
0000004FFF00000000
0000004FFF00000000
0000004FFF00000000
ENDCHAR
STARTCHAR U
ENCODING 85
SWIDTH 561 0
DWIDTH 20 0
BBX 16 26 2 0
BITMAP
BFF7000000003FFF
BFF7000000003FFF
BFF7000000003FFF
BFF7000000003FFF
BFF7000000003FFF
BFF7000000003FFF
BFF7000000003FFF
BFF7000000003FFF
BFF7000000003FFF
BFF7000000003FFF
BFF7000000003FFF
BFF7000000003FFF
BFF7000000003FFF
BFF7000000003FFF
BFF7000000003FFF
BFF7000000003FFF
BFF7000000003FFF
BFF7000000003FFF
AFF8000000004FFF
9FF9000000005FFE
7FFC000000008FFB
3FFF40000001EFF7
0BFFE500003CFFE1
02EFFFECCDFFFF40
003DFFFFFFFFE400
00005ADEFDB61000
ENDCHAR
STARTCHAR V
ENCODING 86
SWIDTH 560 0
DWIDTH 20 0
BBX 20 26 0 0
BITMAP
2FFF600000000003FFF4
0CFFA00000000007FFE0
08FFE0000000000CFFA0
03FFF3000000001FFF60
00DFF7000000005FFF10
009FFC000000009FFC00
004FFF10000000DFF700
000EFF50000003FFF200
000AFF90000007FFD000
0005FFD000000BFF8000
0001FFF200001FFF4000
0000BFF700004FFE0000
00007FFB00008FF90000
00002FFE0000DFF50000
00000DFF4002FFF10000
000008FF8006FFB00000
000003FFC00AFF600000
000000EFF20EFF200000
0000009FF63FFC000000
0000005FFA8FF7000000
0000001EFECFF3000000
0000000AFFFFD0000000
00000006FFFF90000000
00000001FFFF40000000
00000000CFFE00000000
000000007FFA00000000
ENDCHAR
STARTCHAR W
ENCODING 87
SWIDTH 761 0
DWIDTH 27 0
BBX 26 26 1 0
BITMAP
AFF800000008FF60000000DFF6
7FFB0000000BFF90000000FFF3
4FFE0000000EFFC0000003FFE0
1FFF1000003FFFF1000005FFC0
0DFF4000006FFFF4000008FF90
0AFF700000AFEFF700000BFF60
07FF900000DFCDFB00000DFF30
04FFC00002FF8AFE00001FFF00
01FFF00005FF57FF20004FFC00
00DFF20008FF14FF50006FF900
00BFF5000CFD01FF90009FF600
008FF8000FF900CFC000CFF300
005FFA004FF6009FF100EFF100
002FFD007FF2005FF402FFC000
000EFF10AFE0002FF704FF9000
000BFF30EFA0000DFA07FF6000
0008FF62FF70000AFD0AFF4000
0005FF96FF300007FF2CFF1000
0002FFB9FF000003FF5EFD0000
0000EFDCFC000000FF9FFA0000
0000BFEEF8000000CFEFF70000
00008FFFF40000008FFFF40000
00005FFFF10000005FFFF10000
00002FFFD00000001FFFD00000
00000EFF900000000DFFA00000
00000CFF500000000AFF700000
ENDCHAR
STARTCHAR X
ENCODING 88
SWIDTH 550 0
DWIDTH 20 0
BBX 18 26 1 0
BITMAP
6FFF5000000007FFF4
0DFFC00000001EFFC0
05FFF50000007FFF40
00DFFC000000DFFB00
005FFF400006FFF300
000CFFC0000DFFB000
0004FFF4006FFF3000
0000CFFB00DFFA0000
00004FFF45FFF20000
00000BFFBCFFA00000
000003FFFFFF200000
000000AFFFF9000000
0000003FFFF2000000
0000004FFFF3000000
000000CFFFFB000000
000005FFFFFF400000
00000DFFABFFB00000
00006FFF24FFF40000
0000DFFA00CFFC0000
0006FFF3004FFF5000
001DFFA0000CFFC000
007FFF300005FFF500
01EFFB000000CFFD00
07FFF30000005FFF60
1EFFB00000000DFFD0
8FFF4000000006FFF6
ENDCHAR
STARTCHAR Y
ENCODING 89
SWIDTH 524 0
DWIDTH 19 0
BBX 19 26 0 0
BITMAP
4FFF60000000008FFF10
0CFFC000000000EFF900
05FFF300000005FFF300
00DFF90000000BFFB000
007FFE1000002FFF4000
001EFF6000008FFD0000
0009FFC00000EFF60000
0002FFF30005FFE00000
0000AFF9000BFF700000
00003FFE102FFF100000
00000CFF608FF9000000
000005FFC0EFF2000000
000000DFF8FFB0000000
0000007FFFFF40000000
0000001EFFFC00000000
00000008FFF600000000
00000003FFF000000000
00000003FFF000000000
00000003FFF000000000
00000003FFF000000000
00000003FFF000000000
00000003FFF000000000
00000003FFF000000000
00000003FFF000000000
00000003FFF000000000
00000003FFF000000000
ENDCHAR
STARTCHAR Z
ENCODING 90
SWIDTH 522 0
DWIDTH 19 0
BBX 17 26 1 0
BITMAP
4FFFFFFFFFFFFFFD00
4FFFFFFFFFFFFFFD00
3CCCCCCCCCCCEFFC00
000000000003FFF400
00000000000BFFB000
00000000004FFF2000
0000000000DFF90000
0000000006FFE10000
000000001EFF700000
000000008FFD000000
00000002FFF5000000
0000000AFFC0000000
0000003FFF30000000
000000CFFA00000000
000005FFF200000000
00000DFF8000000000
00007FFE1000000000
0001EFF60000000000
0009FFC00000000000
003FFF400000000000
00BFFB000000000000
04FFF2000000000000
0DFF90000000000000
5FFFCCCCCCCCCCCC40
6FFFFFFFFFFFFFFF50
6FFFFFFFFFFFFFFF50
ENDCHAR
STARTCHAR bracketleft
ENCODING 91
SWIDTH 250 0
DWIDTH 9 0
BBX 7 34 2 -5
BITMAP
9FFFFF40
9FFFFF40
9FFDAA30
9FF80000
9FF80000
9FF80000
9FF80000
9FF80000
9FF80000
9FF80000
9FF80000
9FF80000
9FF80000
9FF80000
9FF80000
9FF80000
9FF80000
9FF80000
9FF80000
9FF80000
9FF80000
9FF80000
9FF80000
9FF80000
9FF80000
9FF80000
9FF80000
9FF80000
9FF80000
9FF80000
9FF80000
9FFDAA30
9FFFFF40
9FFFFF40
ENDCHAR
STARTCHAR backslash
ENCODING 92
SWIDTH 369 0
DWIDTH 13 0
BBX 12 28 1 -2
BITMAP
EFE000000000
9FF500000000
5FF900000000
0EFE00000000
0AFF40000000
05FF90000000
01FFE0000000
00BFF3000000
006FF8000000
001FFD000000
000BFF300000
0006FF800000
0002FFD00000
0000CFF20000
00007FF70000
00002FFC0000
00000CFF2000
000007FF7000
000003FFB000
000000DFF100
0000008FF600
0000003FFB00
0000000DFF10
00000009FF50
00000004FFA0
00000000EFE1
000000009FF5
000000004FFA
ENDCHAR
STARTCHAR bracketright
ENCODING 93
SWIDTH 250 0
DWIDTH 9 0
BBX 7 34 0 -5
BITMAP
7FFFFF60
7FFFFF60
5AAEFF60
000BFF60
000BFF60
000BFF60
000BFF60
000BFF60
000BFF60
000BFF60
000BFF60
000BFF60
000BFF60
000BFF60
000BFF60
000BFF60
000BFF60
000BFF60
000BFF60
000BFF60
000BFF60
000BFF60
000BFF60
000BFF60
000BFF60
000BFF60
000BFF60
000BFF60
000BFF60
000BFF60
000BFF60
5AAEFF60
7FFFFF60
7FFFFF60
ENDCHAR
STARTCHAR asciicircum
ENCODING 94
SWIDTH 371 0
DWIDTH 13 0
BBX 11 13 1 13
BITMAP
00008FD00000
0000DFF30000
0003FFF80000
0008FFFD0000
000DFDFF4000
003FF5EF9000
009FF1AFE000
00EFB06FF400
04FF601FF900
09FF200CFE00
0EFC0007FF40
4FF80003FF90
9FF30000DFE0
ENDCHAR
STARTCHAR underscore
ENCODING 95
SWIDTH 404 0
DWIDTH 15 0
BBX 15 3 0 -3
BITMAP
9FFFFFFFFFFFFF20
9FFFFFFFFFFFFF20
6AAAAAAAAAAAAA20
ENDCHAR
STARTCHAR grave
ENCODING 96
SWIDTH 309 0
DWIDTH 11 0
BBX 8 5 1 22
BITMAP
8FFF5000
0AFFE200
00BFFC00
001CFF90
0001CCA1
ENDCHAR
STARTCHAR a
ENCODING 97
SWIDTH 479 0
DWIDTH 17 0
BBX 14 19 2 0
BITMAP
00039DEEC82000
008FFFFFFFE400
07FFFDBCFFFE10
2FFF70003EFF60
7FFB000008FFA0
7BB6000006FFB0
0000000005FFB0
0000000005FFB0
00049CEFFFFFB0
01BFFFFFFFFFB0
1CFFFB7548FFB0
7FFD200005FFB0
CFF5000005FFB0
EFF2000005FFB0
EFF4000009FFB0
CFFC10029FFFC0
6FFFFDDFFEFFD0
0AFFFFFFD4FFF1
005BEFD811FFF4
ENDCHAR
STARTCHAR b
ENCODING 98
SWIDTH 493 0
DWIDTH 18 0
BBX 15 27 2 0
BITMAP
AFF7000000000000
AFF7000000000000
AFF7000000000000
AFF7000000000000
AFF7000000000000
AFF7000000000000
AFF7000000000000
AFF7000000000000
AFF707CEEC700000
AFF7CFFFFFFC1000
AFFEFFDCFFFFB000
AFFFB20019FFF400
AFFD100000BFF900
AFF70000005FFC00
AFF70000002FFF00
AFF70000001FFF10
AFF70000000FFF10
AFF70000000FFF20
AFF70000000FFF10
AFF70000001FFF10
AFF70000002FFF00
AFF70000006FFC00
AFFD000000BFF900
AFFFB20018FFF300
AFFDFFCCEFFFA000
AFF5CFFFFFFC1000
AFF307CEEC700000
ENDCHAR
STARTCHAR c
ENCODING 99
SWIDTH 461 0
DWIDTH 17 0
BBX 15 19 1 0
BITMAP
00004ADEEC810000
001AFFFFFFFE4000
00AFFFDBCEFFE200
05FFF60002CFFA00
0BFF8000002FFF10
0FFF2000000CFF40
3FFE00000006AA30
4FFD000000000000
5FFC000000000000
5FFC000000000000
5FFC000000000000
4FFD000000000000
3FFE000000012210
0FFF2000000BFF40
0BFF7000001EFF10
05FFF50001AFFB00
00BFFFDABEFFE200
001BFFFFFFFD3000
00004ADFEC710000
ENDCHAR
STARTCHAR d
ENCODING 100
SWIDTH 496 0
DWIDTH 18 0
BBX 15 27 1 0
BITMAP
00000000000BFF60
00000000000BFF60
00000000000BFF60
00000000000BFF60
00000000000BFF60
00000000000BFF60
00000000000BFF60
00000000000BFF60
00017CEEC60BFF60
002DFFFFFFABFF60
00CFFFECDFFFFF60
06FFF70003CFFF60
0CFF9000001EFF60
0FFF3000000BFF60
3FFE0000000BFF60
4FFD0000000BFF60
5FFC0000000BFF60
5FFC0000000BFF60
5FFC0000000BFF60
4FFC0000000BFF60
3FFE0000000BFF60
0FFF2000000BFF60
0BFF9000001EFF60
05FFF60002CFFF60
00CFFFECDFFEFF60
001DFFFFFFA9FF60
00007CEEC607FF60
ENDCHAR
STARTCHAR e
ENCODING 101
SWIDTH 468 0
DWIDTH 17 0
BBX 15 19 1 0
BITMAP
000039DFEC810000
0008FFFFFFFE3000
007FFFDBBFFFE100
02FFF60002DFF800
09FF9000004FFE00
0DFF3000000EFF20
1FFF0000000BFF50
3FFE0000000AFF60
4FFFFFFFFFFFFF70
4FFFFFFFFFFFFF70
4FFEAAAAAAAAAA50
3FFD000000000000
2FFE000000000000
0EFF200000000000
0BFF900000005000
04FFF7000019FA00
00AFFFEBACFFFE10
001AFFFFFFFFC300
000049DEFDA60000
ENDCHAR
STARTCHAR f
ENCODING 102
SWIDTH 316 0
DWIDTH 11 0
BBX 10 27 1 0
BITMAP
000006CEFC
0000BFFFFF
0007FFFECC
000EFFA000
002FFF2000
004FFD0000
005FFC0000
005FFC0000
CFFFFFFFF1
CFFFFFFFF1
68AFFE8880
005FFC0000
005FFC0000
005FFC0000
005FFC0000
005FFC0000
005FFC0000
005FFC0000
005FFC0000
005FFC0000
005FFC0000
005FFC0000
005FFC0000
005FFC0000
005FFC0000
005FFC0000
005FFC0000
ENDCHAR
STARTCHAR g
ENCODING 103
SWIDTH 492 0
DWIDTH 18 0
BBX 15 26 1 -7
BITMAP
00017CEEC606FF70
002DFFFFFFA7FF70
00DFFFECDFFEFF70
06FFF70003CFFF70
0BFF9000001EFF70
0FFF3000000AFF70
2FFF0000000AFF70
4FFD0000000AFF70
4FFC0000000AFF70
4FFC0000000AFF70
4FFC0000000AFF70
4FFD0000000AFF70
2FFF0000000AFF70
0EFF3000000AFF70
0BFF9000001EFF70
05FFF70002CFFF70
00CFFFECDFFFFF70
002DFFFFFFBAFF70
00017CEEC60AFF70
00000000000AFF60
00000000000DFF40
00120000003FFF10
008E600002DFFB00
01EFFEBACFFFE300
004DFFFFFFFE4000
00005ADFEC710000
ENDCHAR
STARTCHAR h
ENCODING 104
SWIDTH 482 0
DWIDTH 17 0
BBX 14 27 2 0
BITMAP
AFF70000000000
AFF70000000000
AFF70000000000
AFF70000000000
AFF70000000000
AFF70000000000
AFF70000000000
AFF70000000000
AFF706CEEC6000
AFF7BFFFFFF900
AFFFFFDDFFFF40
AFFFD3003DFFA0
AFFE200005FFD0
AFF8000002FFF0
AFF7000000FFF1
AFF7000000FFF1
AFF7000000FFF1
AFF7000000FFF1
AFF7000000FFF1
AFF7000000FFF1
AFF7000000FFF1
AFF7000000FFF1
AFF7000000FFF1
AFF7000000FFF1
AFF7000000FFF1
AFF7000000FFF1
AFF7000000FFF1
ENDCHAR
STARTCHAR i
ENCODING 105
SWIDTH 229 0
DWIDTH 8 0
BBX 4 26 2 0
BITMAP
19A3
7FFC
8FFD
2DE6
0000
0000
0000
7FFA
7FFA
7FFA
7FFA
7FFA
7FFA
7FFA
7FFA
7FFA
7FFA
7FFA
7FFA
7FFA
7FFA
7FFA
7FFA
7FFA
7FFA
7FFA
ENDCHAR
STARTCHAR j
ENCODING 106
SWIDTH 223 0
DWIDTH 8 0
BBX 7 33 -1 -7
BITMAP
0003A910
000BFF70
000CFF90
0005ED30
00000000
00000000
00000000
0009FF80
0009FF80
0009FF80
0009FF80
0009FF80
0009FF80
0009FF80
0009FF80
0009FF80
0009FF80
0009FF80
0009FF80
0009FF80
0009FF80
0009FF80
0009FF80
0009FF80
0009FF80
0009FF80
0009FF80
0009FF70
000AFF70
001EFF50
5CEFFF10
6FFFF800
4EFD7000
ENDCHAR
STARTCHAR k
ENCODING 107
SWIDTH 450 0
DWIDTH 16 0
BBX 14 27 2 0
BITMAP
AFF70000000000
AFF70000000000
AFF70000000000
AFF70000000000
AFF70000000000
AFF70000000000
AFF70000000000
AFF70000000000
AFF700001EFFB0
AFF70000BFFD10
AFF70007FFF300
AFF7003FFF6000
AFF701DFFA0000
AFF709FFD10000
AFF75FFE300000
AFF9EFF6000000
AFFFFFF6000000
AFFFFFFE100000
AFFFDCFF900000
AFFE23FFF40000
AFF7009FFD0000
AFF7001EFF7000
AFF70006FFF200
AFF70000CFFB00
AFF700003FFF50
AFF7000009FFE1
AFF7000001EFF9
ENDCHAR
STARTCHAR l
ENCODING 108
SWIDTH 229 0
DWIDTH 8 0
BBX 4 27 2 0
BITMAP
7FFA
7FFA
7FFA
7FFA
7FFA
7FFA
7FFA
7FFA
7FFA
7FFA
7FFA
7FFA
7FFA
7FFA
7FFA
7FFA
7FFA
7FFA
7FFA
7FFA
7FFA
7FFA
7FFA
7FFA
7FFA
7FFA
7FFA
ENDCHAR
STARTCHAR m
ENCODING 109
SWIDTH 752 0
DWIDTH 27 0
BBX 23 19 2 0
BITMAP
AFF418CEEB50004AEFD92000
AFF7EFFFFFF808FFFFFFE300
AFFFFECEFFFFAFFECEFFFD00
AFFF91004EFFFF70006FFF40
AFFB000007FFFB00000BFF80
AFF7000003FFF5000007FFA0
AFF7000001FFF2000006FFB0
AFF7000000FFF1000005FFB0
AFF7000000FFF1000005FFB0
AFF7000000FFF1000005FFB0
AFF7000000FFF1000005FFB0
AFF7000000FFF1000005FFB0
AFF7000000FFF1000005FFB0
AFF7000000FFF1000005FFB0
AFF7000000FFF1000005FFB0
AFF7000000FFF1000005FFB0
AFF7000000FFF1000005FFB0
AFF7000000FFF1000005FFB0
AFF7000000FFF1000005FFB0
ENDCHAR
STARTCHAR n
ENCODING 110
SWIDTH 483 0
DWIDTH 17 0
BBX 14 19 2 0
BITMAP
AFF406CEEC6000
AFF5CFFFFFF900
AFFEFFDDFFFF40
AFFFD3003DFFA0
AFFE200005FFD0
AFF8000002FFF0
AFF7000000FFF1
AFF7000000FFF1
AFF7000000FFF1
AFF7000000FFF1
AFF7000000FFF1
AFF7000000FFF1
AFF7000000FFF1
AFF7000000FFF1
AFF7000000FFF1
AFF7000000FFF1
AFF7000000FFF1
AFF7000000FFF1
AFF7000000FFF1
ENDCHAR
STARTCHAR o
ENCODING 111
SWIDTH 501 0
DWIDTH 18 0
BBX 16 19 1 0
BITMAP
000028DEED920000
0006FFFFFFFF7000
006FFFEBBEFFF700
02FFFA1001AFFF30
09FFC000000CFFA0
0EFF50000004FFE0
2FFF00000000EFF3
4FFD00000000CFF5
5FFC00000000BFF6
5FFC00000000BFF6
5FFC00000000BFF6
4FFD00000000CFF5
2FFF00000000EFF3
0EFF40000002FFE0
09FFC0000009FFA0
02FFFA10007FFF30
007FFFEBADFFF700
0007FFFFFFFF7000
000029DEED930000
ENDCHAR
STARTCHAR p
ENCODING 112
SWIDTH 493 0
DWIDTH 18 0
BBX 15 26 2 -7
BITMAP
AFF318DEEC700000
AFF5DFFFFFFC1000
AFFEFECDFFFFA000
AFFF91001AFFF300
AFFB000000DFF800
AFF70000007FFC00
AFF70000003FFE00
AFF70000001FFF00
AFF70000001FFF10
AFF70000000FFF10
AFF70000001FFF10
AFF70000001FFF00
AFF70000003FFE00
AFF70000006FFC00
AFF9000000CFF800
AFFF700019FFF300
AFFFFDBBEFFFA000
AFF8DFFFFFFC1000
AFF718DFEC600000
AFF7000000000000
AFF7000000000000
AFF7000000000000
AFF7000000000000
AFF7000000000000
AFF7000000000000
AFF7000000000000
ENDCHAR
STARTCHAR q
ENCODING 113
SWIDTH 500 0
DWIDTH 18 0
BBX 15 26 1 -7
BITMAP
00017CEEC708FF60
002DFFFFFFB9FF60
00DFFFDBBFFFFF60
06FFF60001BFFF60
0CFF9000001DFF60
1FFF3000000BFF60
3FFE0000000BFF60
4FFD0000000BFF60
5FFC0000000BFF60
5FFC0000000BFF60
5FFC0000000BFF60
4FFC0000000BFF60
3FFE0000000BFF60
1FFF3000000BFF60
0CFF9000000DFF60
06FFF60001AFFF60
00CFFFDABEFFFF60
002DFFFFFFCCFF60
00017CEEC70BFF60
00000000000BFF60
00000000000BFF60
00000000000BFF60
00000000000BFF60
00000000000BFF60
00000000000BFF60
00000000000BFF60
ENDCHAR
STARTCHAR r
ENCODING 114
SWIDTH 304 0
DWIDTH 11 0
BBX 9 19 2 0
BITMAP
AFF52BED20
AFF8EFFF20
AFFFFFFF20
AFFFE63310
AFFE200000
AFF8000000
AFF7000000
AFF7000000
AFF7000000
AFF7000000
AFF7000000
AFF7000000
AFF7000000
AFF7000000
AFF7000000
AFF7000000
AFF7000000
AFF7000000
AFF7000000
ENDCHAR
STARTCHAR s
ENCODING 115
SWIDTH 455 0
DWIDTH 16 0
BBX 14 19 1 0
BITMAP
00016CEFEA4000
002DFFFFFFFA00
00DFFFCBEFFF90
06FFE30009FFF2
09FF800000DFF6
0AFF7000005884
08FFD200000000
02EFFF92000000
004EFFFFB50000
0002AFFFFFC300
0000028EFFFF60
000000017EFFF2
0000000002EFF8
3CCC0000008FFA
2FFF3000008FF9
0CFFC20003EFF5
03FFFFCACFFFD0
004EFFFFFFFD20
00017CEFEB6100
ENDCHAR
STARTCHAR t
ENCODING 116
SWIDTH 295 0
DWIDTH 11 0
BBX 10 24 0 0
BITMAP
000AFF6000
000AFF6000
000AFF6000
000AFF6000
000AFF6000
9FFFFFFFF4
9FFFFFFFF4
588DFFB882
000AFF6000
000AFF6000
000AFF6000
000AFF6000
000AFF6000
000AFF6000
000AFF6000
000AFF6000
000AFF6000
000AFF6000
000AFF6000
000AFF7000
0009FFB000
0005FFFDD4
0000CFFFF4
00002AEFC3
ENDCHAR
STARTCHAR u
ENCODING 117
SWIDTH 483 0
DWIDTH 17 0
BBX 14 19 2 0
BITMAP
BFF5000001FFF1
BFF5000001FFF1
BFF5000001FFF1
BFF5000001FFF1
BFF5000001FFF1
BFF5000001FFF1
BFF5000001FFF1
BFF5000001FFF1
BFF5000001FFF1
BFF5000001FFF1
BFF5000001FFF1
BFF5000001FFF1
BFF6000001FFF1
AFF7000001FFF1
8FFB000008FFF1
4FFF50017FFFF1
0DFFFDCEFFFFF1
03EFFFFFF8EFF1
002AEFEA40EFF1
ENDCHAR
STARTCHAR v
ENCODING 118
SWIDTH 427 0
DWIDTH 15 0
BBX 15 19 0 0
BITMAP
1FFF1000000CFF50
0BFF5000001FFF10
07FF9000005FFB00
02FFD000008FF700
00DFF20000CFF200
008FF60001FFD000
004FFA0005FF8000
000EFE0009FF4000
000AFF300CFE0000
0005FF701FFA0000
0001FFB05FF60000
0000BFE09FF10000
00007FF4DFC00000
00002FF9FF700000
00000DFFFF300000
000008FFFD000000
000004FFF9000000
000000EFF4000000
000000AFE0000000
ENDCHAR
STARTCHAR w
ENCODING 119
SWIDTH 649 0
DWIDTH 23 0
BBX 22 19 1 0
BITMAP
FFF100000BFF100000BFF5
BFF400000EFF400000EFF1
8FF700004FFF800002FFD0
4FFB00008FFFC00005FF90
1FFE0000CFFFF10009FF50
0CFF2001FFEFF5000CFF20
08FF6005FF6FF9000FFD00
05FF9009FF1CFD003FF900
01FFD00DFC08FF206FF600
00CFF12FF804FF60AFF200
009FF46FF400EFA0DFD000
005FF8AFF000BFE1FFA000
001FFBEFB0007FF8FF6000
000DFFFF70003FFEFF2000
0009FFFF30000DFFFE0000
0005FFFE000009FFFA0000
0002FFFA000005FFF60000
0000DFF6000001FFF30000
00009FF2000000CFE00000
ENDCHAR
STARTCHAR x
ENCODING 120
SWIDTH 438 0
DWIDTH 16 0
BBX 14 19 1 0
BITMAP
AFFD000002FFF6
2FFF500009FFD0
09FFC0002FFF40
01EFF4008FFB00
007FFB01EFF300
001DFF28FFA000
0006FFAEFF2000
0000CFFFF80000
00004FFFE10000
00000EFFA00000
00006FFFF20000
0001EFFFFA0000
0008FF9DFF3000
001EFF25FFC000
009FFA00DFF500
03FFF2006FFD00
0BFFA0001EFF60
4FFF300007FFE1
CFFB000001EFF8
ENDCHAR
STARTCHAR y
ENCODING 121
SWIDTH 416 0
DWIDTH 15 0
BBX 15 26 0 -7
BITMAP
4FFF2000002FFF20
0EFF6000006FFD00
09FFA00000AFF800
05FFE00000EFF400
01FFF30003FFE000
00BFF70006FFA000
006FFB000AFF6000
002FFE000EFF1000
000CFF303FFC0000
0007FF707FF70000
0003FFB0BFF30000
0000DFF1EFE00000
00009FF7FF900000
00004FFEFF500000
00000EFFFF100000
00000AFFFB000000
000005FFF6000000
000001FFF2000000
000000DFD0000000
000002FF80000000
000007FF40000000
00000DFE00000000
0001AFF800000000
06DFFFE100000000
07FFFF5000000000
05EFB30000000000
ENDCHAR
STARTCHAR z
ENCODING 122
SWIDTH 438 0
DWIDTH 16 0
BBX 14 19 1 0
BITMAP
4FFFFFFFFFFFF0
4FFFFFFFFFFFF0
3AAAAAAAAEFFD0
000000002FFF40
00000000BFFA00
00000006FFE100
0000001EFF6000
000000AFFB0000
000004FFF20000
00000DFF800000
00008FFD000000
0003FFF4000000
000CFF90000000
006FFE10000000
01EFF500000000
0AFFB000000000
3FFFBAAAAAAAA4
5FFFFFFFFFFFF6
5FFFFFFFFFFFF6
ENDCHAR
STARTCHAR braceleft
ENCODING 123
SWIDTH 306 0
DWIDTH 11 0
BBX 10 34 1 -6
BITMAP
00000018B0
000003DFF2
00002EFF80
0000BFF800
0002FFF100
0006FFA000
0009FF8000
000AFF7000
000BFF6000
000BFF6000
000BFF6000
000BFF6000
000BFF5000
000DFF3000
003FFE0000
04DFF70000
BFFFB00000
BFFF300000
6CFFE30000
009FFB0000
001FFF2000
000CFF4000
000BFF6000
000BFF6000
000BFF6000
000BFF6000
000AFF6000
0009FF8000
0007FFA000
0003FFE000
0000BFF700
00002EFF60
000003EFF2
00000018B0
ENDCHAR
STARTCHAR bar
ENCODING 124
SWIDTH 243 0
DWIDTH 9 0
BBX 3 31 3 -5
BITMAP
EFB0
EFB0
EFB0
EFB0
EFB0
EFB0
EFB0
EFB0
EFB0
EFB0
EFB0
EFB0
EFB0
EFB0
EFB0
EFB0
EFB0
EFB0
EFB0
EFB0
EFB0
EFB0
EFB0
EFB0
EFB0
EFB0
EFB0
EFB0
EFB0
EFB0
EFB0
ENDCHAR
STARTCHAR braceright
ENCODING 125
SWIDTH 306 0
DWIDTH 11 0
BBX 10 34 0 -6
BITMAP
0B81000000
2FFD300000
18FFE20000
009FFA0000
001FFF2000
000BFF6000
0008FF9000
0007FFA000
0006FFA000
0006FFA000
0006FFA000
0006FFA000
0005FFB000
0003FFD000
0000EFF400
00007FFD41
00000AFFFB
000002EFFB
00002EFFC6
0000BFF800
0002FFE100
0005FFC000
0006FFA000
0006FFA000
0006FFA000
0006FFA000
0006FFA000
0008FF9000
000AFF6000
000EFF2000
007FFB0000
07FFE20000
2FFD300000
0B81000000
ENDCHAR
STARTCHAR asciitilde
ENCODING 126
SWIDTH 589 0
DWIDTH 21 0
BBX 17 7 2 7
BITMAP
0018CC930000003660
02EFFFFF7000009FF0
0DFFFFFFF80000DFC0
5FFB218FFF8108FF80
AFF20007FFFEEFFE10
BFE000006FFFFFF400
0000000003AEEB3000
ENDCHAR
STARTCHAR uni00A0
ENCODING 160
SWIDTH 229 0
DWIDTH 8 0
BBX 1 1 0 0
BITMAP
00
ENDCHAR
STARTCHAR exclamdown
ENCODING 161
SWIDTH 231 0
DWIDTH 8 0
BBX 4 25 2 -6
BITMAP
2DE6
8FFD
7FFC
19A3
0000
0000
0000
2CC8
3FFA
3FFA
3FFA
3FFA
4FFB
4FFB
4FFB
4FFB
4FFB
4FFC
5FFC
5FFC
5FFC
5FFC
5FFD
6FFD
6FFD
ENDCHAR
STARTCHAR cent
ENCODING 162
SWIDTH 479 0
DWIDTH 17 0
BBX 15 28 1 -5
BITMAP
000000AEE6000000
000000AFF6000000
000000AFF6000000
000000AFF6000000
000029EFFEA20000
0005FFFFFFFE5000
004FFFD99DFFE200
00DFF90001BFFB00
05FFD000002FFF20
0AFF6000000AFF50
0EFF30000006BB50
1FFF000000000000
2FFE000000000000
3FFE000000000000
2FFE000000000000
1FFF000000000000
0EFF200000012210
0BFF60000009FF60
06FFC000001DFF30
01EFF800009FFC00
005FFFC88CFFF300
0007FFFFFFFE4000
00003BFFFFA20000
000000AFF6000000
000000AFF6000000
000000AFF6000000
000000AFF6000000
0000002331000000
ENDCHAR
STARTCHAR sterling
ENCODING 163
SWIDTH 510 0
DWIDTH 18 0
BBX 17 26 1 0
BITMAP
0000005AEFEB500000
00000AFFFFFFFA0000
0000AFFFECFFFF8000
0005FFF8001BFFF200
000BFFB00001EFF700
000FFF500000AFFA00
002FFF2000007DD900
003FFF100000000000
003FFF100000000000
002FFF100000000000
002FFF200000000000
002FFF200000000000
5FFFFFFFFFB0000000
5FFFFFFFFFB0000000
4CCFFFCCCC80000000
000FFF400000000000
000FFF400000000000
000EFF500000000000
000EFF500000000000
000EFF500000000000
000FFF300000000000
003FFF100000000000
008FFA000000000000
3CFFFDCCCCCCCCCC20
4FFFFFFFFFFFFFFF30
4FFFFFFFFFFFFFFF30
ENDCHAR
STARTCHAR currency
ENCODING 164
SWIDTH 712 0
DWIDTH 26 0
BBX 22 23 2 0
BITMAP
0130000000000000000410
1CE30016ADFEDA50004FB1
CFFE36EFFFFFFFFD44FFFB
8FFFFFFFFFFFFFFFFFFFF7
08FFFFFE731138EFFFFF70
00BFFFA10000001CFFFA00
02FFF90000000000BFFE10
09FFC000000000001EFF70
1EFF40000000000007FFD0
4FFD00000000000001FFF1
6FFA00000000000000DFF4
7FF800000000000000BFF5
7FF800000000000000BFF5
6FFA00000000000000DFF4
4FFD00000000000001FFF1
1EFF40000000000007FFD0
0AFFC000000000001EFF70
02FFF90000000000BFFE10
01DFFFA00000001CFFFD10
1DFFFFFD720138EFFFFFC1
CFFFEFFFFFFFFFFFFDFFFC
6FFA06EFFFFFFFFD51BFF5
07A00016ADFEDA50001B60
ENDCHAR
STARTCHAR yen
ENCODING 165
SWIDTH 463 0
DWIDTH 17 0
BBX 17 26 0 0
BITMAP
4FFF500000009FFE10
0DFFB0000000EFF800
07FFF2000005FFF200
01EFF700000BFFB000
009FFD00002FFF5000
003FFF40007FFD0000
000CFF9000DFF70000
0006FFE104FFF10000
0001EFF609FFA00000
00008FFB1EFF400000
00002FFF8FFD000000
00000BFFFFF6000000
000005FFFFE1000000
00DFFFFFFFFFFF7000
00DFFFFFFFFFFF7000
0033337FFE33331000
0000005FFD00000000
0000005FFD00000000
00DFFFFFFFFFFF7000
00DFFFFFFFFFFF7000
0023337FFE33331000
0000005FFD00000000
0000005FFD00000000
0000005FFD00000000
0000005FFD00000000
0000005FFD00000000
ENDCHAR
STARTCHAR brokenbar
ENCODING 166
SWIDTH 239 0
DWIDTH 9 0
BBX 4 31 2 -5
BITMAP
6FFD
6FFD
6FFD
6FFD
6FFD
6FFD
6FFD
6FFD
6FFD
6FFD
6FFD
6FFD
6FFD
6FFD
0000
0000
0000
6FFD
6FFD
6FFD
6FFD
6FFD
6FFD
6FFD
6FFD
6FFD
6FFD
6FFD
6FFD
6FFD
6FFD
ENDCHAR
STARTCHAR section
ENCODING 167
SWIDTH 537 0
DWIDTH 19 0
BBX 17 35 1 -9
BITMAP
000017BEFEC8200000
0005EFFFFFFFF70000
005FFFFCABFFFF7000
01EFFC20001BFFF200
05FFE1000001DFF800
08FF900000006FFC00
09FF800000002FFF00
08FFA00000001AAA00
06FFE2000000000000
01EFFC300000000000
007FFFFB5000000000
000DFFFFFE93000000
00BFFFFFFFFFB30000
08FFD34AEFFFFF5000
1EFF300017DFFFF300
3FFE00000007FFFC00
4FFD000000006FFF20
3FFF000000000EFF50
1FFF600000000BFF60
0BFFE60000000CFF40
03FFFFC610003FFF10
005FFFFFEA43DFFA00
0002BFFFFFFFFFC100
0000039EFFFFFD0000
000000005CFFFF8000
00000000004DFFF200
000000000002EFF700
3AA8000000008FFA00
4FFD000000006FFB00
2FFF200000008FFA00
0DFF90000001DFF700
06FFF910002BFFE200
00BFFFEBACFFFF6000
0009FFFFFFFFF70000
000039CEFEC8200000
ENDCHAR
STARTCHAR dieresis
ENCODING 168
SWIDTH 417 0
DWIDTH 15 0
BBX 13 4 1 22
BITMAP
05A8000018A400
1FFF70008FFE10
2FFF80009FFF20
09EC20003DE800
ENDCHAR
STARTCHAR copyright
ENCODING 169
SWIDTH 785 0
DWIDTH 28 0
BBX 26 26 1 0
BITMAP
0000000027BDEFEB7200000000
00000029FFFFFFFFFFA3000000
000005EFFC742236BFFF700000
00007FFC3000000002AFF90000
0006FF80000000000006FF8000
003FF700018DEEC810005FF400
00BFA0003EFFFFFFE30008FD00
04FE1001EFF8559FFD0000DF60
0AF80008FF500006FF50006FC0
0EF3000EFC000000FF90001FF1
3FE0002FF70000008960000CF5
5FB0003FF500000000000009F7
6FA0004FF400000000000008F8
6FA0003FF400000000000008F8
5FB0003FF500000000000009F7
2FE0002FF70000009A60000CF4
0EF3000EFC000000FF90001FF1
0AF80008FF500006FF50006FB0
04FE1001EFF8559FFD0000DF50
00BFA0003EFFFFFFE30008FD00
002FF700018DFEC820005FF400
0006FF80000000000006FF8000
00007FFB3000000002AFF90000
000005EFFB732236BFFF700000
00000029FFFFFFFFFFB3000000
0000000027BDFFEB8200000000
ENDCHAR
STARTCHAR ordfeminine
ENCODING 170
SWIDTH 395 0
DWIDTH 14 0
BBX 10 14 2 12
BITMAP
003AEFD700
04FFFFFF90
0EFFA8EFF3
3FF9005FF7
1563001FF9
0000001FFA
006CEFFFFA
0BFFFFFFFA
4FFC301FFA
7FF4001FFA
7FF4002FFA
4FFD78EFFB
0CFFFFFFFC
02AEFC4CFE
ENDCHAR
STARTCHAR guillemotleft
ENCODING 171
SWIDTH 417 0
DWIDTH 15 0
BBX 13 14 1 3
BITMAP
00003FF203FF20
0000DF800DF800
0008FE108FE100
002FF802FF8000
00CFE10CFE1000
06FF706FF70000
1EFD01EFD00000
1EFD01EFD00000
06FF706FF70000
00CFE10CFE1000
002FF802FF8000
0008FE108FE100
0000DF800DF800
00003FF203FF20
ENDCHAR
STARTCHAR logicalnot
ENCODING 172
SWIDTH 487 0
DWIDTH 18 0
BBX 13 7 2 7
BITMAP
CFFFFFFFFFFF90
CFFFFFFFFFFF90
ACCCCCCCCEFF90
0000000008FF90
0000000008FF90
0000000008FF90
0000000008FF90
ENDCHAR
STARTCHAR uni00AD
ENCODING 173
SWIDTH 248 0
DWIDTH 9 0
BBX 9 3 0 9
BITMAP
3FFFFFFF10
3FFFFFFF10
2AAAAAAA10
ENDCHAR
STARTCHAR registered
ENCODING 174
SWIDTH 786 0
DWIDTH 28 0
BBX 26 26 1 0
BITMAP
0000000027BDEFEB7200000000
00000029FFFFFFFFFFA2000000
000006EFFC742236BFFF700000
00008FFB3000000002BFF90000
0006FF80000000000006FF8000
003FF700FFFFFED920005FF400
00CFA000FFFFFFFFF50008FD00
04FE1000FF94446DFE1000DF50
0AF80000FF700004FF60006FB0
0EF20000FF700000FF70001FF1
3FD00000FF700003FF60000CF4
5FB00000FF70014DFE100009F7
6FA00000FFFFFFFFD3000008F8
6FA00000FFFFFFFFC2000008F7
5FB00000FF94446EFD000009F6
3FD00000FF700004FF40000CF4
0EF30000FF700001FF60001FF1
0AF80000FF700001FF60006FB0
04FE1000FF700001FF7000DF50
00BFA000FF700000EFA008FD00
003FF7000000000000005FF400
0006FF70000000000006FF8000
00007FFB3000000002AFF90000
000005EFFB632236BFFF700000
0000002AFFFFFFFFFFA2000000
0000000027BDFFEB7200000000
ENDCHAR
STARTCHAR macron
ENCODING 175
SWIDTH 414 0
DWIDTH 15 0
BBX 11 3 2 22
BITMAP
8FFFFFFFFFA0
8FFFFFFFFFA0
488888888850
ENDCHAR
STARTCHAR degree
ENCODING 176
SWIDTH 373 0
DWIDTH 13 0
BBX 10 10 2 16
BITMAP
005CFE9100
07FFFFFD10
3FFA46EFA0
8FC0004FF1
AF80000FF2
9FA0003FF1
5FF712CFC0
0BFFFFFF30
019FFFD400
0001330000
ENDCHAR
STARTCHAR plusminus
ENCODING 177
SWIDTH 469 0
DWIDTH 17 0
BBX 15 23 1 0
BITMAP
0000002441000000
0000009FF2000000
0000009FF2000000
0000009FF2000000
0000009FF2000000
0000009FF2000000
0000009FF2000000
0000009FF2000000
2FFFFFFFFFFFFF60
2FFFFFFFFFFFFF60
2AAAAADFFBAAAA40
0000009FF2000000
0000009FF2000000
0000009FF2000000
0000009FF2000000
0000009FF2000000
0000009FF2000000
0000008EE2000000
0000000000000000
0000000000000000
06AAAAAAAAAAA700
09FFFFFFFFFFFB00
09FFFFFFFFFFFB00
ENDCHAR
STARTCHAR uni00B2
ENCODING 178
SWIDTH 329 0
DWIDTH 12 0
BBX 10 14 1 12
BITMAP
006CFEB400
09FFFFFF40
4FFC57FFC0
9FF200AFF1
6980009FF1
000000DFD0
000008FF60
00005FFB00
0004FFC100
003EFD1000
02EFD20000
1DFF644442
7FFFFFFFF8
7FFFFFFFF8
ENDCHAR
STARTCHAR uni00B3
ENCODING 179
SWIDTH 329 0
DWIDTH 12 0
BBX 10 14 1 12
BITMAP
018DEEB500
1DFFFFFF80
7FF946EFF0
4770009FF0
000003DF80
000BFFF800
000BFFFF60
000114EFE0
0000007FF3
5760005FF4
AFF1008FF2
6FFB57EFC0
0CFFFFFE30
018DFEA200
ENDCHAR
STARTCHAR acute
ENCODING 180
SWIDTH 313 0
DWIDTH 11 0
BBX 8 5 2 22
BITMAP
000CFFD2
009FFE20
05FFE300
2EFE4000
6BE40000
ENDCHAR
STARTCHAR mu
ENCODING 181
SWIDTH 498 0
DWIDTH 18 0
BBX 14 26 2 -7
BITMAP
6FFA000000CFF5
6FFA000000CFF5
6FFA000000CFF5
6FFA000000CFF5
6FFA000000CFF5
6FFA000000CFF5
6FFA000000CFF5
6FFA000000CFF5
6FFA000000CFF5
6FFA000000CFF5
6FFA000000CFF5
6FFA000000CFF5
6FFB000000CFF5
6FFE000000CFF5
6FFF300001EFF5
6FFFB0001BFFF5
6FFFFDABFFFFF5
6FFFFFFFFD9FF5
6FFA6CFE917FF5
6FFA0000000000
6FFA0000000000
6FFA0000000000
6FFA0000000000
6FFA0000000000
6FFA0000000000
6FFA0000000000
ENDCHAR
STARTCHAR paragraph
ENCODING 182
SWIDTH 434 0
DWIDTH 16 0
BBX 12 26 1 0
BITMAP
000015899997
0006EFFFFFFC
009FFFFFFFFC
06FFFFFFFFFC
0EFFFFFFFFFC
5FFFFFFFFFFC
8FFFFFFFFFFC
AFFFFFFFFFFC
BFFFFFFFFFFC
AFFFFFFFFFFC
9FFFFFFFFFFC
5FFFFFFFFFFC
1FFFFFFFFFFC
08FFFFFFFFFC
00CFFFFFFFFC
001BFFFFFFFC
000049CDEFFC
000000005FFC
000000005FFC
000000005FFC
000000005FFC
000000005FFC
000000005FFC
000000005FFC
000000005FFC
000000005FFC
ENDCHAR
STARTCHAR periodcentered
ENCODING 183
SWIDTH 243 0
DWIDTH 9 0
BBX 5 4 2 11
BITMAP
2CE800
7FFF10
7FFF10
1BD700
ENDCHAR
STARTCHAR cedilla
ENCODING 184
SWIDTH 229 0
DWIDTH 8 0
BBX 5 7 2 -7
BITMAP
8FA000
CFF910
26EF80
00AFB0
02DFA0
BFFE30
BEA300
ENDCHAR
STARTCHAR uni00B9
ENCODING 185
SWIDTH 329 0
DWIDTH 12 0
BBX 6 14 2 12
BITMAP
00049C
28DFFD
DFFFFD
DC7DFD
100CFD
000CFD
000CFD
000CFD
000CFD
000CFD
000CFD
000CFD
000CFD
000CFD
ENDCHAR
STARTCHAR ordmasculine
ENCODING 186
SWIDTH 402 0
DWIDTH 15 0
BBX 11 14 2 12
BITMAP
003AEFC70000
04FFFFFFB000
1EFFA8DFF700
7FF8001EFE00
BFF10009FF30
DFD00006FF50
EFC00005FF60
EFC00005FF60
DFD00006FF50
BFF10009FF30
7FF7001EFE00
1EFF97DFF700
04FFFFFFB000
003AEFD70000
ENDCHAR
STARTCHAR guillemotright
ENCODING 187
SWIDTH 417 0
DWIDTH 15 0
BBX 13 14 1 3
BITMAP
1EF6009FB00000
06FE102FF50000
00DFA009FE1000
006FF501EFA000
000DFD108FF400
0005FF901EFD10
0000CFF307FF80
0000CFF307FF80
0005FF901EFD10
000CFD108FF400
005FF501EFA000
00DFA009FE1000
06FE102FF50000
1EF6009FB00000
ENDCHAR
STARTCHAR onequarter
ENCODING 188
SWIDTH 637 0
DWIDTH 23 0
BBX 21 26 1 0
BITMAP
00027D2000000000000000
16BFFF2000000000000000
8FFFFF2000000000000000
8E9AFF2000000068100000
1007FF20000001DF500000
0007FF20000007FD000000
0007FF2000001EF5000000
0007FF2000008FC0000000
0007FF200001EF40000000
0007FF200009FB00000000
0007FF20002FF300000000
0007FF2000AFA000000000
0007FF2003FF2000DFF100
0007FF200AF90007FFF100
000000003FF2001EFFF100
00000000BF80009FFFF100
00000004FE1003FEAFF100
0000000CF8000BF88FF100
0000005FE1005FD18FF100
000000DF7000DF608FF100
000006FD0007FC008FF100
00000DF6000EFFFFFFFF80
00006FD0000FFFFFFFFF80
0000195000044444AFF520
00000000000000008FF100
00000000000000008FF100
ENDCHAR
STARTCHAR onehalf
ENCODING 189
SWIDTH 677 0
DWIDTH 24 0
BBX 22 26 1 0
BITMAP
00028D2000000000000000
16CFFF2000000000000000
9FFFFF2000000000000000
9D9AFF20000001B2000000
1007FF20000009FA000000
0007FF2000002FF3000000
0007FF200000AFA0000000
0007FF200003FF20000000
0007FF20000BF900000000
0007FF20003FF200000000
0007FF2000BF8000000000
0007FF2004FE1000000000
0007FF200CF7007DFEB300
0007FF205FE10AFFFFFF30
00000000DF605FFB57FFB0
00000006FD00AFF100BFF0
0000001DF600797000AFF0
0000007FD000000001EFC0
000001EF5000000009FF50
000008FC000000006FFA00
00001EF400000005FFC100
00009FB00000004FFC1000
0001FF30000002EFD10000
0000690000002DFF644442
0000000000008FFFFFFFF7
0000000000008FFFFFFFF7
ENDCHAR
STARTCHAR threequarters
ENCODING 190
SWIDTH 673 0
DWIDTH 24 0
BBX 21 26 2 0
BITMAP
03ADFD9200000000000000
4FFFFFFE30000000000000
CFE748FFA0000000000000
343000DFC0000009600000
000005FF8000003FF20000
000FFFF9000000AF900000
000FFFFA000003FF200000
000116FF80000BF8000000
000000BFD0004FE1000000
0000009FF000CF70000000
FFA000CFD005FE10000000
CFF849FF900DF700000000
3FFFFFFD106FD000AFF400
03AEFD9100DF6003FFF400
0000000007FD000CFFF400
000000001EF5006FFFF400
000000008FC001EF9FF400
00000001EF4008FB5FF400
00000009FB002FF35FF400
0000002FF300AF905FF400
0000009FA004FE105FF400
000002FF200BFFFFFFFFC0
00000AF9000BFFFFFFFFC0
000002B2000344448FF730
00000000000000005FF400
00000000000000005FF400
ENDCHAR
STARTCHAR questiondown
ENCODING 191
SWIDTH 421 0
DWIDTH 15 0
BBX 13 26 1 -7
BITMAP
000009EB000000
00002FFF400000
00001FFF300000
000005A6000000
00000000000000
00000000000000
00000000000000
00000899200000
00000EFF300000
00002FFF100000
00007FFC000000
0001EFF6000000
000BFFC0000000
008FFE20000000
03FFF500000000
0BFF9000000000
3FFE1000000000
7FF90000000000
AFF60000000000
BFF60000000000
AFF7000008FF90
8FFC00000CFF70
3FFF80019FFF20
0AFFFFDFFFF900
01CFFFFFFFA000
0006BEFEB50000
ENDCHAR
STARTCHAR Agrave
ENCODING 192
SWIDTH 576 0
DWIDTH 21 0
BBX 20 33 0 0
BITMAP
000009FFF40000000000
000000AFFE2000000000
0000000BFFB000000000
00000001CFF800000000
000000001DCA10000000
00000000000000000000
00000000000000000000
000000002FFE00000000
000000007FFF40000000
00000000CFFF80000000
00000002FFFFD0000000
00000006FFEFF3000000
0000000BFF7FF8000000
0000001FFC1FFC000000
0000006FF70BFF200000
000000BFF306FF700000
000001FFD002FFC00000
000005FF9000CFF20000
00000AFF40008FF60000
00000EFE00003FFB0000
00004FFA00000DFF1000
00009FF5000009FF5000
0000EFF1000004FFA000
0004FFFFFFFFFFFFE100
0008FFFFFFFFFFFFF500
000DFFCCCCCCCCDFFA00
003FFD000000001FFE00
008FF9000000000CFF40
00CFF40000000008FF90
02FFF10000000004FFD0
07FFB00000000000EFF3
0CFF700000000000BFF8
1FFF3000000000006FFD
ENDCHAR
STARTCHAR Aacute
ENCODING 193
SWIDTH 576 0
DWIDTH 21 0
BBX 20 33 0 0
BITMAP
000000000005FFF80000
00000000002EFF800000
0000000000CFF9000000
0000000009FFA0000000
000000001ADB00000000
00000000000000000000
00000000000000000000
000000002FFE00000000
000000007FFF40000000
00000000CFFF80000000
00000002FFFFD0000000
00000006FFEFF3000000
0000000BFF7FF8000000
0000001FFC1FFC000000
0000006FF70BFF200000
000000BFF306FF700000
000001FFD002FFC00000
000005FF9000CFF20000
00000AFF40008FF60000
00000EFE00003FFB0000
00004FFA00000DFF1000
00009FF5000009FF5000
0000EFF1000004FFA000
0004FFFFFFFFFFFFE100
0008FFFFFFFFFFFFF500
000DFFCCCCCCCCDFFA00
003FFD000000001FFE00
008FF9000000000CFF40
00CFF40000000008FF90
02FFF10000000004FFD0
07FFB00000000000EFF3
0CFF700000000000BFF8
1FFF3000000000006FFD
ENDCHAR
STARTCHAR Acircumflex
ENCODING 194
SWIDTH 576 0
DWIDTH 21 0
BBX 20 33 0 0
BITMAP
000000001DFB00000000
00000000BFFF90000000
00000009FE5FF7000000
0000007FF608FF500000
0000019DA000CC900000
00000000000000000000
00000000000000000000
000000002FFE00000000
000000007FFF40000000
00000000CFFF80000000
00000002FFFFD0000000
00000006FFEFF3000000
0000000BFF7FF8000000
0000001FFC1FFC000000
0000006FF70BFF200000
000000BFF306FF700000
000001FFD002FFC00000
000005FF9000CFF20000
00000AFF40008FF60000
00000EFE00003FFB0000
00004FFA00000DFF1000
00009FF5000009FF5000
0000EFF1000004FFA000
0004FFFFFFFFFFFFE100
0008FFFFFFFFFFFFF500
000DFFCCCCCCCCDFFA00
003FFD000000001FFE00
008FF9000000000CFF40
00CFF40000000008FF90
02FFF10000000004FFD0
07FFB00000000000EFF3
0CFF700000000000BFF8
1FFF3000000000006FFD
ENDCHAR
STARTCHAR Atilde
ENCODING 195
SWIDTH 576 0
DWIDTH 21 0
BBX 20 33 0 0
BITMAP
00000005720004B60000
000000BFFF6008F90000
000005FFFFFB9FF60000
00000AFA15EFFFD00000
00000BE3002BEC200000
00000000000000000000
00000000000000000000
000000002FFE00000000
000000007FFF40000000
00000000CFFF80000000
00000002FFFFD0000000
00000006FFEFF3000000
0000000BFF7FF8000000
0000001FFC1FFC000000
0000006FF70BFF200000
000000BFF306FF700000
000001FFD002FFC00000
000005FF9000CFF20000
00000AFF40008FF60000
00000EFE00003FFB0000
00004FFA00000DFF1000
00009FF5000009FF5000
0000EFF1000004FFA000
0004FFFFFFFFFFFFE100
0008FFFFFFFFFFFFF500
000DFFCCCCCCCCDFFA00
003FFD000000001FFE00
008FF9000000000CFF40
00CFF40000000008FF90
02FFF10000000004FFD0
07FFB00000000000EFF3
0CFF700000000000BFF8
1FFF3000000000006FFD
ENDCHAR
STARTCHAR Adieresis
ENCODING 196
SWIDTH 576 0
DWIDTH 21 0
BBX 20 32 0 0
BITMAP
000005A8000018A40000
00001FFF70008FFE1000
00002FFF80009FFF2000
000009EC20003DE80000
00000000000000000000
00000000000000000000
000000002FFE00000000
000000007FFF40000000
00000000CFFF80000000
00000002FFFFD0000000
00000006FFEFF3000000
0000000BFF7FF8000000
0000001FFC1FFC000000
0000006FF70BFF200000
000000BFF306FF700000
000001FFD002FFC00000
000005FF9000CFF20000
00000AFF40008FF60000
00000EFE00003FFB0000
00004FFA00000DFF1000
00009FF5000009FF5000
0000EFF1000004FFA000
0004FFFFFFFFFFFFE100
0008FFFFFFFFFFFFF500
000DFFCCCCCCCCDFFA00
003FFD000000001FFE00
008FF9000000000CFF40
00CFF40000000008FF90
02FFF10000000004FFD0
07FFB00000000000EFF3
0CFF700000000000BFF8
1FFF3000000000006FFD
ENDCHAR
STARTCHAR Aring
ENCODING 197
SWIDTH 576 0
DWIDTH 21 0
BBX 20 35 0 0
BITMAP
000000007DFD60000000
0000000AFC9DF8000000
0000002FB001DF100000
0000005F70009F300000
0000003FB000CF100000
0000000AFC9DF8000000
000000007DEC60000000
00000000000000000000
00000000000000000000
000000002FFE00000000
000000007FFF40000000
00000000CFFF80000000
00000002FFFFD0000000
00000006FFEFF3000000
0000000BFF7FF8000000
0000001FFC1FFC000000
0000006FF70BFF200000
000000BFF306FF700000
000001FFD002FFC00000
000005FF9000CFF20000
00000AFF40008FF60000
00000EFE00003FFB0000
00004FFA00000DFF1000
00009FF5000009FF5000
0000EFF1000004FFA000
0004FFFFFFFFFFFFE100
0008FFFFFFFFFFFFF500
000DFFCCCCCCCCDFFA00
003FFD000000001FFE00
008FF9000000000CFF40
00CFF40000000008FF90
02FFF10000000004FFD0
07FFB00000000000EFF3
0CFF700000000000BFF8
1FFF3000000000006FFD
ENDCHAR
STARTCHAR AE
ENCODING 198
SWIDTH 812 0
DWIDTH 29 0
BBX 29 26 0 0
BITMAP
0000000000004FFFFFFFFFFFFFF800
000000000000CFFFFFFFFFFFFFF800
000000000004FFFFFCAAAAAAAAA500
00000000000CFFFFF5000000000000
00000000004FFDBFF5000000000000
0000000000CFF6BFF6000000000000
0000000004FFE0AFF6000000000000
000000000CFF70AFF7000000000000
000000004FFE109FF8000000000000
00000000CFF9009FF8000000000000
00000004FFF2008FF9000000000000
0000000CFFA0008FFFFFFFFFFF4000
0000004FFF30007FFFFFFFFFFF4000
000000CFFB00007FFDAAAAAAAA3000
000004FFF500006FFB000000000000
00000CFFD000006FFB000000000000
00004FFF6000005FFC000000000000
0000CFFFFFFFFFFFFC000000000000
0004FFFFFFFFFFFFFD000000000000
000CFFFFFFFFFFFFFD000000000000
004FFF811111114FFE000000000000
00CFFE100000003FFE000000000000
04FFF8000000002FFF000000000000
0CFFE1000000002FFFAAAAAAAAAA40
4FFF80000000001FFFFFFFFFFFFF60
CFFE10000000000FFFFFFFFFFFFF60
ENDCHAR
STARTCHAR Ccedilla
ENCODING 199
SWIDTH 566 0
DWIDTH 20 0
BBX 17 33 2 -7
BITMAP
000005ADEED9400000
0003CFFFFFFFFA1000
003EFFFECDFFFFC000
01DFFE500018FFF700
08FFE30000008FFE10
0EFF700000001FFF50
4FFF100000000BFF80
7FFB0000000008FFA0
AFF900000000049970
BFF700000000000000
CFF700000000000000
CFF700000000000000
CFF700000000000000
CFF700000000000000
CFF700000000000000
CFF700000000000000
BFF700000000000000
AFF900000000037760
7FFB0000000008FFA0
4FFE000000000BFF80
0EFF600000001EFF40
08FFD10000007FFE10
01DFFD300017FFF700
003EFFFDCCFFFFB000
0003DFFFFFFFF90000
000006BDFEC9300000
0000000BF700000000
0000000EFE80000000
000000037FF5000000
000000000DF8000000
000000004FF7000000
0000000EFFD1000000
0000000ED910000000
ENDCHAR
STARTCHAR Egrave
ENCODING 200
SWIDTH 496 0
DWIDTH 18 0
BBX 15 33 2 0
BITMAP
008FFF5000000000
0009FFE200000000
0000AFFC00000000
00000BFF90000000
000001CDA1000000
0000000000000000
0000000000000000
4FFFFFFFFFFFFF50
4FFFFFFFFFFFFF50
4FFFCCCCCCCCCC40
4FFF000000000000
4FFF000000000000
4FFF000000000000
4FFF000000000000
4FFF000000000000
4FFF000000000000
4FFF000000000000
4FFF000000000000
4FFFFFFFFFFFF000
4FFFFFFFFFFFF000
4FFFCCCCCCCCC000
4FFF000000000000
4FFF000000000000
4FFF000000000000
4FFF000000000000
4FFF000000000000
4FFF000000000000
4FFF000000000000
4FFF000000000000
4FFF000000000000
4FFFCCCCCCCCCC60
4FFFFFFFFFFFFF80
4FFFFFFFFFFFFF80
ENDCHAR
STARTCHAR Eacute
ENCODING 201
SWIDTH 496 0
DWIDTH 18 0
BBX 15 33 2 0
BITMAP
000000004FFF8000
00000002EFF90000
0000000CFFA00000
0000008FFB000000
000001ADB0000000
0000000000000000
0000000000000000
4FFFFFFFFFFFFF50
4FFFFFFFFFFFFF50
4FFFCCCCCCCCCC40
4FFF000000000000
4FFF000000000000
4FFF000000000000
4FFF000000000000
4FFF000000000000
4FFF000000000000
4FFF000000000000
4FFF000000000000
4FFFFFFFFFFFF000
4FFFFFFFFFFFF000
4FFFCCCCCCCCC000
4FFF000000000000
4FFF000000000000
4FFF000000000000
4FFF000000000000
4FFF000000000000
4FFF000000000000
4FFF000000000000
4FFF000000000000
4FFF000000000000
4FFFCCCCCCCCCC60
4FFFFFFFFFFFFF80
4FFFFFFFFFFFFF80
ENDCHAR
STARTCHAR Ecircumflex
ENCODING 202
SWIDTH 496 0
DWIDTH 18 0
BBX 15 33 2 0
BITMAP
000001CFC1000000
00000BFFFA000000
00009FF5FF800000
0006FF607FF60000
0009CB000BC90000
0000000000000000
0000000000000000
4FFFFFFFFFFFFF50
4FFFFFFFFFFFFF50
4FFFCCCCCCCCCC40
4FFF000000000000
4FFF000000000000
4FFF000000000000
4FFF000000000000
4FFF000000000000
4FFF000000000000
4FFF000000000000
4FFF000000000000
4FFFFFFFFFFFF000
4FFFFFFFFFFFF000
4FFFCCCCCCCCC000
4FFF000000000000
4FFF000000000000
4FFF000000000000
4FFF000000000000
4FFF000000000000
4FFF000000000000
4FFF000000000000
4FFF000000000000
4FFF000000000000
4FFFCCCCCCCCCC60
4FFFFFFFFFFFFF80
4FFFFFFFFFFFFF80
ENDCHAR
STARTCHAR Edieresis
ENCODING 203
SWIDTH 496 0
DWIDTH 18 0
BBX 15 32 2 0
BITMAP
004A8100007A4000
01EFF80007FFF200
01FFF90008FFF300
008ED30002CE9000
0000000000000000
0000000000000000
4FFFFFFFFFFFFF50
4FFFFFFFFFFFFF50
4FFFCCCCCCCCCC40
4FFF000000000000
4FFF000000000000
4FFF000000000000
4FFF000000000000
4FFF000000000000
4FFF000000000000
4FFF000000000000
4FFF000000000000
4FFFFFFFFFFFF000
4FFFFFFFFFFFF000
4FFFCCCCCCCCC000
4FFF000000000000
4FFF000000000000
4FFF000000000000
4FFF000000000000
4FFF000000000000
4FFF000000000000
4FFF000000000000
4FFF000000000000
4FFF000000000000
4FFFCCCCCCCCCC60
4FFFFFFFFFFFFF80
4FFFFFFFFFFFFF80
ENDCHAR
STARTCHAR Igrave
ENCODING 204
SWIDTH 250 0
DWIDTH 9 0
BBX 8 33 -1 0
BITMAP
8FFF5000
09FFE200
00AFFC00
000BFF90
0001CDA1
00000000
00000000
0001FFF2
0001FFF2
0001FFF2
0001FFF2
0001FFF2
0001FFF2
0001FFF2
0001FFF2
0001FFF2
0001FFF2
0001FFF2
0001FFF2
0001FFF2
0001FFF2
0001FFF2
0001FFF2
0001FFF2
0001FFF2
0001FFF2
0001FFF2
0001FFF2
0001FFF2
0001FFF2
0001FFF2
0001FFF2
0001FFF2
ENDCHAR
STARTCHAR Iacute
ENCODING 205
SWIDTH 250 0
DWIDTH 9 0
BBX 8 33 2 0
BITMAP
0004FFF8
002EFF90
00CFFA00
08FFB000
1ADB0000
00000000
00000000
1FFF2000
1FFF2000
1FFF2000
1FFF2000
1FFF2000
1FFF2000
1FFF2000
1FFF2000
1FFF2000
1FFF2000
1FFF2000
1FFF2000
1FFF2000
1FFF2000
1FFF2000
1FFF2000
1FFF2000
1FFF2000
1FFF2000
1FFF2000
1FFF2000
1FFF2000
1FFF2000
1FFF2000
1FFF2000
1FFF2000
ENDCHAR
STARTCHAR Icircumflex
ENCODING 206
SWIDTH 250 0
DWIDTH 9 0
BBX 9 33 0 0
BITMAP
001CFC1000
00AFFFA000
08FF5FF800
6FF707FF60
9CB000BC90
0000000000
0000000000
001FFF2000
001FFF2000
001FFF2000
001FFF2000
001FFF2000
001FFF2000
001FFF2000
001FFF2000
001FFF2000
001FFF2000
001FFF2000
001FFF2000
001FFF2000
001FFF2000
001FFF2000
001FFF2000
001FFF2000
001FFF2000
001FFF2000
001FFF2000
001FFF2000
001FFF2000
001FFF2000
001FFF2000
001FFF2000
001FFF2000
ENDCHAR
STARTCHAR Idieresis
ENCODING 207
SWIDTH 250 0
DWIDTH 9 0
BBX 13 32 -2 0
BITMAP
04A8100007A400
1EFF80007FFF20
1FFF90008FFF30
08ED30002CE900
00000000000000
00000000000000
00001FFF200000
00001FFF200000
00001FFF200000
00001FFF200000
00001FFF200000
00001FFF200000
00001FFF200000
00001FFF200000
00001FFF200000
00001FFF200000
00001FFF200000
00001FFF200000
00001FFF200000
00001FFF200000
00001FFF200000
00001FFF200000
00001FFF200000
00001FFF200000
00001FFF200000
00001FFF200000
00001FFF200000
00001FFF200000
00001FFF200000
00001FFF200000
00001FFF200000
00001FFF200000
ENDCHAR
STARTCHAR Eth
ENCODING 208
SWIDTH 585 0
DWIDTH 21 0
BBX 19 26 0 0
BITMAP
000BFFFFFFEC83000000
000BFFFFFFFFFFA10000
000BFFDCCCDFFFFD2000
000BFF8000017EFFC000
000BFF80000003EFF700
000BFF800000007FFD00
000BFF800000001EFF40
000BFF800000000BFF70
000BFF8000000008FFA0
000BFF8000000006FFB0
000BFF8000000006FFC0
AFFFFFFFFD000005FFC0
AFFFFFFFFD000005FFC0
7AAEFFCAA8000005FFC0
000BFF8000000005FFC0
000BFF8000000006FFC0
000BFF8000000006FFB0
000BFF8000000008FFA0
000BFF800000000BFF70
000BFF800000001FFF40
000BFF800000007FFD00
000BFF80000004FFF700
000BFF8000028FFFC000
000BFFDCCCDFFFFD2000
000BFFFFFFFFFF910000
000BFFFFFEDB72000000
ENDCHAR
STARTCHAR Ntilde
ENCODING 209
SWIDTH 619 0
DWIDTH 22 0
BBX 18 33 2 0
BITMAP
0000016610008A3000
00002EFFD200DF4000
0000BFFFFE9BFE1000
0001FF519FFFF80000
0002ED0006DE900000
000000000000000000
000000000000000000
4FFF4000000000BFF7
4FFFB000000000BFF7
4FFFF400000000BFF7
4FFFFC00000000BFF7
4FFFFF40000000BFF7
4FFFFFC0000000BFF7
4FFFBFF5000000BFF7
4FFF3FFC000000BFF7
4FFF0BFF500000BFF7
4FFF03FFD00000BFF7
4FFF00AFF50000BFF7
4FFF003FFD0000BFF7
4FFF000AFF6000BFF7
4FFF0002FFD000BFF7
4FFF0000AFF600BFF7
4FFF00002FFD00BFF7
4FFF000009FF60BFF7
4FFF000002FFE1BFF7
4FFF0000009FF7BFF7
4FFF0000002FFEBFF7
4FFF00000008FFFFF7
4FFF00000001EFFFF7
4FFF000000008FFFF7
4FFF000000001EFFF7
4FFF0000000008FFF7
4FFF0000000001EFF7
ENDCHAR
STARTCHAR Ograve
ENCODING 210
SWIDTH 600 0
DWIDTH 22 0
BBX 18 33 2 0
BITMAP
0003EFFA0000000000
00004FFF7000000000
000005FFF300000000
0000007FFD10000000
00000008EB50000000
000000000000000000
000000000000000000
000006ADFED9300000
0003DFFFFFFFFA1000
003EFFFFEFFFFFB100
01DFFE610039FFF900
08FFE30000007FFF20
0EFF700000000CFF80
4FFF1000000006FFD0
7FFB0000000002FFF1
AFF80000000000EFF4
BFF70000000000DFF5
CFF60000000000CFF6
CFF60000000000CFF6
CFF60000000000CFF6
CFF60000000000CFF6
CFF60000000000CFF6
CFF60000000000CFF6
BFF70000000000DFF5
AFF80000000000EFF4
7FFB0000000002FFF2
4FFE1000000006FFE0
0EFF600000000BFF90
08FFE20000006FFF30
01DFFE610028FFF900
003EFFFFDEFFFFC100
0003DFFFFFFFFA1000
000006ADFED9400000
ENDCHAR
STARTCHAR Oacute
ENCODING 211
SWIDTH 600 0
DWIDTH 22 0
BBX 18 33 2 0
BITMAP
0000000001DFFD1000
000000000AFFD20000
000000006FFE200000
00000003FFE3000000
00000007CE30000000
000000000000000000
000000000000000000
000006ADFED9300000
0003DFFFFFFFFA1000
003EFFFFEFFFFFB100
01DFFE610039FFF900
08FFE30000007FFF20
0EFF700000000CFF80
4FFF1000000006FFD0
7FFB0000000002FFF1
AFF80000000000EFF4
BFF70000000000DFF5
CFF60000000000CFF6
CFF60000000000CFF6
CFF60000000000CFF6
CFF60000000000CFF6
CFF60000000000CFF6
CFF60000000000CFF6
BFF70000000000DFF5
AFF80000000000EFF4
7FFB0000000002FFF2
4FFE1000000006FFE0
0EFF600000000BFF90
08FFE20000006FFF30
01DFFE610028FFF900
003EFFFFDEFFFFC100
0003DFFFFFFFFA1000
000006ADFED9400000
ENDCHAR
STARTCHAR Ocircumflex
ENCODING 212
SWIDTH 600 0
DWIDTH 22 0
BBX 18 33 2 0
BITMAP
00000007FF30000000
0000005FFFE2000000
000003FF8CFD100000
00002EFC02EFB00000
00006BE2006DA30000
000000000000000000
000000000000000000
000006ADFED9300000
0003DFFFFFFFFA1000
003EFFFFEFFFFFB100
01DFFE610039FFF900
08FFE30000007FFF20
0EFF700000000CFF80
4FFF1000000006FFD0
7FFB0000000002FFF1
AFF80000000000EFF4
BFF70000000000DFF5
CFF60000000000CFF6
CFF60000000000CFF6
CFF60000000000CFF6
CFF60000000000CFF6
CFF60000000000CFF6
CFF60000000000CFF6
BFF70000000000DFF5
AFF80000000000EFF4
7FFB0000000002FFF2
4FFE1000000006FFE0
0EFF600000000BFF90
08FFE20000006FFF30
01DFFE610028FFF900
003EFFFFDEFFFFC100
0003DFFFFFFFFA1000
000006ADFED9400000
ENDCHAR
STARTCHAR Otilde
ENCODING 213
SWIDTH 600 0
DWIDTH 22 0
BBX 18 33 2 0
BITMAP
000002750000AA1000
00005FFFB102FF1000
0000DFFFFD8CFC0000
0004FE32BFFFF50000
0005EA0008EE700000
000000000000000000
000000000000000000
000006ADFED9300000
0003DFFFFFFFFA1000
003EFFFFEFFFFFB100
01DFFE610039FFF900
08FFE30000007FFF20
0EFF700000000CFF80
4FFF1000000006FFD0
7FFB0000000002FFF1
AFF80000000000EFF4
BFF70000000000DFF5
CFF60000000000CFF6
CFF60000000000CFF6
CFF60000000000CFF6
CFF60000000000CFF6
CFF60000000000CFF6
CFF60000000000CFF6
BFF70000000000DFF5
AFF80000000000EFF4
7FFB0000000002FFF2
4FFE1000000006FFE0
0EFF600000000BFF90
08FFE20000006FFF30
01DFFE610028FFF900
003EFFFFDEFFFFC100
0003DFFFFFFFFA1000
000006ADFED9400000
ENDCHAR
STARTCHAR Odieresis
ENCODING 214
SWIDTH 600 0
DWIDTH 22 0
BBX 18 32 2 0
BITMAP
00019A300005A70000
000AFFD0002FFF7000
000BFFF0003FFF8000
0004DE700009EC2000
000000000000000000
000000000000000000
000006ADFED9300000
0003DFFFFFFFFA1000
003EFFFFEFFFFFB100
01DFFE610039FFF900
08FFE30000007FFF20
0EFF700000000CFF80
4FFF1000000006FFD0
7FFB0000000002FFF1
AFF80000000000EFF4
BFF70000000000DFF5
CFF60000000000CFF6
CFF60000000000CFF6
CFF60000000000CFF6
CFF60000000000CFF6
CFF60000000000CFF6
CFF60000000000CFF6
BFF70000000000DFF5
AFF80000000000EFF4
7FFB0000000002FFF2
4FFE1000000006FFE0
0EFF600000000BFF90
08FFE20000006FFF30
01DFFE610028FFF900
003EFFFFDEFFFFC100
0003DFFFFFFFFA1000
000006ADFED9400000
ENDCHAR
STARTCHAR multiply
ENCODING 215
SWIDTH 470 0
DWIDTH 17 0
BBX 14 16 1 4
BITMAP
01B20000000490
1CFC1000002EF8
2EFFA00001DFFC
04FFF7000BFFD2
007FFF509FFE30
0009FFE8FFF500
0000CFFFFF8000
00001DFFFA0000
00001DFFF90000
0000BFFFFF7000
0009FFF9FFF400
006FFF50AFFE30
04FFF8000CFFD1
2EFFA00001DFFB
0BFC1000003EF7
01B20000000580
ENDCHAR
STARTCHAR Oslash
ENCODING 216
SWIDTH 600 0
DWIDTH 22 0
BBX 18 29 2 -2
BITMAP
0000000000000006B7
000004ADFEC8201EF4
0001AFFFFFFFF69FB0
001CFFFFEFFFFFFF30
00AFFF92003BFFFA00
04FFF6000000AFFD00
0BFFB0000000BFFF50
1FFF30000004FFFFB0
6FFD0000000CFBFFF0
9FF90000005FE2FFF3
BFF7000000CF70CFF6
DFF5000006FE10BFF7
EFF400000DF600AFF8
EFF400006FD000AFF8
EFF40001EF5000AFF8
DFF40007FC0000AFF8
CFF5001EF40000BFF7
BFF6008FB00000CFF6
9FF902FF400000FFF3
6FFD09FB000003FFF1
2FFF5FF3000008FFB0
0AFFFFA000001EFF60
04FFFF200000AFFD00
009FFF71003BFFF500
004FFFFFDEFFFF7000
00CFDFFFFFFFF70000
05FE14ADFEC8200000
0CF700000000000000
144000000000000000
ENDCHAR
STARTCHAR Ugrave
ENCODING 217
SWIDTH 561 0
DWIDTH 20 0
BBX 16 33 2 0
BITMAP
001DFFD100000000
0002DFFA00000000
00002EFF70000000
000003EFF3000000
0000004EC7000000
0000000000000000
0000000000000000
BFF7000000003FFF
BFF7000000003FFF
BFF7000000003FFF
BFF7000000003FFF
BFF7000000003FFF
BFF7000000003FFF
BFF7000000003FFF
BFF7000000003FFF
BFF7000000003FFF
BFF7000000003FFF
BFF7000000003FFF
BFF7000000003FFF
BFF7000000003FFF
BFF7000000003FFF
BFF7000000003FFF
BFF7000000003FFF
BFF7000000003FFF
BFF7000000003FFF
AFF8000000004FFF
9FF9000000005FFE
7FFC000000008FFB
3FFF40000001EFF7
0BFFE500003CFFE1
02EFFFECCDFFFF40
003DFFFFFFFFE400
00005ADEFDB61000
ENDCHAR
STARTCHAR Uacute
ENCODING 218
SWIDTH 561 0
DWIDTH 20 0
BBX 16 33 2 0
BITMAP
000000000AFFE300
000000006FFF4000
00000003FFF50000
0000001DFF500000
0000004BE6000000
0000000000000000
0000000000000000
BFF7000000003FFF
BFF7000000003FFF
BFF7000000003FFF
BFF7000000003FFF
BFF7000000003FFF
BFF7000000003FFF
BFF7000000003FFF
BFF7000000003FFF
BFF7000000003FFF
BFF7000000003FFF
BFF7000000003FFF
BFF7000000003FFF
BFF7000000003FFF
BFF7000000003FFF
BFF7000000003FFF
BFF7000000003FFF
BFF7000000003FFF
BFF7000000003FFF
AFF8000000004FFF
9FF9000000005FFE
7FFC000000008FFB
3FFF40000001EFF7
0BFFE500003CFFE1
02EFFFECCDFFFF40
003DFFFFFFFFE400
00005ADEFDB61000
ENDCHAR
STARTCHAR Ucircumflex
ENCODING 219
SWIDTH 561 0
DWIDTH 20 0
BBX 16 33 2 0
BITMAP
0000004FF7000000
000002EFFF500000
00001DFB8FE30000
0000BFE20CFD2000
0003BE5002EB5000
0000000000000000
0000000000000000
BFF7000000003FFF
BFF7000000003FFF
BFF7000000003FFF
BFF7000000003FFF
BFF7000000003FFF
BFF7000000003FFF
BFF7000000003FFF
BFF7000000003FFF
BFF7000000003FFF
BFF7000000003FFF
BFF7000000003FFF
BFF7000000003FFF
BFF7000000003FFF
BFF7000000003FFF
BFF7000000003FFF
BFF7000000003FFF
BFF7000000003FFF
BFF7000000003FFF
AFF8000000004FFF
9FF9000000005FFE
7FFC000000008FFB
3FFF40000001EFF7
0BFFE500003CFFE1
02EFFFECCDFFFF40
003DFFFFFFFFE400
00005ADEFDB61000
ENDCHAR
STARTCHAR Udieresis
ENCODING 220
SWIDTH 561 0
DWIDTH 20 0
BBX 16 32 2 0
BITMAP
0007A50000399100
006FFF2000DFFA00
007FFF3000EFFC00
002CEA00006ED400
0000000000000000
0000000000000000
BFF7000000003FFF
BFF7000000003FFF
BFF7000000003FFF
BFF7000000003FFF
BFF7000000003FFF
BFF7000000003FFF
BFF7000000003FFF
BFF7000000003FFF
BFF7000000003FFF
BFF7000000003FFF
BFF7000000003FFF
BFF7000000003FFF
BFF7000000003FFF
BFF7000000003FFF
BFF7000000003FFF
BFF7000000003FFF
BFF7000000003FFF
BFF7000000003FFF
AFF8000000004FFF
9FF9000000005FFE
7FFC000000008FFB
3FFF40000001EFF7
0BFFE500003CFFE1
02EFFFECCDFFFF40
003DFFFFFFFFE400
00005ADEFDB61000
ENDCHAR
STARTCHAR Yacute
ENCODING 221
SWIDTH 524 0
DWIDTH 19 0
BBX 19 33 0 0
BITMAP
00000000004FFF800000
0000000002EFF9000000
000000000CFFA0000000
000000008FFB00000000
00000001ADB000000000
00000000000000000000
00000000000000000000
4FFF60000000008FFF10
0CFFC000000000EFF900
05FFF300000005FFF300
00DFF90000000BFFB000
007FFE1000002FFF4000
001EFF6000008FFD0000
0009FFC00000EFF60000
0002FFF30005FFE00000
0000AFF9000BFF700000
00003FFE102FFF100000
00000CFF608FF9000000
000005FFC0EFF2000000
000000DFF8FFB0000000
0000007FFFFF40000000
0000001EFFFC00000000
00000008FFF600000000
00000003FFF000000000
00000003FFF000000000
00000003FFF000000000
00000003FFF000000000
00000003FFF000000000
00000003FFF000000000
00000003FFF000000000
00000003FFF000000000
00000003FFF000000000
00000003FFF000000000
ENDCHAR
STARTCHAR Thorn
ENCODING 222
SWIDTH 515 0
DWIDTH 19 0
BBX 15 26 2 0
BITMAP
4FFC000000000000
4FFC000000000000
4FFC000000000000
4FFC000000000000
4FFC000000000000
4FFFFFFFEC710000
4FFFFFFFFFFE4000
4FFEAAAACFFFF400
4FFC000002CFFD00
4FFC0000001EFF60
4FFC00000008FFA0
4FFC00000004FFD0
4FFC00000002FFE0
4FFC00000003FFE0
4FFC00000005FFC0
4FFC0000000AFF90
4FFC0000004FFF40
4FFC000017EFFB00
4FFFFFFFFFFFD200
4FFFFFFFFFFA1000
4FFEAAAA97300000
4FFC000000000000
4FFC000000000000
4FFC000000000000
4FFC000000000000
4FFC000000000000
ENDCHAR
STARTCHAR germandbls
ENCODING 223
SWIDTH 521 0
DWIDTH 19 0
BBX 16 27 2 0
BITMAP
0004BEFDA4000000
008FFFFFFF700000
05FFFDBEFFF40000
0DFF8000AFFB0000
4FFE00002FFE0000
7FFA00000EFF1000
9FF700000DFF0000
AFF700001FFD0000
AFF700008FF80000
AFF70001EFF20000
AFF70007FFB00000
AFF7000DFF500000
AFF7000EFF300000
AFF7000DFF500000
AFF70009FFC10000
AFF70002EFFB0000
AFF700005FFFB000
AFF7000006FFFA00
AFF70000006FFF60
AFF700000008FFD0
AFF700000001FFF2
AFF700000000EFF3
AFF700000001FFF2
AFF705810009FFD0
AFF709FFBBDFFF70
AFF70CFFFFFFFA00
AFF7017BEFEB5000
ENDCHAR
STARTCHAR agrave
ENCODING 224
SWIDTH 479 0
DWIDTH 17 0
BBX 14 26 2 0
BITMAP
02EFFC00000000
003EFF80000000
0004FFF5000000
00005FFE200000
000007EB600000
00000000000000
00000000000000
00039DEEC82000
008FFFFFFFE400
07FFFDBCFFFE10
2FFF70003EFF60
7FFB000008FFA0
7BB6000006FFB0
0000000005FFB0
0000000005FFB0
00049CEFFFFFB0
01BFFFFFFFFFB0
1CFFFB7548FFB0
7FFD200005FFB0
CFF5000005FFB0
EFF2000005FFB0
EFF4000009FFB0
CFFC10029FFFC0
6FFFFDDFFEFFD0
0AFFFFFFD4FFF1
005BEFD811FFF4
ENDCHAR
STARTCHAR aacute
ENCODING 225
SWIDTH 479 0
DWIDTH 17 0
BBX 14 26 2 0
BITMAP
00000000CFFD20
00000009FFE200
0000005FFE3000
000002EFE40000
000006BE400000
00000000000000
00000000000000
00039DEEC82000
008FFFFFFFE400
07FFFDBCFFFE10
2FFF70003EFF60
7FFB000008FFA0
7BB6000006FFB0
0000000005FFB0
0000000005FFB0
00049CEFFFFFB0
01BFFFFFFFFFB0
1CFFFB7548FFB0
7FFD200005FFB0
CFF5000005FFB0
EFF2000005FFB0
EFF4000009FFB0
CFFC10029FFFC0
6FFFFDDFFEFFD0
0AFFFFFFD4FFF1
005BEFD811FFF4
ENDCHAR
STARTCHAR acircumflex
ENCODING 226
SWIDTH 479 0
DWIDTH 17 0
BBX 14 27 2 0
BITMAP
000006FF400000
00004FFFE30000
0003EF9BFD1000
001DFD11EFC100
005BE3005EB400
00000000000000
00000000000000
00000000000000
00039DEEC82000
008FFFFFFFE400
07FFFDBCFFFE10
2FFF70003EFF60
7FFB000008FFA0
7BB6000006FFB0
0000000005FFB0
0000000005FFB0
00049CEFFFFFB0
01BFFFFFFFFFB0
1CFFFB7548FFB0
7FFD200005FFB0
CFF5000005FFB0
EFF2000005FFB0
EFF4000009FFB0
CFFC10029FFFC0
6FFFFDDFFEFFD0
0AFFFFFFD4FFF1
005BEFD811FFF4
ENDCHAR
STARTCHAR atilde
ENCODING 227
SWIDTH 479 0
DWIDTH 17 0
BBX 14 27 2 0
BITMAP
00027500009A20
004EFFC101EF20
00CFFFFE9CFD00
03FF41AFFFF600
04EB0007EE8000
00000000000000
00000000000000
00000000000000
00039DEEC82000
008FFFFFFFE400
07FFFDBCFFFE10
2FFF70003EFF60
7FFB000008FFA0
7BB6000006FFB0
0000000005FFB0
0000000005FFB0
00049CEFFFFFB0
01BFFFFFFFFFB0
1CFFFB7548FFB0
7FFD200005FFB0
CFF5000005FFB0
EFF2000005FFB0
EFF4000009FFB0
CFFC10029FFFC0
6FFFFDDFFEFFD0
0AFFFFFFD4FFF1
005BEFD811FFF4
ENDCHAR
STARTCHAR adieresis
ENCODING 228
SWIDTH 479 0
DWIDTH 17 0
BBX 14 26 2 0
BITMAP
018A400004A810
08FFE0001EFF80
0AFFF1001FFFA0
03DE800008ED30
00000000000000
00000000000000
00000000000000
00039DEEC82000
008FFFFFFFE400
07FFFDBCFFFE10
2FFF70003EFF60
7FFB000008FFA0
7BB6000006FFB0
0000000005FFB0
0000000005FFB0
00049CEFFFFFB0
01BFFFFFFFFFB0
1CFFFB7548FFB0
7FFD200005FFB0
CFF5000005FFB0
EFF2000005FFB0
EFF4000009FFB0
CFFC10029FFFC0
6FFFFDDFFEFFD0
0AFFFFFFD4FFF1
005BEFD811FFF4
ENDCHAR
STARTCHAR aring
ENCODING 229
SWIDTH 479 0
DWIDTH 17 0
BBX 14 28 2 0
BITMAP
00003BEEA20000
0002EFAAFE2000
000AF4006F8000
000CF0001FB000
000AF4005F9000
0003FFAAFE2000
00003BEEA20000
00000000000000
00000000000000
00039DEEC82000
008FFFFFFFE400
07FFFDBCFFFE10
2FFF70003EFF60
7FFB000008FFA0
7BB6000006FFB0
0000000005FFB0
0000000005FFB0
00049CEFFFFFB0
01BFFFFFFFFFB0
1CFFFB7548FFB0
7FFD200005FFB0
CFF5000005FFB0
EFF2000005FFB0
EFF4000009FFB0
CFFC10029FFFC0
6FFFFDDFFEFFD0
0AFFFFFFD4FFF1
005BEFD811FFF4
ENDCHAR
STARTCHAR ae
ENCODING 230
SWIDTH 728 0
DWIDTH 26 0
BBX 24 19 1 0
BITMAP
00017CEFD930004BEFD93000
004EFFFFFFF609FFFFFFF600
03EFFFCBEFFFBFFFCBDFFF40
0AFFE3001BFFFFE40008FFD0
0FFF500003FFFF700000CFF4
1ACD100000EFFE1000007FF8
0000000000CFFA0000004FFB
0000000000CFF70000003FFC
00049CDEEEFFFFFFFFFFFFFD
01AFFFFFFFFFFFFFFFFFFFFD
0AFFFDA888DFFA8888888887
3FFF800000CFF60000000000
7FFD000000CFF80000000000
8FF9000000CFFD0000000000
7FFB000001DFFF6000000020
4FFF40004DFFFFF6000029E1
0DFFFCADFFFA9FFFDAACFFF6
03EFFFFFFF9008FFFFFFFFC2
0029DFEC83000039DEED9400
ENDCHAR
STARTCHAR ccedilla
ENCODING 231
SWIDTH 461 0
DWIDTH 17 0
BBX 15 26 1 -7
BITMAP
00004ADEEC810000
001AFFFFFFFE4000
00AFFFDBCEFFE200
05FFF60002CFFA00
0BFF8000002FFF10
0FFF2000000CFF40
3FFE00000006AA30
4FFD000000000000
5FFC000000000000
5FFC000000000000
5FFC000000000000
4FFD000000000000
3FFE000000012210
0FFF2000000BFF40
0BFF7000001EFF10
05FFF50001AFFB00
00BFFFDABEFFE200
001BFFFFFFFD3000
00004ADFEC710000
000000EF40000000
000003FFD5000000
0000013AFF200000
00000001FF500000
00000007FF400000
000003EFFB000000
000003EC71000000
ENDCHAR
STARTCHAR egrave
ENCODING 232
SWIDTH 468 0
DWIDTH 17 0
BBX 15 26 1 0
BITMAP
005FFF8000000000
0006FFF400000000
00008FFE20000000
000009FFC0000000
000000ADA3000000
0000000000000000
0000000000000000
000039DFEC810000
0008FFFFFFFE3000
007FFFDBBFFFE100
02FFF60002DFF800
09FF9000004FFE00
0DFF3000000EFF20
1FFF0000000BFF50
3FFE0000000AFF60
4FFFFFFFFFFFFF70
4FFFFFFFFFFFFF70
4FFEAAAAAAAAAA50
3FFD000000000000
2FFE000000000000
0EFF200000000000
0BFF900000005000
04FFF7000019FA00
00AFFFEBACFFFE10
001AFFFFFFFFC300
000049DEFDA60000
ENDCHAR
STARTCHAR eacute
ENCODING 233
SWIDTH 468 0
DWIDTH 17 0
BBX 15 26 1 0
BITMAP
000000002EFFB000
00000000CFFC1000
00000009FFC10000
0000005FFD100000
0000009CD2000000
0000000000000000
0000000000000000
000039DFEC810000
0008FFFFFFFE3000
007FFFDBBFFFE100
02FFF60002DFF800
09FF9000004FFE00
0DFF3000000EFF20
1FFF0000000BFF50
3FFE0000000AFF60
4FFFFFFFFFFFFF70
4FFFFFFFFFFFFF70
4FFEAAAAAAAAAA50
3FFD000000000000
2FFE000000000000
0EFF200000000000
0BFF900000005000
04FFF7000019FA00
00AFFFEBACFFFE10
001AFFFFFFFFC300
000049DEFDA60000
ENDCHAR
STARTCHAR ecircumflex
ENCODING 234
SWIDTH 468 0
DWIDTH 17 0
BBX 15 27 1 0
BITMAP
000000AFE2000000
000008FFFC100000
00006FF6EFB00000
0004FF904FF80000
0008CD1008DA1000
0000000000000000
0000000000000000
0000000000000000
000039DFEC810000
0008FFFFFFFE3000
007FFFDBBFFFE100
02FFF60002DFF800
09FF9000004FFE00
0DFF3000000EFF20
1FFF0000000BFF50
3FFE0000000AFF60
4FFFFFFFFFFFFF70
4FFFFFFFFFFFFF70
4FFEAAAAAAAAAA50
3FFD000000000000
2FFE000000000000
0EFF200000000000
0BFF900000005000
04FFF7000019FA00
00AFFFEBACFFFE10
001AFFFFFFFFC300
000049DEFDA60000
ENDCHAR
STARTCHAR edieresis
ENCODING 235
SWIDTH 468 0
DWIDTH 17 0
BBX 15 26 1 0
BITMAP
00299200006A6000
00CFFB0004FFF400
00EFFC0005FFF600
006EE50001BEB100
0000000000000000
0000000000000000
0000000000000000
000039DFEC810000
0008FFFFFFFE3000
007FFFDBBFFFE100
02FFF60002DFF800
09FF9000004FFE00
0DFF3000000EFF20
1FFF0000000BFF50
3FFE0000000AFF60
4FFFFFFFFFFFFF70
4FFFFFFFFFFFFF70
4FFEAAAAAAAAAA50
3FFD000000000000
2FFE000000000000
0EFF200000000000
0BFF900000005000
04FFF7000019FA00
00AFFFEBACFFFE10
001AFFFFFFFFC300
000049DEFDA60000
ENDCHAR
STARTCHAR igrave
ENCODING 236
SWIDTH 234 0
DWIDTH 8 0
BBX 7 26 -1 0
BITMAP
BFFE2000
1CFFC000
02DFF800
002EFF50
0003EC80
00000000
00000000
0007FFA0
0007FFA0
0007FFA0
0007FFA0
0007FFA0
0007FFA0
0007FFA0
0007FFA0
0007FFA0
0007FFA0
0007FFA0
0007FFA0
0007FFA0
0007FFA0
0007FFA0
0007FFA0
0007FFA0
0007FFA0
0007FFA0
ENDCHAR
STARTCHAR iacute
ENCODING 237
SWIDTH 234 0
DWIDTH 8 0
BBX 8 26 2 0
BITMAP
0009FFF4
005FFF50
02EFF600
0CFF7000
4BE80000
00000000
00000000
7FFA0000
7FFA0000
7FFA0000
7FFA0000
7FFA0000
7FFA0000
7FFA0000
7FFA0000
7FFA0000
7FFA0000
7FFA0000
7FFA0000
7FFA0000
7FFA0000
7FFA0000
7FFA0000
7FFA0000
7FFA0000
7FFA0000
ENDCHAR
STARTCHAR icircumflex
ENCODING 238
SWIDTH 234 0
DWIDTH 8 0
BBX 10 27 -1 0
BITMAP
0003EF8000
001DFFF600
01CFD7FF40
0AFF30BFE2
2AD7001DC6
0000000000
0000000000
0000000000
0007FFA000
0007FFA000
0007FFA000
0007FFA000
0007FFA000
0007FFA000
0007FFA000
0007FFA000
0007FFA000
0007FFA000
0007FFA000
0007FFA000
0007FFA000
0007FFA000
0007FFA000
0007FFA000
0007FFA000
0007FFA000
0007FFA000
ENDCHAR
STARTCHAR idieresis
ENCODING 239
SWIDTH 234 0
DWIDTH 8 0
BBX 12 26 -2 0
BITMAP
06A600002992
4FFF4000BFFC
6FFF5000CFFE
1BEB10005EE6
000000000000
000000000000
000000000000
00007FFA0000
00007FFA0000
00007FFA0000
00007FFA0000
00007FFA0000
00007FFA0000
00007FFA0000
00007FFA0000
00007FFA0000
00007FFA0000
00007FFA0000
00007FFA0000
00007FFA0000
00007FFA0000
00007FFA0000
00007FFA0000
00007FFA0000
00007FFA0000
00007FFA0000
ENDCHAR
STARTCHAR eth
ENCODING 240
SWIDTH 513 0
DWIDTH 18 0
BBX 15 27 2 0
BITMAP
005C710000000000
00AFFE81001A2000
00DFFFFD34DFA000
0005CFFFEFFC2000
000006EFFFB00000
000003DFFFD10000
00006FFDEFFA0000
0002FFA14FFF4000
000076000AFFA000
0000000002FFF200
00018DFEA2BFF600
003EFFFFFFBFFA00
02EFFFCBCFFFFD00
0AFFE40003DFFF00
2FFF4000003FFF10
7FFB0000000EFF20
BFF60000000DFF30
CFF40000000DFF30
DFF30000000EFF20
DFF40000001FFF10
BFF60000003FFD00
7FFB0000008FF900
2FFF300001EFF400
0AFFD3001BFFB000
01DFFFCBEFFE2000
002CFFFFFFE30000
00006CEFD8100000
ENDCHAR
STARTCHAR ntilde
ENCODING 241
SWIDTH 483 0
DWIDTH 17 0
BBX 14 27 2 0
BITMAP
0003740000B910
006FFFA103FF00
01EFFFFD8DFB00
05FE22CFFFF400
06E90009ED6000
00000000000000
00000000000000
00000000000000
AFF406CEEC6000
AFF5CFFFFFF900
AFFEFFDDFFFF40
AFFFD3003DFFA0
AFFE200005FFD0
AFF8000002FFF0
AFF7000000FFF1
AFF7000000FFF1
AFF7000000FFF1
AFF7000000FFF1
AFF7000000FFF1
AFF7000000FFF1
AFF7000000FFF1
AFF7000000FFF1
AFF7000000FFF1
AFF7000000FFF1
AFF7000000FFF1
AFF7000000FFF1
AFF7000000FFF1
ENDCHAR
STARTCHAR ograve
ENCODING 242
SWIDTH 501 0
DWIDTH 18 0
BBX 16 26 1 0
BITMAP
003EFFA000000000
0004FFF700000000
00005FFF30000000
000007FFD1000000
0000008EB5000000
0000000000000000
0000000000000000
000028DEED920000
0006FFFFFFFF7000
006FFFEBBEFFF700
02FFFA1001AFFF30
09FFC000000CFFA0
0EFF50000004FFE0
2FFF00000000EFF3
4FFD00000000CFF5
5FFC00000000BFF6
5FFC00000000BFF6
5FFC00000000BFF6
4FFD00000000CFF5
2FFF00000000EFF3
0EFF40000002FFE0
09FFC0000009FFA0
02FFFA10007FFF30
007FFFEBADFFF700
0007FFFFFFFF7000
000029DEED930000
ENDCHAR
STARTCHAR oacute
ENCODING 243
SWIDTH 501 0
DWIDTH 18 0
BBX 16 26 1 0
BITMAP
000000001DFFD100
00000000AFFD2000
00000006FFE20000
0000003FFE300000
0000007CE3000000
0000000000000000
0000000000000000
000028DEED920000
0006FFFFFFFF7000
006FFFEBBEFFF700
02FFFA1001AFFF30
09FFC000000CFFA0
0EFF50000004FFE0
2FFF00000000EFF3
4FFD00000000CFF5
5FFC00000000BFF6
5FFC00000000BFF6
5FFC00000000BFF6
4FFD00000000CFF5
2FFF00000000EFF3
0EFF40000002FFE0
09FFC0000009FFA0
02FFFA10007FFF30
007FFFEBADFFF700
0007FFFFFFFF7000
000029DEED930000
ENDCHAR
STARTCHAR ocircumflex
ENCODING 244
SWIDTH 501 0
DWIDTH 18 0
BBX 16 27 1 0
BITMAP
0000007FF3000000
000005FFFE200000
00003FF8CFD10000
0002EFC02EFB0000
0006BE2006DA3000
0000000000000000
0000000000000000
0000000000000000
000028DEED920000
0006FFFFFFFF7000
006FFFEBBEFFF700
02FFFA1001AFFF30
09FFC000000CFFA0
0EFF50000004FFE0
2FFF00000000EFF3
4FFD00000000CFF5
5FFC00000000BFF6
5FFC00000000BFF6
5FFC00000000BFF6
4FFD00000000CFF5
2FFF00000000EFF3
0EFF40000002FFE0
09FFC0000009FFA0
02FFFA10007FFF30
007FFFEBADFFF700
0007FFFFFFFF7000
000029DEED930000
ENDCHAR
STARTCHAR otilde
ENCODING 245
SWIDTH 501 0
DWIDTH 18 0
BBX 16 27 1 0
BITMAP
00002750000AA100
0005FFFB102FF100
000DFFFFD8CFC000
004FE32BFFFF5000
005EA0008EE70000
0000000000000000
0000000000000000
0000000000000000
000028DEED920000
0006FFFFFFFF7000
006FFFEBBEFFF700
02FFFA1001AFFF30
09FFC000000CFFA0
0EFF50000004FFE0
2FFF00000000EFF3
4FFD00000000CFF5
5FFC00000000BFF6
5FFC00000000BFF6
5FFC00000000BFF6
4FFD00000000CFF5
2FFF00000000EFF3
0EFF40000002FFE0
09FFC0000009FFA0
02FFFA10007FFF30
007FFFEBADFFF700
0007FFFFFFFF7000
000029DEED930000
ENDCHAR
STARTCHAR odieresis
ENCODING 246
SWIDTH 501 0
DWIDTH 18 0
BBX 16 26 1 0
BITMAP
0019A300005A7000
00AFFD0002FFF700
00BFFF0003FFF800
004DE700009EC200
0000000000000000
0000000000000000
0000000000000000
000028DEED920000
0006FFFFFFFF7000
006FFFEBBEFFF700
02FFFA1001AFFF30
09FFC000000CFFA0
0EFF50000004FFE0
2FFF00000000EFF3
4FFD00000000CFF5
5FFC00000000BFF6
5FFC00000000BFF6
5FFC00000000BFF6
4FFD00000000CFF5
2FFF00000000EFF3
0EFF40000002FFE0
09FFC0000009FFA0
02FFFA10007FFF30
007FFFEBADFFF700
0007FFFFFFFF7000
000029DEED930000
ENDCHAR
STARTCHAR divide
ENCODING 247
SWIDTH 500 0
DWIDTH 18 0
BBX 16 19 1 3
BITMAP
0000001750000000
000000CFF7000000
000000FFFA000000
000000BFF6000000
0000001540000000
0000000000000000
0000000000000000
0000000000000000
9FFFFFFFFFFFFFF2
9FFFFFFFFFFFFFF2
9FFFFFFFFFFFFFF2
2444444444444440
0000000000000000
0000000000000000
0000000100000000
0000008FE3000000
000000FFFA000000
000000EFF8000000
0000004B91000000
ENDCHAR
STARTCHAR oslash
ENCODING 248
SWIDTH 498 0
DWIDTH 18 0
BBX 16 23 1 -2
BITMAP
000000000002DB00
000000000008F600
000018CEEC8EE100
0004EFFFFFFFA000
003EFFEBBEFFF300
00CFFB1005FFFD00
06FFE1000BFEFF60
0BFF70002FD6FFB0
0FFF20009F71FFF1
3FFE0001EE10EFF3
4FFD0007F900CFF4
4FFC000DF200CFF5
3FFD005FB000CFF5
2FFE00BF4000EFF3
0EFF22FD0002FFF1
0BFF69F70006FFC0
06FFDEE1001DFF60
00DFFF9001BFFD10
003EFFEBBEFFF400
0007FFFFFFFE4000
000BF9CEEC810000
002FD00000000000
009F600000000000
ENDCHAR
STARTCHAR ugrave
ENCODING 249
SWIDTH 483 0
DWIDTH 17 0
BBX 14 26 2 0
BITMAP
05FFF800000000
006FFF40000000
0008FFE2000000
00009FFC000000
00000ADA300000
00000000000000
00000000000000
BFF5000001FFF1
BFF5000001FFF1
BFF5000001FFF1
BFF5000001FFF1
BFF5000001FFF1
BFF5000001FFF1
BFF5000001FFF1
BFF5000001FFF1
BFF5000001FFF1
BFF5000001FFF1
BFF5000001FFF1
BFF5000001FFF1
BFF6000001FFF1
AFF7000001FFF1
8FFB000008FFF1
4FFF50017FFFF1
0DFFFDCEFFFFF1
03EFFFFFF8EFF1
002AEFEA40EFF1
ENDCHAR
STARTCHAR uacute
ENCODING 250
SWIDTH 483 0
DWIDTH 17 0
BBX 14 26 2 0
BITMAP
00000002EFFB00
0000000CFFC100
0000009FFC1000
000005FFD10000
000009CD200000
00000000000000
00000000000000
BFF5000001FFF1
BFF5000001FFF1
BFF5000001FFF1
BFF5000001FFF1
BFF5000001FFF1
BFF5000001FFF1
BFF5000001FFF1
BFF5000001FFF1
BFF5000001FFF1
BFF5000001FFF1
BFF5000001FFF1
BFF5000001FFF1
BFF6000001FFF1
AFF7000001FFF1
8FFB000008FFF1
4FFF50017FFFF1
0DFFFDCEFFFFF1
03EFFFFFF8EFF1
002AEFEA40EFF1
ENDCHAR
STARTCHAR ucircumflex
ENCODING 251
SWIDTH 483 0
DWIDTH 17 0
BBX 14 27 2 0
BITMAP
00000AFE200000
00008FFFC10000
0006FF6EFB0000
004FF904FF8000
008CD1008DA100
00000000000000
00000000000000
00000000000000
BFF5000001FFF1
BFF5000001FFF1
BFF5000001FFF1
BFF5000001FFF1
BFF5000001FFF1
BFF5000001FFF1
BFF5000001FFF1
BFF5000001FFF1
BFF5000001FFF1
BFF5000001FFF1
BFF5000001FFF1
BFF5000001FFF1
BFF6000001FFF1
AFF7000001FFF1
8FFB000008FFF1
4FFF50017FFFF1
0DFFFDCEFFFFF1
03EFFFFFF8EFF1
002AEFEA40EFF1
ENDCHAR
STARTCHAR udieresis
ENCODING 252
SWIDTH 483 0
DWIDTH 17 0
BBX 14 26 2 0
BITMAP
0299200006A600
0CFFB0004FFF40
0EFFC0005FFF60
06EE50001BEB10
00000000000000
00000000000000
00000000000000
BFF5000001FFF1
BFF5000001FFF1
BFF5000001FFF1
BFF5000001FFF1
BFF5000001FFF1
BFF5000001FFF1
BFF5000001FFF1
BFF5000001FFF1
BFF5000001FFF1
BFF5000001FFF1
BFF5000001FFF1
BFF5000001FFF1
BFF6000001FFF1
AFF7000001FFF1
8FFB000008FFF1
4FFF50017FFFF1
0DFFFDCEFFFFF1
03EFFFFFF8EFF1
002AEFEA40EFF1
ENDCHAR
STARTCHAR yacute
ENCODING 253
SWIDTH 416 0
DWIDTH 15 0
BBX 15 33 0 -7
BITMAP
000000001DFFC100
00000000AFFD1000
00000007FFD20000
0000003FFE200000
0000007CD3000000
0000000000000000
0000000000000000
4FFF2000002FFF20
0EFF6000006FFD00
09FFA00000AFF800
05FFE00000EFF400
01FFF30003FFE000
00BFF70006FFA000
006FFB000AFF6000
002FFE000EFF1000
000CFF303FFC0000
0007FF707FF70000
0003FFB0BFF30000
0000DFF1EFE00000
00009FF7FF900000
00004FFEFF500000
00000EFFFF100000
00000AFFFB000000
000005FFF6000000
000001FFF2000000
000000DFD0000000
000002FF80000000
000007FF40000000
00000DFE00000000
0001AFF800000000
06DFFFE100000000
07FFFF5000000000
05EFB30000000000
ENDCHAR
STARTCHAR thorn
ENCODING 254
SWIDTH 508 0
DWIDTH 18 0
BBX 15 34 2 -7
BITMAP
8FF9000000000000
8FF9000000000000
8FF9000000000000
8FF9000000000000
8FF9000000000000
8FF9000000000000
8FF9000000000000
8FF9000000000000
8FF917CEEB600000
8FFBDFFFFFFA0000
8FFFFFDCFFFF8000
8FFFC2002CFFF200
8FFD100002EFF700
8FF90000008FFC00
8FF90000003FFE00
8FF90000000FFF10
8FF90000000EFF20
8FF90000000DFF30
8FF90000000EFF30
8FF90000000FFF20
8FF90000003FFE00
8FF90000007FFC00
8FFC000001EFF700
8FFFA1001BFFE100
8FFFFEBBEFFF7000
8FFBDFFFFFFA0000
8FF918CEEC500000
8FF9000000000000
8FF9000000000000
8FF9000000000000
8FF9000000000000
8FF9000000000000
8FF9000000000000
8FF9000000000000
ENDCHAR
STARTCHAR ydieresis
ENCODING 255
SWIDTH 416 0
DWIDTH 15 0
BBX 15 33 0 -7
BITMAP
00299300005A7000
00AFFD0002FFF600
00BFFE0003FFF800
004DE60000AEC200
0000000000000000
0000000000000000
0000000000000000
4FFF2000002FFF20
0EFF6000006FFD00
09FFA00000AFF800
05FFE00000EFF400
01FFF30003FFE000
00BFF70006FFA000
006FFB000AFF6000
002FFE000EFF1000
000CFF303FFC0000
0007FF707FF70000
0003FFB0BFF30000
0000DFF1EFE00000
00009FF7FF900000
00004FFEFF500000
00000EFFFF100000
00000AFFFB000000
000005FFF6000000
000001FFF2000000
000000DFD0000000
000002FF80000000
000007FF40000000
00000DFE00000000
0001AFF800000000
06DFFFE100000000
07FFFF5000000000
05EFB30000000000
ENDCHAR
STARTCHAR Amacron
ENCODING 256
SWIDTH 576 0
DWIDTH 21 0
BBX 20 31 0 0
BITMAP
00000488888888850000
000009FFFFFFFFF90000
000009FFFFFFFFF90000
00000000000000000000
00000000000000000000
000000002FFE00000000
000000007FFF40000000
00000000CFFF80000000
00000002FFFFD0000000
00000006FFEFF3000000
0000000BFF7FF8000000
0000001FFC1FFC000000
0000006FF70BFF200000
000000BFF306FF700000
000001FFD002FFC00000
000005FF9000CFF20000
00000AFF40008FF60000
00000EFE00003FFB0000
00004FFA00000DFF1000
00009FF5000009FF5000
0000EFF1000004FFA000
0004FFFFFFFFFFFFE100
0008FFFFFFFFFFFFF500
000DFFCCCCCCCCDFFA00
003FFD000000001FFE00
008FF9000000000CFF40
00CFF40000000008FF90
02FFF10000000004FFD0
07FFB00000000000EFF3
0CFF700000000000BFF8
1FFF3000000000006FFD
ENDCHAR
STARTCHAR amacron
ENCODING 257
SWIDTH 479 0
DWIDTH 17 0
BBX 14 25 2 0
BITMAP
01888888888810
01FFFFFFFFFF20
01FFFFFFFFFF20
00000000000000
00000000000000
00000000000000
00039DEEC82000
008FFFFFFFE400
07FFFDBCFFFE10
2FFF70003EFF60
7FFB000008FFA0
7BB6000006FFB0
0000000005FFB0
0000000005FFB0
00049CEFFFFFB0
01BFFFFFFFFFB0
1CFFFB7548FFB0
7FFD200005FFB0
CFF5000005FFB0
EFF2000005FFB0
EFF4000009FFB0
CFFC10029FFFC0
6FFFFDDFFEFFD0
0AFFFFFFD4FFF1
005BEFD811FFF4
ENDCHAR
STARTCHAR Abreve
ENCODING 258
SWIDTH 576 0
DWIDTH 21 0
BBX 20 31 0 0
BITMAP
00000111000001110000
00000BFE00000FFA0000
000009FF30004FF70000
000003FFD425EFF20000
0000006FFFFFFF500000
00000003DFFFA3000000
000000007FFF40000000
00000000CFFF80000000
00000002FFFFD0000000
00000006FFEFF3000000
0000000BFF7FF8000000
0000001FFC1FFC000000
0000006FF70BFF200000
000000BFF306FF700000
000001FFD002FFC00000
000005FF9000CFF20000
00000AFF40008FF60000
00000EFE00003FFB0000
00004FFA00000DFF1000
00009FF5000009FF5000
0000EFF1000004FFA000
0004FFFFFFFFFFFFE100
0008FFFFFFFFFFFFF500
000DFFCCCCCCCCDFFA00
003FFD000000001FFE00
008FF9000000000CFF40
00CFF40000000008FF90
02FFF10000000004FFD0
07FFB00000000000EFF3
0CFF700000000000BFF8
1FFF3000000000006FFD
ENDCHAR
STARTCHAR abreve
ENCODING 259
SWIDTH 479 0
DWIDTH 17 0
BBX 14 27 2 0
BITMAP
00110000011100
04FF600008FF20
01FFA0000CFE00
00AFF8339FF900
001CFFFFFFC100
00017CFEC70000
00000000000000
00000000000000
00039DEEC82000
008FFFFFFFE400
07FFFDBCFFFE10
2FFF70003EFF60
7FFB000008FFA0
7BB6000006FFB0
0000000005FFB0
0000000005FFB0
00049CEFFFFFB0
01BFFFFFFFFFB0
1CFFFB7548FFB0
7FFD200005FFB0
CFF5000005FFB0
EFF2000005FFB0
EFF4000009FFB0
CFFC10029FFFC0
6FFFFDDFFEFFD0
0AFFFFFFD4FFF1
005BEFD811FFF4
ENDCHAR
STARTCHAR Aogonek
ENCODING 260
SWIDTH 576 0
DWIDTH 21 0
BBX 20 33 0 -7
BITMAP
000000002FFE00000000
000000007FFF40000000
00000000CFFF80000000
00000002FFFFD0000000
00000006FFEFF3000000
0000000BFF7FF8000000
0000001FFC1FFC000000
0000006FF70BFF200000
000000BFF306FF700000
000001FFD002FFC00000
000005FF9000CFF20000
00000AFF40008FF60000
00000EFE00003FFB0000
00004FFA00000DFF1000
00009FF5000009FF5000
0000EFF1000004FFA000
0004FFFFFFFFFFFFE100
0008FFFFFFFFFFFFF500
000DFFCCCCCCCCDFFA00
003FFD000000002FFE00
008FF9000000000CFF40
00CFF40000000008FF90
02FFF10000000004FFD0
07FFB00000000001FFF3
0CFF700000000000BFF8
1FFF3000000000007FFD
0000000000000002CFB1
000000000000001DFB00
000000000000007FF200
00000000000000BFE000
00000000000000BFF986
000000000000006FFFF8
0000000000000008DEB4
ENDCHAR
STARTCHAR aogonek
ENCODING 261
SWIDTH 479 0
DWIDTH 17 0
BBX 14 26 2 -7
BITMAP
00039DEEC82000
008FFFFFFFE400
07FFFDBCFFFE10
2FFF70003EFF60
7FFB000008FFA0
7BB6000006FFB0
0000000005FFB0
0000000005FFB0
00049CEFFFFFB0
01BFFFFFFFFFB0
1CFFFB7548FFB0
7FFD200005FFB0
CFF5000005FFB0
EFF2000005FFB0
EFF4000009FFB0
CFFC10029FFFC0
6FFFFDDFFEFFD0
0AFFFFFFD5FFF1
005BEFD811FFF4
0000000008FE40
000000008FE300
00000002FF8000
00000005FF5000
00000005FFC7A0
00000001EFFFF0
000000004CED70
ENDCHAR
STARTCHAR Cacute
ENCODING 262
SWIDTH 566 0
DWIDTH 20 0
BBX 17 33 2 0
BITMAP
0000000006FFF70000
000000003EFF800000
00000001DFF9000000
0000000AFF90000000
0000002ADA00000000
000000000000000000
000000000000000000
000005ADEED9400000
0003CFFFFFFFFA1000
003EFFFECDFFFFC000
01DFFE500018FFF700
08FFE30000008FFE10
0EFF700000001FFF50
4FFF100000000BFF80
7FFB0000000008FFA0
AFF900000000049970
BFF700000000000000
CFF700000000000000
CFF700000000000000
CFF700000000000000
CFF700000000000000
CFF700000000000000
CFF700000000000000
BFF700000000000000
AFF900000000037760
7FFB0000000008FFA0
4FFE000000000BFF80
0EFF600000001EFF40
08FFD10000007FFE10
01DFFD300017FFF700
003EFFFDCCFFFFB000
0003DFFFFFFFF90000
000006BDFEC9300000
ENDCHAR
STARTCHAR cacute
ENCODING 263
SWIDTH 461 0
DWIDTH 17 0
BBX 15 26 1 0
BITMAP
000000009FFF4000
00000006FFF50000
0000003EFF500000
000001DFF6000000
000004BE70000000
0000000000000000
0000000000000000
00004ADEEC810000
001AFFFFFFFE4000
00AFFFDBCEFFE200
05FFF60002CFFA00
0BFF8000002FFF10
0FFF2000000CFF40
3FFE00000006AA30
4FFD000000000000
5FFC000000000000
5FFC000000000000
5FFC000000000000
4FFD000000000000
3FFE000000012210
0FFF2000000BFF40
0BFF7000001EFF10
05FFF50001AFFB00
00BFFFDABEFFE200
001BFFFFFFFD3000
00004ADFEC710000
ENDCHAR
STARTCHAR Ccircumflex
ENCODING 264
SWIDTH 566 0
DWIDTH 20 0
BBX 17 33 2 0
BITMAP
0000001DFB00000000
000000CFFF90000000
00000AFE6FF6000000
00008FF508FF400000
0001AD9000CC800000
000000000000000000
000000000000000000
000005ADEED9400000
0003CFFFFFFFFA1000
003EFFFECDFFFFC000
01DFFE500018FFF700
08FFE30000008FFE10
0EFF700000001FFF50
4FFF100000000BFF80
7FFB0000000008FFA0
AFF900000000049970
BFF700000000000000
CFF700000000000000
CFF700000000000000
CFF700000000000000
CFF700000000000000
CFF700000000000000
CFF700000000000000
BFF700000000000000
AFF900000000037760
7FFB0000000008FFA0
4FFE000000000BFF80
0EFF600000001EFF40
08FFD10000007FFE10
01DFFD300017FFF700
003EFFFDCCFFFFB000
0003DFFFFFFFF90000
000006BDFEC9300000
ENDCHAR
STARTCHAR ccircumflex
ENCODING 265
SWIDTH 461 0
DWIDTH 17 0
BBX 15 27 1 0
BITMAP
000003FF80000000
00002EFFF5000000
0001DFC8FF300000
000BFE20CFE20000
003AD6002DB60000
0000000000000000
0000000000000000
0000000000000000
00004ADEEC810000
001AFFFFFFFE4000
00AFFFDBCEFFE200
05FFF60002CFFA00
0BFF8000002FFF10
0FFF2000000CFF40
3FFE00000006AA30
4FFD000000000000
5FFC000000000000
5FFC000000000000
5FFC000000000000
4FFD000000000000
3FFE000000012210
0FFF2000000BFF40
0BFF7000001EFF10
05FFF50001AFFB00
00BFFFDABEFFE200
001BFFFFFFFD3000
00004ADFEC710000
ENDCHAR
STARTCHAR Cdotaccent
ENCODING 266
SWIDTH 566 0
DWIDTH 20 0
BBX 17 32 2 0
BITMAP
00000008A600000000
0000006FFF30000000
0000007FFF40000000
0000001CEA00000000
000000000000000000
000000000000000000
000005ADEED9400000
0003CFFFFFFFFA1000
003EFFFECDFFFFC000
01DFFE500018FFF700
08FFE30000008FFE10
0EFF700000001FFF50
4FFF100000000BFF80
7FFB0000000008FFA0
AFF900000000049970
BFF700000000000000
CFF700000000000000
CFF700000000000000
CFF700000000000000
CFF700000000000000
CFF700000000000000
CFF700000000000000
BFF700000000000000
AFF900000000037760
7FFB0000000008FFA0
4FFE000000000BFF80
0EFF600000001EFF40
08FFD10000007FFE10
01DFFD300017FFF700
003EFFFDCCFFFFB000
0003DFFFFFFFF90000
000006BDFEC9300000
ENDCHAR
STARTCHAR cdotaccent
ENCODING 267
SWIDTH 461 0
DWIDTH 17 0
BBX 15 26 1 0
BITMAP
0000019A40000000
000009FFE0000000
00000AFFF1000000
000003DE70000000
0000000000000000
0000000000000000
0000000000000000
00004ADEEC810000
001AFFFFFFFE4000
00AFFFDBCEFFE200
05FFF60002CFFA00
0BFF8000002FFF10
0FFF2000000CFF40
3FFE00000006AA30
4FFD000000000000
5FFC000000000000
5FFC000000000000
5FFC000000000000
4FFD000000000000
3FFE000000012210
0FFF2000000BFF40
0BFF7000001EFF10
05FFF50001AFFB00
00BFFFDABEFFE200
001BFFFFFFFD3000
00004ADFEC710000
ENDCHAR
STARTCHAR Ccaron
ENCODING 268
SWIDTH 566 0
DWIDTH 20 0
BBX 17 33 2 0
BITMAP
0002EFA000CFC10000
00004FF508FE200000
000008FE6FF4000000
000000BFFF70000000
0000001DFA00000000
000000000000000000
000000000000000000
000005ADEED9400000
0003CFFFFFFFFA1000
003EFFFECDFFFFC000
01DFFE500018FFF700
08FFE30000008FFE10
0EFF700000001FFF50
4FFF100000000BFF80
7FFB0000000008FFA0
AFF900000000049970
BFF700000000000000
CFF700000000000000
CFF700000000000000
CFF700000000000000
CFF700000000000000
CFF700000000000000
CFF700000000000000
BFF700000000000000
AFF900000000037760
7FFB0000000008FFA0
4FFE000000000BFF80
0EFF600000001EFF40
08FFD10000007FFE10
01DFFD300017FFF700
003EFFFDCCFFFFB000
0003DFFFFFFFF90000
000006BDFEC9300000
ENDCHAR
STARTCHAR ccaron
ENCODING 269
SWIDTH 461 0
DWIDTH 17 0
BBX 15 27 1 0
BITMAP
004FF6002EF90000
0008FE20CFC10000
0000BFC8FE200000
00001DFFF4000000
000003FF70000000
0000000000000000
0000000000000000
0000000000000000
00004ADEEC810000
001AFFFFFFFE4000
00AFFFDBCEFFE200
05FFF60002CFFA00
0BFF8000002FFF10
0FFF2000000CFF40
3FFE00000006AA30
4FFD000000000000
5FFC000000000000
5FFC000000000000
5FFC000000000000
4FFD000000000000
3FFE000000012210
0FFF2000000BFF40
0BFF7000001EFF10
05FFF50001AFFB00
00BFFFDABEFFE200
001BFFFFFFFD3000
00004ADFEC710000
ENDCHAR
STARTCHAR Dcaron
ENCODING 270
SWIDTH 570 0
DWIDTH 21 0
BBX 17 33 2 0
BITMAP
002EFA000CFC100000
0004FF508FE2000000
00008FE6FF40000000
00000BFFF700000000
000001DFA000000000
000000000000000000
000000000000000000
4FFFFFFEDA60000000
4FFFFFFFFFFD500000
4FFFCCCDEFFFF60000
4FFF000004CFFF4000
4FFF0000000AFFD000
4FFF00000001EFF500
4FFF000000008FFB00
4FFF000000003FFE00
4FFF000000001FFF20
4FFF000000000EFF30
4FFF000000000DFF40
4FFF000000000DFF40
4FFF000000000DFF40
4FFF000000000DFF40
4FFF000000000DFF40
4FFF000000000DFF40
4FFF000000000EFF30
4FFF000000001FFF20
4FFF000000004FFE00
4FFF000000008FFB00
4FFF00000001EFF500
4FFF0000000BFFD000
4FFF000004CFFF4000
4FFFCCCDEFFFF60000
4FFFFFFFFFFD400000
4FFFFFFED950000000
ENDCHAR
STARTCHAR dcaron
ENCODING 271
SWIDTH 569 0
DWIDTH 21 0
BBX 20 27 1 0
BITMAP
00000000000BFF60BFF4
00000000000BFF60BFF3
00000000000BFF60CFF2
00000000000BFF60EFE0
00000000000BFF64FF90
00000000000BFF6AFF20
00000000000BFF61A600
00000000000BFF600000
00017CEEC60BFF600000
002DFFFFFFABFF600000
00CFFFECDFFFFF600000
06FFF70003CFFF600000
0CFF9000001EFF600000
0FFF3000000BFF600000
3FFE0000000BFF600000
4FFD0000000BFF600000
5FFC0000000BFF600000
5FFC0000000BFF600000
5FFC0000000BFF600000
4FFC0000000BFF600000
3FFE0000000BFF600000
0FFF2000000BFF600000
0BFF9000001EFF600000
05FFF60002CFFF600000
00CFFFECDFFEFF600000
001DFFFFFFA9FF600000
00007CEEC607FF600000
ENDCHAR
STARTCHAR Dcroat
ENCODING 272
SWIDTH 585 0
DWIDTH 21 0
BBX 19 26 0 0
BITMAP
000BFFFFFFEC83000000
000BFFFFFFFFFFA10000
000BFFDCCCDFFFFD2000
000BFF8000017EFFC000
000BFF80000003EFF700
000BFF800000007FFD00
000BFF800000001EFF40
000BFF800000000BFF70
000BFF8000000008FFA0
000BFF8000000006FFB0
000BFF8000000006FFC0
AFFFFFFFFD000005FFC0
AFFFFFFFFD000005FFC0
7AAEFFCAA8000005FFC0
000BFF8000000005FFC0
000BFF8000000006FFC0
000BFF8000000006FFB0
000BFF8000000008FFA0
000BFF800000000BFF70
000BFF800000001FFF40
000BFF800000007FFD00
000BFF80000004FFF700
000BFF8000028FFFC000
000BFFDCCCDFFFFD2000
000BFFFFFFFFFF910000
000BFFFFFEDB72000000
ENDCHAR
STARTCHAR dcroat
ENCODING 273
SWIDTH 529 0
DWIDTH 19 0
BBX 18 27 1 0
BITMAP
00000000000BFF6000
00000000000BFF6000
00000000000BFF6000
00000004FFFFFFFFF4
00000004FFFFFFFFF4
00000003AAAEFFCAA2
00000000000BFF6000
00000000000BFF6000
00005BEEC70BFF6000
0009FFFFFFCCFF6000
007FFFFCDFFFFF6000
02FFFB1003DFFF6000
08FFD100002FFF6000
0DFF6000000BFF6000
1FFF2000000BFF6000
3FFE0000000BFF6000
4FFC0000000BFF6000
5FFC0000000BFF6000
4FFC0000000BFF6000
3FFE0000000BFF6000
1FFF1000000BFF6000
0CFF6000000BFF6000
07FFD000002FFF6000
01EFFA1003DFFF6000
006FFFFCDFFFFF6000
0008FFFFFFEBFF6000
00005BEED817FF6000
ENDCHAR
STARTCHAR Emacron
ENCODING 274
SWIDTH 496 0
DWIDTH 18 0
BBX 15 31 2 0
BITMAP
0048888888885000
008FFFFFFFFFA000
008FFFFFFFFFA000
0000000000000000
0000000000000000
4FFFFFFFFFFFFF50
4FFFFFFFFFFFFF50
4FFFCCCCCCCCCC40
4FFF000000000000
4FFF000000000000
4FFF000000000000
4FFF000000000000
4FFF000000000000
4FFF000000000000
4FFF000000000000
4FFF000000000000
4FFFFFFFFFFFF000
4FFFFFFFFFFFF000
4FFFCCCCCCCCC000
4FFF000000000000
4FFF000000000000
4FFF000000000000
4FFF000000000000
4FFF000000000000
4FFF000000000000
4FFF000000000000
4FFF000000000000
4FFF000000000000
4FFFCCCCCCCCCC60
4FFFFFFFFFFFFF80
4FFFFFFFFFFFFF80
ENDCHAR
STARTCHAR emacron
ENCODING 275
SWIDTH 468 0
DWIDTH 17 0
BBX 15 25 1 0
BITMAP
0038888888887000
005FFFFFFFFFD000
005FFFFFFFFFD000
0000000000000000
0000000000000000
0000000000000000
000039DFEC810000
0008FFFFFFFE3000
007FFFDBBFFFE100
02FFF60002DFF800
09FF9000004FFE00
0DFF3000000EFF20
1FFF0000000BFF50
3FFE0000000AFF60
4FFFFFFFFFFFFF70
4FFFFFFFFFFFFF70
4FFEAAAAAAAAAA50
3FFD000000000000
2FFE000000000000
0EFF200000000000
0BFF900000005000
04FFF7000019FA00
00AFFFEBACFFFE10
001AFFFFFFFFC300
000049DEFDA60000
ENDCHAR
STARTCHAR Ebreve
ENCODING 276
SWIDTH 496 0
DWIDTH 18 0
BBX 15 33 2 0
BITMAP
0011100000111000
00BFE00000EFB000
008FF40004FF8000
002FFD525DFF2000
0006FFFFFFF60000
00003AEFEA300000
0000000000000000
4FFFFFFFFFFFFF50
4FFFFFFFFFFFFF50
4FFFCCCCCCCCCC40
4FFF000000000000
4FFF000000000000
4FFF000000000000
4FFF000000000000
4FFF000000000000
4FFF000000000000
4FFF000000000000
4FFF000000000000
4FFFFFFFFFFFF000
4FFFFFFFFFFFF000
4FFFCCCCCCCCC000
4FFF000000000000
4FFF000000000000
4FFF000000000000
4FFF000000000000
4FFF000000000000
4FFF000000000000
4FFF000000000000
4FFF000000000000
4FFF000000000000
4FFFCCCCCCCCCC60
4FFFFFFFFFFFFF80
4FFFFFFFFFFFFF80
ENDCHAR
STARTCHAR ebreve
ENCODING 277
SWIDTH 468 0
DWIDTH 17 0
BBX 15 27 1 0
BITMAP
0011100000111000
008FF20000CFE000
005FF60001EFB000
001DFE624CFF5000
0003EFFFFFF80000
000029DFEB500000
0000000000000000
0000000000000000
000039DFEC810000
0008FFFFFFFE3000
007FFFDBBFFFE100
02FFF60002DFF800
09FF9000004FFE00
0DFF3000000EFF20
1FFF0000000BFF50
3FFE0000000AFF60
4FFFFFFFFFFFFF70
4FFFFFFFFFFFFF70
4FFEAAAAAAAAAA50
3FFD000000000000
2FFE000000000000
0EFF200000000000
0BFF900000005000
04FFF7000019FA00
00AFFFEBACFFFE10
001AFFFFFFFFC300
000049DEFDA60000
ENDCHAR
STARTCHAR Edotaccent
ENCODING 278
SWIDTH 496 0
DWIDTH 18 0
BBX 15 32 2 0
BITMAP
0000007A70000000
000004FFF4000000
000005FFF5000000
000001BEB1000000
0000000000000000
0000000000000000
4FFFFFFFFFFFFF50
4FFFFFFFFFFFFF50
4FFFCCCCCCCCCC40
4FFF000000000000
4FFF000000000000
4FFF000000000000
4FFF000000000000
4FFF000000000000
4FFF000000000000
4FFF000000000000
4FFF000000000000
4FFFFFFFFFFFF000
4FFFFFFFFFFFF000
4FFFCCCCCCCCC000
4FFF000000000000
4FFF000000000000
4FFF000000000000
4FFF000000000000
4FFF000000000000
4FFF000000000000
4FFF000000000000
4FFF000000000000
4FFF000000000000
4FFFCCCCCCCCCC60
4FFFFFFFFFFFFF80
4FFFFFFFFFFFFF80
ENDCHAR
STARTCHAR edotaccent
ENCODING 279
SWIDTH 468 0
DWIDTH 17 0
BBX 15 26 1 0
BITMAP
0000005A81000000
000001FFF7000000
000002FFF8000000
0000009EC2000000
0000000000000000
0000000000000000
0000000000000000
000039DFEC810000
0008FFFFFFFE3000
007FFFDBBFFFE100
02FFF60002DFF800
09FF9000004FFE00
0DFF3000000EFF20
1FFF0000000BFF50
3FFE0000000AFF60
4FFFFFFFFFFFFF70
4FFFFFFFFFFFFF70
4FFEAAAAAAAAAA50
3FFD000000000000
2FFE000000000000
0EFF200000000000
0BFF900000005000
04FFF7000019FA00
00AFFFEBACFFFE10
001AFFFFFFFFC300
000049DEFDA60000
ENDCHAR
STARTCHAR Eogonek
ENCODING 280
SWIDTH 496 0
DWIDTH 18 0
BBX 15 33 2 -7
BITMAP
4FFFFFFFFFFFFF50
4FFFFFFFFFFFFF50
4FFFCCCCCCCCCC40
4FFF000000000000
4FFF000000000000
4FFF000000000000
4FFF000000000000
4FFF000000000000
4FFF000000000000
4FFF000000000000
4FFF000000000000
4FFFFFFFFFFFF000
4FFFFFFFFFFFF000
4FFFCCCCCCCCC000
4FFF000000000000
4FFF000000000000
4FFF000000000000
4FFF000000000000
4FFF000000000000
4FFF000000000000
4FFF000000000000
4FFF000000000000
4FFF000000000000
4FFFCCCCCCCCCC60
4FFFFFFFFFFFFF80
4FFFFFFFFFFFFF80
0000000002DFC100
000000001DFC1000
000000007FF30000
00000000AFF00000
00000000AFF98600
000000005FFFF900
0000000007DEC400
ENDCHAR
STARTCHAR eogonek
ENCODING 281
SWIDTH 468 0
DWIDTH 17 0
BBX 15 26 1 -7
BITMAP
000039DFEC810000
0008FFFFFFFE3000
007FFFDBBFFFE100
02FFF60002DFF800
09FF9000004FFE00
0DFF3000000EFF20
1FFF0000000BFF50
3FFE0000000AFF60
4FFFFFFFFFFFFF70
4FFFFFFFFFFFFF70
4FFEAAAAAAAAAA50
3FFD000000000000
2FFE000000000000
0EFF200000000000
0BFF900000005000
04FFF7000019FA00
00AFFFEBACFFFE10
000AFFFFFFFFD300
00004ADFFFD60000
0000000CFE200000
0000006FF5000000
000000BFE0000000
000000DFD0000000
000000BFF8850000
0000006FFFF70000
00000007DEB30000
ENDCHAR
STARTCHAR Ecaron
ENCODING 282
SWIDTH 496 0
DWIDTH 18 0
BBX 15 33 2 0
BITMAP
001DFB000BFD1000
0003FF707FF30000
00006FF5FF600000
000009FFF9000000
000000CFC0000000
0000000000000000
0000000000000000
4FFFFFFFFFFFFF50
4FFFFFFFFFFFFF50
4FFFCCCCCCCCCC40
4FFF000000000000
4FFF000000000000
4FFF000000000000
4FFF000000000000
4FFF000000000000
4FFF000000000000
4FFF000000000000
4FFF000000000000
4FFFFFFFFFFFF000
4FFFFFFFFFFFF000
4FFFCCCCCCCCC000
4FFF000000000000
4FFF000000000000
4FFF000000000000
4FFF000000000000
4FFF000000000000
4FFF000000000000
4FFF000000000000
4FFF000000000000
4FFF000000000000
4FFFCCCCCCCCCC60
4FFFFFFFFFFFFF80
4FFFFFFFFFFFFF80
ENDCHAR
STARTCHAR ecaron
ENCODING 283
SWIDTH 468 0
DWIDTH 17 0
BBX 15 27 1 0
BITMAP
000BFD1009FF3000
0001EFA04FF60000
00003FF6DF900000
000006FFFB000000
000000AFD1000000
0000000000000000
0000000000000000
0000000000000000
000039DFEC810000
0008FFFFFFFE3000
007FFFDBBFFFE100
02FFF60002DFF800
09FF9000004FFE00
0DFF3000000EFF20
1FFF0000000BFF50
3FFE0000000AFF60
4FFFFFFFFFFFFF70
4FFFFFFFFFFFFF70
4FFEAAAAAAAAAA50
3FFD000000000000
2FFE000000000000
0EFF200000000000
0BFF900000005000
04FFF7000019FA00
00AFFFEBACFFFE10
001AFFFFFFFFC300
000049DEFDA60000
ENDCHAR
STARTCHAR Gcircumflex
ENCODING 284
SWIDTH 590 0
DWIDTH 21 0
BBX 17 33 2 0
BITMAP
0000003EF800000000
000002EFFF50000000
00001CFC7FF4000000
0000BFE20BFE200000
0003AD6002DB600000
000000000000000000
000000000000000000
000017BDFED9400000
0006EFFFFFFFFB1000
007FFFFECDFFFFC100
03FFFC300018FFF900
0BFFC10000008FFF10
2FFF400000001EFF60
6FFD000000000AFF90
8FFA0000000006DD90
AFF800000000000000
BFF700000000000000
CFF600000000000000
CFF600000000000000
CFF600000000000000
CFF600002FFFFFFFC0
CFF600002FFFFFFFC0
CFF600001BBBBDFFC0
BFF70000000007FFC0
AFF90000000007FFC0
8FFB0000000007FFC0
4FFF1000000007FFC0
1EFF7000000007FFC0
08FFE300000008FFC0
01DFFE6000029FFFA0
003EFFFECCDFFFFC10
0003CFFFFFFFFF9100
000005ADEFDB720000
ENDCHAR
STARTCHAR gcircumflex
ENCODING 285
SWIDTH 492 0
DWIDTH 18 0
BBX 15 34 1 -7
BITMAP
000001CFC1000000
00000AFFFA000000
00008FF5FF800000
0006FF706FF60000
0009CB000BC90000
0000000000000000
0000000000000000
0000000000000000
00017CEEC606FF70
002DFFFFFFA7FF70
00DFFFECDFFEFF70
06FFF70003CFFF70
0BFF9000001EFF70
0FFF3000000AFF70
2FFF0000000AFF70
4FFD0000000AFF70
4FFC0000000AFF70
4FFC0000000AFF70
4FFC0000000AFF70
4FFD0000000AFF70
2FFF0000000AFF70
0EFF3000000AFF70
0BFF9000001EFF70
05FFF70002CFFF70
00CFFFECDFFFFF70
002DFFFFFFBAFF70
00017CEEC60AFF70
00000000000AFF60
00000000000DFF40
00120000003FFF10
008E600002DFFB00
01EFFEBACFFFE300
004DFFFFFFFE4000
00005ADFEC710000
ENDCHAR
STARTCHAR Gbreve
ENCODING 286
SWIDTH 590 0
DWIDTH 21 0
BBX 17 33 2 0
BITMAP
000111000001110000
000FFA00004FF60000
000DFD00008FF30000
0006FFB327FFC00000
0000AFFFFFFE200000
000006BEFD81000000
000000000000000000
000017BDFED9400000
0006EFFFFFFFFB1000
007FFFFECDFFFFC100
03FFFC300018FFF900
0BFFC10000008FFF10
2FFF400000001EFF60
6FFD000000000AFF90
8FFA0000000006DD90
AFF800000000000000
BFF700000000000000
CFF600000000000000
CFF600000000000000
CFF600000000000000
CFF600002FFFFFFFC0
CFF600002FFFFFFFC0
CFF600001BBBBDFFC0
BFF70000000007FFC0
AFF90000000007FFC0
8FFB0000000007FFC0
4FFF1000000007FFC0
1EFF7000000007FFC0
08FFE300000008FFC0
01DFFE6000029FFFA0
003EFFFECCDFFFFC10
0003CFFFFFFFFF9100
000005ADEFDB720000
ENDCHAR
STARTCHAR gbreve
ENCODING 287
SWIDTH 492 0
DWIDTH 18 0
BBX 15 34 1 -7
BITMAP
0011100000111000
00AFF00000EFB000
008FF40003FF8000
002FFD524DFF3000
0005FFFFFFF60000
00003AEFEA300000
0000000000000000
0000000000000000
00017CEEC606FF70
002DFFFFFFA7FF70
00DFFFECDFFEFF70
06FFF70003CFFF70
0BFF9000001EFF70
0FFF3000000AFF70
2FFF0000000AFF70
4FFD0000000AFF70
4FFC0000000AFF70
4FFC0000000AFF70
4FFC0000000AFF70
4FFD0000000AFF70
2FFF0000000AFF70
0EFF3000000AFF70
0BFF9000001EFF70
05FFF70002CFFF70
00CFFFECDFFFFF70
002DFFFFFFBAFF70
00017CEEC60AFF70
00000000000AFF60
00000000000DFF40
00120000003FFF10
008E600002DFFB00
01EFFEBACFFFE300
004DFFFFFFFE4000
00005ADFEC710000
ENDCHAR
STARTCHAR Gdotaccent
ENCODING 288
SWIDTH 590 0
DWIDTH 21 0
BBX 17 32 2 0
BITMAP
00000019A400000000
0000009FFE00000000
000000AFFF10000000
0000003DE700000000
000000000000000000
000000000000000000
000017BDFED9400000
0006EFFFFFFFFB1000
007FFFFECDFFFFC100
03FFFC300018FFF900
0BFFC10000008FFF10
2FFF400000001EFF60
6FFD000000000AFF90
8FFA0000000006DD90
AFF800000000000000
BFF700000000000000
CFF600000000000000
CFF600000000000000
CFF600000000000000
CFF600002FFFFFFFC0
CFF600002FFFFFFFC0
CFF600001BBBBDFFC0
BFF70000000007FFC0
AFF90000000007FFC0
8FFB0000000007FFC0
4FFF1000000007FFC0
1EFF7000000007FFC0
08FFE300000008FFC0
01DFFE6000029FFFA0
003EFFFECCDFFFFC10
0003CFFFFFFFFF9100
000005ADEFDB720000
ENDCHAR
STARTCHAR gdotaccent
ENCODING 289
SWIDTH 492 0
DWIDTH 18 0
BBX 15 33 1 -7
BITMAP
0000007A70000000
000004FFF5000000
000005FFF6000000
000000BEB1000000
0000000000000000
0000000000000000
0000000000000000
00017CEEC606FF70
002DFFFFFFA7FF70
00DFFFECDFFEFF70
06FFF70003CFFF70
0BFF9000001EFF70
0FFF3000000AFF70
2FFF0000000AFF70
4FFD0000000AFF70
4FFC0000000AFF70
4FFC0000000AFF70
4FFC0000000AFF70
4FFD0000000AFF70
2FFF0000000AFF70
0EFF3000000AFF70
0BFF9000001EFF70
05FFF70002CFFF70
00CFFFECDFFFFF70
002DFFFFFFBAFF70
00017CEEC60AFF70
00000000000AFF60
00000000000DFF40
00120000003FFF10
008E600002DFFB00
01EFFEBACFFFE300
004DFFFFFFFE4000
00005ADFEC710000
ENDCHAR
STARTCHAR uni0122
ENCODING 290
SWIDTH 590 0
DWIDTH 21 0
BBX 17 35 2 -9
BITMAP
000017BDFED9400000
0006EFFFFFFFFB1000
007FFFFECDFFFFC100
03FFFC300018FFF900
0BFFC10000008FFF10
2FFF400000001EFF60
6FFD000000000AFF90
8FFA0000000006DD90
AFF800000000000000
BFF700000000000000
CFF600000000000000
CFF600000000000000
CFF600000000000000
CFF600002FFFFFFFC0
CFF600002FFFFFFFC0
CFF600001BBBBDFFC0
BFF70000000007FFC0
AFF90000000007FFC0
8FFB0000000007FFC0
4FFF1000000007FFC0
1EFF7000000007FFC0
08FFE300000008FFC0
01DFFE6000029FFFA0
003EFFFECCDFFFFC10
0003CFFFFFFFFF9100
000005ADEFDB720000
000000000000000000
000000000000000000
00000006FF90000000
00000006FF80000000
00000007FF70000000
00000009FF40000000
0000000EFE00000000
0000005FF600000000
00000007A000000000
ENDCHAR
STARTCHAR uni0123
ENCODING 291
SWIDTH 492 0
DWIDTH 18 0
BBX 15 37 1 -7
BITMAP
00000004A1000000
0000000DFB000000
0000006FF9000000
000000BFF4000000
000000FFF1000000
000002FFF0000000
000002FFF0000000
000002FFF0000000
0000000000000000
0000000000000000
0000000000000000
00017CEEC606FF70
002DFFFFFFA7FF70
00DFFFECDFFEFF70
06FFF70003CFFF70
0BFF9000001EFF70
0FFF3000000AFF70
2FFF0000000AFF70
4FFD0000000AFF70
4FFC0000000AFF70
4FFC0000000AFF70
4FFC0000000AFF70
4FFD0000000AFF70
2FFF0000000AFF70
0EFF3000000AFF70
0BFF9000001EFF70
05FFF70002CFFF70
00CFFFECDFFFFF70
002DFFFFFFBAFF70
00017CEEC60AFF70
00000000000AFF60
00000000000DFF40
00120000003FFF10
008E600002DFFB00
01EFFEBACFFFE300
004DFFFFFFFE4000
00005ADFEC710000
ENDCHAR
STARTCHAR Hcircumflex
ENCODING 292
SWIDTH 620 0
DWIDTH 22 0
BBX 18 33 2 0
BITMAP
00000008FF30000000
0000005FFFE2000000
000004FF8CFC100000
00002EFC02EFB00000
00006BD2006DA30000
000000000000000000
000000000000000000
4FFF0000000000BFF8
4FFF0000000000BFF8
4FFF0000000000BFF8
4FFF0000000000BFF8
4FFF0000000000BFF8
4FFF0000000000BFF8
4FFF0000000000BFF8
4FFF0000000000BFF8
4FFF0000000000BFF8
4FFF0000000000BFF8
4FFF0000000000BFF8
4FFFFFFFFFFFFFFFF8
4FFFFFFFFFFFFFFFF8
4FFFCCCCCCCCCCEFF8
4FFF0000000000BFF8
4FFF0000000000BFF8
4FFF0000000000BFF8
4FFF0000000000BFF8
4FFF0000000000BFF8
4FFF0000000000BFF8
4FFF0000000000BFF8
4FFF0000000000BFF8
4FFF0000000000BFF8
4FFF0000000000BFF8
4FFF0000000000BFF8
4FFF0000000000BFF8
ENDCHAR
STARTCHAR hcircumflex
ENCODING 293
SWIDTH 482 0
DWIDTH 17 0
BBX 14 33 2 0
BITMAP
00008FE3000000
0006FFFD100000
004FF7CFC10000
02EFB03FFA0000
06BD2007DA3000
00000000000000
AFF70000000000
AFF70000000000
AFF70000000000
AFF70000000000
AFF70000000000
AFF70000000000
AFF70000000000
AFF70000000000
AFF706CEEC6000
AFF7BFFFFFF900
AFFFFFDDFFFF40
AFFFD3003DFFA0
AFFE200005FFD0
AFF8000002FFF0
AFF7000000FFF1
AFF7000000FFF1
AFF7000000FFF1
AFF7000000FFF1
AFF7000000FFF1
AFF7000000FFF1
AFF7000000FFF1
AFF7000000FFF1
AFF7000000FFF1
AFF7000000FFF1
AFF7000000FFF1
AFF7000000FFF1
AFF7000000FFF1
ENDCHAR
STARTCHAR Hbar
ENCODING 294
SWIDTH 611 0
DWIDTH 22 0
BBX 22 26 0 0
BITMAP
003FFF0000000000BFF800
003FFF0000000000BFF800
003FFF0000000000BFF800
003FFF0000000000BFF800
003FFF0000000000BFF800
3FFFFFFFFFFFFFFFFFFFF7
3FFFFFFFFFFFFFFFFFFFF7
189FFF8888888888DFFB83
003FFF0000000000BFF800
003FFF0000000000BFF800
003FFF0000000000BFF800
003FFFFFFFFFFFFFFFF800
003FFFFFFFFFFFFFFFF800
003FFFCCCCCCCCCCEFF800
003FFF0000000000BFF800
003FFF0000000000BFF800
003FFF0000000000BFF800
003FFF0000000000BFF800
003FFF0000000000BFF800
003FFF0000000000BFF800
003FFF0000000000BFF800
003FFF0000000000BFF800
003FFF0000000000BFF800
003FFF0000000000BFF800
003FFF0000000000BFF800
003FFF0000000000BFF800
ENDCHAR
STARTCHAR hbar
ENCODING 295
SWIDTH 497 0
DWIDTH 18 0
BBX 17 27 -1 0
BITMAP
0002FFE00000000000
0002FFE00000000000
0002FFE00000000000
4FFFFFFFFF40000000
4FFFFFFFFF40000000
3AABFFFAAA30000000
0002FFE00000000000
0002FFE00000000000
0002FFE029DFEA2000
0002FFE5FFFFFFE300
0002FFFFFECEFFFC00
0002FFFF81008FFF30
0002FFF900000CFF60
0002FFF1000009FF80
0002FFE0000007FF90
0002FFE0000007FF90
0002FFE0000007FF90
0002FFE0000007FF90
0002FFE0000007FF90
0002FFE0000007FF90
0002FFE0000007FF90
0002FFE0000007FF90
0002FFE0000007FF90
0002FFE0000007FF90
0002FFE0000007FF90
0002FFE0000007FF90
0002FFE0000007FF90
ENDCHAR
STARTCHAR Itilde
ENCODING 296
SWIDTH 250 0
DWIDTH 9 0
BBX 11 33 -1 0
BITMAP
005720003B70
0AFFF6007FA0
4FFFFFB8FF70
9FB14EFFFE10
AE4002BEC300
000000000000
000000000000
0001FFF20000
0001FFF20000
0001FFF20000
0001FFF20000
0001FFF20000
0001FFF20000
0001FFF20000
0001FFF20000
0001FFF20000
0001FFF20000
0001FFF20000
0001FFF20000
0001FFF20000
0001FFF20000
0001FFF20000
0001FFF20000
0001FFF20000
0001FFF20000
0001FFF20000
0001FFF20000
0001FFF20000
0001FFF20000
0001FFF20000
0001FFF20000
0001FFF20000
0001FFF20000
ENDCHAR
STARTCHAR itilde
ENCODING 297
SWIDTH 234 0
DWIDTH 8 0
BBX 11 27 -1 0
BITMAP
016610006A40
1DFFE300CF60
8FFFFFAAFF30
EF717FFFFA00
EE0004DEA100
000000000000
000000000000
000000000000
0007FFA00000
0007FFA00000
0007FFA00000
0007FFA00000
0007FFA00000
0007FFA00000
0007FFA00000
0007FFA00000
0007FFA00000
0007FFA00000
0007FFA00000
0007FFA00000
0007FFA00000
0007FFA00000
0007FFA00000
0007FFA00000
0007FFA00000
0007FFA00000
0007FFA00000
ENDCHAR
STARTCHAR Imacron
ENCODING 298
SWIDTH 250 0
DWIDTH 9 0
BBX 11 31 -1 0
BITMAP
488888888850
8FFFFFFFFFA0
8FFFFFFFFFA0
000000000000
000000000000
0001FFF20000
0001FFF20000
0001FFF20000
0001FFF20000
0001FFF20000
0001FFF20000
0001FFF20000
0001FFF20000
0001FFF20000
0001FFF20000
0001FFF20000
0001FFF20000
0001FFF20000
0001FFF20000
0001FFF20000
0001FFF20000
0001FFF20000
0001FFF20000
0001FFF20000
0001FFF20000
0001FFF20000
0001FFF20000
0001FFF20000
0001FFF20000
0001FFF20000
0001FFF20000
ENDCHAR
STARTCHAR imacron
ENCODING 299
SWIDTH 234 0
DWIDTH 8 0
BBX 11 25 -1 0
BITMAP
688888888830
CFFFFFFFFF60
CFFFFFFFFF60
000000000000
000000000000
000000000000
0007FFA00000
0007FFA00000
0007FFA00000
0007FFA00000
0007FFA00000
0007FFA00000
0007FFA00000
0007FFA00000
0007FFA00000
0007FFA00000
0007FFA00000
0007FFA00000
0007FFA00000
0007FFA00000
0007FFA00000
0007FFA00000
0007FFA00000
0007FFA00000
0007FFA00000
ENDCHAR
STARTCHAR Ibreve
ENCODING 300
SWIDTH 250 0
DWIDTH 9 0
BBX 11 33 -1 0
BITMAP
111000001110
BFE00000EFB0
8FF40004FF80
2FFD525DFF20
06FFFFFFF600
003AEFEA3000
000000000000
0001FFF20000
0001FFF20000
0001FFF20000
0001FFF20000
0001FFF20000
0001FFF20000
0001FFF20000
0001FFF20000
0001FFF20000
0001FFF20000
0001FFF20000
0001FFF20000
0001FFF20000
0001FFF20000
0001FFF20000
0001FFF20000
0001FFF20000
0001FFF20000
0001FFF20000
0001FFF20000
0001FFF20000
0001FFF20000
0001FFF20000
0001FFF20000
0001FFF20000
0001FFF20000
ENDCHAR
STARTCHAR ibreve
ENCODING 301
SWIDTH 234 0
DWIDTH 8 0
BBX 11 27 -1 0
BITMAP
111000001110
FFA00004FF60
CFE10008FF40
6FFB327FFD00
09FFFFFFE300
005BEFD91000
000000000000
000000000000
0007FFA00000
0007FFA00000
0007FFA00000
0007FFA00000
0007FFA00000
0007FFA00000
0007FFA00000
0007FFA00000
0007FFA00000
0007FFA00000
0007FFA00000
0007FFA00000
0007FFA00000
0007FFA00000
0007FFA00000
0007FFA00000
0007FFA00000
0007FFA00000
0007FFA00000
ENDCHAR
STARTCHAR Iogonek
ENCODING 302
SWIDTH 250 0
DWIDTH 9 0
BBX 7 33 0 -7
BITMAP
001FFF20
001FFF20
001FFF20
001FFF20
001FFF20
001FFF20
001FFF20
001FFF20
001FFF20
001FFF20
001FFF20
001FFF20
001FFF20
001FFF20
001FFF20
001FFF20
001FFF20
001FFF20
001FFF20
001FFF20
001FFF20
001FFF20
001FFF20
001FFF20
001FFF20
001FFF20
00AFE300
09FE3000
2FF80000
5FF50000
4FFC7A00
1EFFFF00
03CED800
ENDCHAR
STARTCHAR iogonek
ENCODING 303
SWIDTH 229 0
DWIDTH 8 0
BBX 6 33 0 -7
BITMAP
0019A3
007FFC
008FFD
002DE6
000000
000000
000000
007FFA
007FFA
007FFA
007FFA
007FFA
007FFA
007FFA
007FFA
007FFA
007FFA
007FFA
007FFA
007FFA
007FFA
007FFA
007FFA
007FFA
007FFA
007FFC
02DFB1
1DFB00
7FF300
AFF000
9FF987
5FFFFA
07DEC4
ENDCHAR
STARTCHAR Idotaccent
ENCODING 304
SWIDTH 250 0
DWIDTH 9 0
BBX 5 32 2 0
BITMAP
07A700
4FFF40
5FFF50
1BEB10
000000
000000
1FFF20
1FFF20
1FFF20
1FFF20
1FFF20
1FFF20
1FFF20
1FFF20
1FFF20
1FFF20
1FFF20
1FFF20
1FFF20
1FFF20
1FFF20
1FFF20
1FFF20
1FFF20
1FFF20
1FFF20
1FFF20
1FFF20
1FFF20
1FFF20
1FFF20
1FFF20
ENDCHAR
STARTCHAR dotlessi
ENCODING 305
SWIDTH 234 0
DWIDTH 8 0
BBX 4 19 2 0
BITMAP
7FFA
7FFA
7FFA
7FFA
7FFA
7FFA
7FFA
7FFA
7FFA
7FFA
7FFA
7FFA
7FFA
7FFA
7FFA
7FFA
7FFA
7FFA
7FFA
ENDCHAR
STARTCHAR IJ
ENCODING 306
SWIDTH 733 0
DWIDTH 26 0
BBX 22 26 2 0
BITMAP
1FFF200000000000006FFC
1FFF200000000000006FFC
1FFF200000000000006FFC
1FFF200000000000006FFC
1FFF200000000000006FFC
1FFF200000000000006FFC
1FFF200000000000006FFC
1FFF200000000000006FFC
1FFF200000000000006FFC
1FFF200000000000006FFC
1FFF200000000000006FFC
1FFF200000000000006FFC
1FFF200000000000006FFC
1FFF200000000000006FFC
1FFF200000000000006FFC
1FFF200000000000006FFC
1FFF200000000000006FFC
1FFF200000000000006FFC
1FFF200066620000007FFC
1FFF2000EFF50000008FFB
1FFF2000CFF8000000BFF8
1FFF20008FFE100003FFF4
1FFF20002FFFA1003DFFD0
1FFF200008FFFFCDFFFF40
1FFF2000009FFFFFFFE500
1FFF20000004ADFEC82000
ENDCHAR
STARTCHAR ij
ENCODING 307
SWIDTH 452 0
DWIDTH 16 0
BBX 12 33 2 -7
BITMAP
19A3000019A2
7FFC00007FFB
8FFD00009FFC
2DE600003DE5
000000000000
000000000000
000000000000
7FFA00005FFB
7FFA00005FFB
7FFA00005FFB
7FFA00005FFB
7FFA00005FFB
7FFA00005FFB
7FFA00005FFB
7FFA00005FFB
7FFA00005FFB
7FFA00005FFB
7FFA00005FFB
7FFA00005FFB
7FFA00005FFB
7FFA00005FFB
7FFA00005FFB
7FFA00005FFB
7FFA00005FFB
7FFA00005FFB
7FFA00005FFB
000000005FFB
000000005FFB
000000007FFB
00000000BFF9
000002DDFFF5
000002FFFFC0
000002DFE910
ENDCHAR
STARTCHAR Jcircumflex
ENCODING 308
SWIDTH 483 0
DWIDTH 17 0
BBX 17 33 1 0
BITMAP
00000000009FE30000
0000000006FFFD1000
000000004FF7DFC100
00000003EFB03FFA00
00000006CD1007DA20
000000000000000000
000000000000000000
00000000006FFC0000
00000000006FFC0000
00000000006FFC0000
00000000006FFC0000
00000000006FFC0000
00000000006FFC0000
00000000006FFC0000
00000000006FFC0000
00000000006FFC0000
00000000006FFC0000
00000000006FFC0000
00000000006FFC0000
00000000006FFC0000
00000000006FFC0000
00000000006FFC0000
00000000006FFC0000
00000000006FFC0000
00000000006FFC0000
66620000007FFC0000
EFF50000008FFB0000
CFF8000000BFF80000
8FFE100003FFF40000
2FFFA1003DFFD00000
08FFFFCDFFFF400000
009FFFFFFFE5000000
0004ADFEC820000000
ENDCHAR
STARTCHAR jcircumflex
ENCODING 309
SWIDTH 237 0
DWIDTH 9 0
BBX 10 34 -1 -7
BITMAP
0001DFB000
000BFFF900
009FE5FF70
07FF608FF5
19DA000CC9
0000000000
0000000000
0000000000
0002FFE000
0002FFE000
0002FFE000
0002FFE000
0002FFE000
0002FFE000
0002FFE000
0002FFE000
0002FFE000
0002FFE000
0002FFE000
0002FFE000
0002FFE000
0002FFE000
0002FFE000
0002FFE000
0002FFE000
0002FFE000
0002FFE000
0002FFE000
0003FFE000
0005FFD000
000BFFA000
5BCFFF4000
7FFFF90000
6EEC600000
ENDCHAR
STARTCHAR uni0136
ENCODING 310
SWIDTH 544 0
DWIDTH 20 0
BBX 18 34 2 -8
BITMAP
4FFF000000006FFF70
4FFF00000002EFFB00
4FFF0000000CFFE200
4FFF0000008FFF5000
4FFF000003FFF90000
4FFF00001DFFC00000
4FFF0000AFFE200000
4FFF0005FFF6000000
4FFF002EFFA0000000
4FFF00BFFD10000000
4FFF08FFF400000000
4FFF4FFFA000000000
4FFFDFFFF300000000
4FFFFFFFFC00000000
4FFFFE6FFF60000000
4FFFF409FFE1000000
4FFF7001EFFA000000
4FFF00007FFF400000
4FFF00000CFFD00000
4FFF000004FFF70000
4FFF000000AFFF2000
4FFF0000001EFFB000
4FFF00000007FFF500
4FFF00000000DFFE10
4FFF000000004FFF90
4FFF000000000AFFF3
000000000000000000
0000005FFA00000000
0000005FF900000000
0000006FF800000000
0000008FF500000000
000000DFE100000000
000004FF7000000000
0000006A0000000000
ENDCHAR
STARTCHAR uni0137
ENCODING 311
SWIDTH 450 0
DWIDTH 16 0
BBX 14 35 2 -8
BITMAP
AFF70000000000
AFF70000000000
AFF70000000000
AFF70000000000
AFF70000000000
AFF70000000000
AFF70000000000
AFF70000000000
AFF700001EFFB0
AFF70000BFFD10
AFF70007FFF300
AFF7003FFF6000
AFF701DFFA0000
AFF709FFD10000
AFF75FFE300000
AFF9EFF6000000
AFFFFFF6000000
AFFFFFFE100000
AFFFDCFF900000
AFFE23FFF40000
AFF7009FFD0000
AFF7001EFF7000
AFF70006FFF200
AFF70000CFFB00
AFF700003FFF50
AFF7000009FFE1
AFF7000001EFF9
00000000000000
00005FFA000000
00005FF9000000
00006FF8000000
00008FF5000000
0000DFE1000000
0004FF70000000
00006A00000000
ENDCHAR
STARTCHAR kgreenlandic
ENCODING 312
SWIDTH 491 0
DWIDTH 18 0
BBX 15 19 2 0
BITMAP
6FFB000001DFFB00
6FFB00000AFFE200
6FFB00005FFF4000
6FFB0002EFF80000
6FFB000BFFC00000
6FFB007FFE200000
6FFB03FFF6000000
6FFB0DFFA0000000
6FFFFFFD10000000
6FFFFFFB00000000
6FFEDFFF70000000
6FFB08FFF3000000
6FFB00CFFD100000
6FFB003FFF900000
6FFB0007FFF50000
6FFB0000BFFE2000
6FFB00002EFFB000
6FFB000006FFF700
6FFB000000AFFF30
ENDCHAR
STARTCHAR Lacute
ENCODING 313
SWIDTH 475 0
DWIDTH 17 0
BBX 14 33 2 0
BITMAP
0007FFF6000000
003FFF70000000
01DFF800000000
0BFF9000000000
2AD90000000000
00000000000000
00000000000000
4FFF0000000000
4FFF0000000000
4FFF0000000000
4FFF0000000000
4FFF0000000000
4FFF0000000000
4FFF0000000000
4FFF0000000000
4FFF0000000000
4FFF0000000000
4FFF0000000000
4FFF0000000000
4FFF0000000000
4FFF0000000000
4FFF0000000000
4FFF0000000000
4FFF0000000000
4FFF0000000000
4FFF0000000000
4FFF0000000000
4FFF0000000000
4FFF0000000000
4FFF0000000000
4FFFCCCCCCCCCC
4FFFFFFFFFFFFF
4FFFFFFFFFFFFF
ENDCHAR
STARTCHAR lacute
ENCODING 314
SWIDTH 229 0
DWIDTH 8 0
BBX 8 34 2 0
BITMAP
000AFFE4
006FFF40
03FFF500
1DFF6000
4BE60000
00000000
00000000
7FFA0000
7FFA0000
7FFA0000
7FFA0000
7FFA0000
7FFA0000
7FFA0000
7FFA0000
7FFA0000
7FFA0000
7FFA0000
7FFA0000
7FFA0000
7FFA0000
7FFA0000
7FFA0000
7FFA0000
7FFA0000
7FFA0000
7FFA0000
7FFA0000
7FFA0000
7FFA0000
7FFA0000
7FFA0000
7FFA0000
7FFA0000
ENDCHAR
STARTCHAR uni013B
ENCODING 315
SWIDTH 475 0
DWIDTH 17 0
BBX 14 35 2 -9
BITMAP
4FFF0000000000
4FFF0000000000
4FFF0000000000
4FFF0000000000
4FFF0000000000
4FFF0000000000
4FFF0000000000
4FFF0000000000
4FFF0000000000
4FFF0000000000
4FFF0000000000
4FFF0000000000
4FFF0000000000
4FFF0000000000
4FFF0000000000
4FFF0000000000
4FFF0000000000
4FFF0000000000
4FFF0000000000
4FFF0000000000
4FFF0000000000
4FFF0000000000
4FFF0000000000
4FFFCCCCCCCCCC
4FFFFFFFFFFFFF
4FFFFFFFFFFFFF
00000000000000
00000000000000
000000FFE00000
000000FFE00000
000001FFC00000
000004FF900000
000009FF400000
00000EFC000000
000003C2000000
ENDCHAR
STARTCHAR uni013C
ENCODING 316
SWIDTH 229 0
DWIDTH 8 0
BBX 5 36 1 -9
BITMAP
07FFA0
07FFA0
07FFA0
07FFA0
07FFA0
07FFA0
07FFA0
07FFA0
07FFA0
07FFA0
07FFA0
07FFA0
07FFA0
07FFA0
07FFA0
07FFA0
07FFA0
07FFA0
07FFA0
07FFA0
07FFA0
07FFA0
07FFA0
07FFA0
07FFA0
07FFA0
07FFA0
000000
000000
05FF90
05FF90
06FF70
09FF40
0DFE00
4FF700
06A000
ENDCHAR
STARTCHAR Lcaron
ENCODING 317
SWIDTH 475 0
DWIDTH 17 0
BBX 14 26 2 0
BITMAP
4FFF0003FFC000
4FFF0003FFB000
4FFF0004FFA000
4FFF0007FF7000
4FFF000BFF2000
4FFF002FF90000
4FFF0005B10000
4FFF0000000000
4FFF0000000000
4FFF0000000000
4FFF0000000000
4FFF0000000000
4FFF0000000000
4FFF0000000000
4FFF0000000000
4FFF0000000000
4FFF0000000000
4FFF0000000000
4FFF0000000000
4FFF0000000000
4FFF0000000000
4FFF0000000000
4FFF0000000000
4FFFCCCCCCCCCC
4FFFFFFFFFFFFF
4FFFFFFFFFFFFF
ENDCHAR
STARTCHAR lcaron
ENCODING 318
SWIDTH 302 0
DWIDTH 11 0
BBX 9 27 2 0
BITMAP
7FFA00FFE0
7FFA00FFE0
7FFA01FFD0
7FFA04FF90
7FFA08FF40
7FFA0EFC00
7FFA03C200
7FFA000000
7FFA000000
7FFA000000
7FFA000000
7FFA000000
7FFA000000
7FFA000000
7FFA000000
7FFA000000
7FFA000000
7FFA000000
7FFA000000
7FFA000000
7FFA000000
7FFA000000
7FFA000000
7FFA000000
7FFA000000
7FFA000000
7FFA000000
ENDCHAR
STARTCHAR Ldot
ENCODING 319
SWIDTH 475 0
DWIDTH 17 0
BBX 14 26 2 0
BITMAP
4FFF0000000000
4FFF0000000000
4FFF0000000000
4FFF0000000000
4FFF0000000000
4FFF0000000000
4FFF0000000000
4FFF0000000000
4FFF0000000000
4FFF0000000000
4FFF0003A91000
4FFF000EFFA000
4FFF000FFFB000
4FFF0007ED4000
4FFF0000000000
4FFF0000000000
4FFF0000000000
4FFF0000000000
4FFF0000000000
4FFF0000000000
4FFF0000000000
4FFF0000000000
4FFF0000000000
4FFFCCCCCCCCCC
4FFFFFFFFFFFFF
4FFFFFFFFFFFFF
ENDCHAR
STARTCHAR ldot
ENCODING 320
SWIDTH 336 0
DWIDTH 12 0
BBX 9 27 2 0
BITMAP
7FFA000000
7FFA000000
7FFA000000
7FFA000000
7FFA000000
7FFA000000
7FFA000000
7FFA000000
7FFA000000
7FFA000000
7FFA000000
7FFA029A30
7FFA0AFFD0
7FFA0BFFF0
7FFA04DE60
7FFA000000
7FFA000000
7FFA000000
7FFA000000
7FFA000000
7FFA000000
7FFA000000
7FFA000000
7FFA000000
7FFA000000
7FFA000000
7FFA000000
ENDCHAR
STARTCHAR Lslash
ENCODING 321
SWIDTH 475 0
DWIDTH 17 0
BBX 16 26 0 0
BITMAP
004FFF0000000000
004FFF0000000000
004FFF0000000000
004FFF0000000000
004FFF0000000000
004FFF0000000000
004FFF0000000000
004FFF0000000000
004FFF0000000000
004FFF0398000000
004FFFCFFA000000
006FFFFEA3000000
1EFFFF6100000000
1FEFFF0000000000
044FFF0000000000
004FFF0000000000
004FFF0000000000
004FFF0000000000
004FFF0000000000
004FFF0000000000
004FFF0000000000
004FFF0000000000
004FFF0000000000
004FFFCCCCCCCCCC
004FFFFFFFFFFFFF
004FFFFFFFFFFFFF
ENDCHAR
STARTCHAR lslash
ENCODING 322
SWIDTH 250 0
DWIDTH 9 0
BBX 9 27 0 0
BITMAP
003FFE0000
003FFE0000
003FFE0000
003FFE0000
003FFE0000
003FFE0000
003FFE0000
003FFE0000
003FFE0000
003FFE0000
003FFE0000
003FFE4B20
003FFFFF20
018FFFD700
1EFFFE0000
2FCFFE0000
123FFE0000
003FFE0000
003FFE0000
003FFE0000
003FFE0000
003FFE0000
003FFE0000
003FFE0000
003FFE0000
003FFE0000
003FFE0000
ENDCHAR
STARTCHAR Nacute
ENCODING 323
SWIDTH 619 0
DWIDTH 22 0
BBX 18 33 2 0
BITMAP
0000000000AFFE3000
0000000007FFE40000
000000003FFF400000
00000001DFF5000000
00000005BE60000000
000000000000000000
000000000000000000
4FFF4000000000BFF7
4FFFB000000000BFF7
4FFFF400000000BFF7
4FFFFC00000000BFF7
4FFFFF40000000BFF7
4FFFFFC0000000BFF7
4FFFBFF5000000BFF7
4FFF3FFC000000BFF7
4FFF0BFF500000BFF7
4FFF03FFD00000BFF7
4FFF00AFF50000BFF7
4FFF003FFD0000BFF7
4FFF000AFF6000BFF7
4FFF0002FFD000BFF7
4FFF0000AFF600BFF7
4FFF00002FFD00BFF7
4FFF000009FF60BFF7
4FFF000002FFE1BFF7
4FFF0000009FF7BFF7
4FFF0000002FFEBFF7
4FFF00000008FFFFF7
4FFF00000001EFFFF7
4FFF000000008FFFF7
4FFF000000001EFFF7
4FFF0000000008FFF7
4FFF0000000001EFF7
ENDCHAR
STARTCHAR nacute
ENCODING 324
SWIDTH 483 0
DWIDTH 17 0
BBX 14 26 2 0
BITMAP
00000001EFFC10
0000000BFFD100
0000008FFD2000
000004FFD20000
000008CD200000
00000000000000
00000000000000
AFF406CEEC6000
AFF5CFFFFFF900
AFFEFFDDFFFF40
AFFFD3003DFFA0
AFFE200005FFD0
AFF8000002FFF0
AFF7000000FFF1
AFF7000000FFF1
AFF7000000FFF1
AFF7000000FFF1
AFF7000000FFF1
AFF7000000FFF1
AFF7000000FFF1
AFF7000000FFF1
AFF7000000FFF1
AFF7000000FFF1
AFF7000000FFF1
AFF7000000FFF1
AFF7000000FFF1
ENDCHAR
STARTCHAR uni0145
ENCODING 325
SWIDTH 619 0
DWIDTH 22 0
BBX 18 35 2 -9
BITMAP
4FFF4000000000BFF7
4FFFB000000000BFF7
4FFFF400000000BFF7
4FFFFC00000000BFF7
4FFFFF40000000BFF7
4FFFFFC0000000BFF7
4FFFBFF5000000BFF7
4FFF3FFC000000BFF7
4FFF0BFF500000BFF7
4FFF03FFD00000BFF7
4FFF00AFF50000BFF7
4FFF003FFD0000BFF7
4FFF000AFF6000BFF7
4FFF0002FFD000BFF7
4FFF0000AFF600BFF7
4FFF00002FFD00BFF7
4FFF000009FF60BFF7
4FFF000002FFE1BFF7
4FFF0000009FF7BFF7
4FFF0000002FFEBFF7
4FFF00000008FFFFF7
4FFF00000001EFFFF7
4FFF000000008FFFF7
4FFF000000001EFFF7
4FFF0000000008FFF7
4FFF0000000001EFF7
000000000000000000
000000000000000000
00000008FF60000000
00000008FF60000000
00000009FF40000000
0000000CFF10000000
0000002FFB00000000
0000007FF400000000
000000098000000000
ENDCHAR
STARTCHAR uni0146
ENCODING 326
SWIDTH 483 0
DWIDTH 17 0
BBX 14 28 2 -9
BITMAP
AFF406CEEC6000
AFF5CFFFFFF900
AFFEFFDDFFFF40
AFFFD3003DFFA0
AFFE200005FFD0
AFF8000002FFF0
AFF7000000FFF1
AFF7000000FFF1
AFF7000000FFF1
AFF7000000FFF1
AFF7000000FFF1
AFF7000000FFF1
AFF7000000FFF1
AFF7000000FFF1
AFF7000000FFF1
AFF7000000FFF1
AFF7000000FFF1
AFF7000000FFF1
AFF7000000FFF1
00000000000000
00000000000000
00000DFF100000
00000DFF100000
00000EFE000000
00002FFB000000
00006FF6000000
0000CFD0000000
00002B30000000
ENDCHAR
STARTCHAR Ncaron
ENCODING 327
SWIDTH 619 0
DWIDTH 22 0
BBX 18 33 2 0
BITMAP
00006FF5003FF80000
000009FE11DFB00000
000000CFB9FD100000
0000002EFFF3000000
00000004FF60000000
000000000000000000
000000000000000000
4FFF4000000000BFF7
4FFFB000000000BFF7
4FFFF400000000BFF7
4FFFFC00000000BFF7
4FFFFF40000000BFF7
4FFFFFC0000000BFF7
4FFFBFF5000000BFF7
4FFF3FFC000000BFF7
4FFF0BFF500000BFF7
4FFF03FFD00000BFF7
4FFF00AFF50000BFF7
4FFF003FFD0000BFF7
4FFF000AFF6000BFF7
4FFF0002FFD000BFF7
4FFF0000AFF600BFF7
4FFF00002FFD00BFF7
4FFF000009FF60BFF7
4FFF000002FFE1BFF7
4FFF0000009FF7BFF7
4FFF0000002FFEBFF7
4FFF00000008FFFFF7
4FFF00000001EFFFF7
4FFF000000008FFFF7
4FFF000000001EFFF7
4FFF0000000008FFF7
4FFF0000000001EFF7
ENDCHAR
STARTCHAR ncaron
ENCODING 328
SWIDTH 483 0
DWIDTH 17 0
BBX 14 27 2 0
BITMAP
00AFE2007FF400
001DFB03FF7000
0002EF7CFA0000
00005FFFD10000
000008FE200000
00000000000000
00000000000000
00000000000000
AFF406CEEC6000
AFF5CFFFFFF900
AFFEFFDDFFFF40
AFFFD3003DFFA0
AFFE200005FFD0
AFF8000002FFF0
AFF7000000FFF1
AFF7000000FFF1
AFF7000000FFF1
AFF7000000FFF1
AFF7000000FFF1
AFF7000000FFF1
AFF7000000FFF1
AFF7000000FFF1
AFF7000000FFF1
AFF7000000FFF1
AFF7000000FFF1
AFF7000000FFF1
AFF7000000FFF1
ENDCHAR
STARTCHAR napostrophe
ENCODING 329
SWIDTH 483 0
DWIDTH 17 0
BBX 17 27 -1 0
BITMAP
0AFF50000000000000
0AFF40000000000000
0BFF30000000000000
0DFE00000000000000
3FFA00000000000000
9FF300000000000000
1A6000000000000000
000000000000000000
000AFF406CEEC60000
000AFF5CFFFFFF9000
000AFFEFFDDFFFF400
000AFFFD3003DFFA00
000AFFE200005FFD00
000AFF8000002FFF00
000AFF7000000FFF10
000AFF7000000FFF10
000AFF7000000FFF10
000AFF7000000FFF10
000AFF7000000FFF10
000AFF7000000FFF10
000AFF7000000FFF10
000AFF7000000FFF10
000AFF7000000FFF10
000AFF7000000FFF10
000AFF7000000FFF10
000AFF7000000FFF10
000AFF7000000FFF10
ENDCHAR
STARTCHAR Eng
ENCODING 330
SWIDTH 599 0
DWIDTH 22 0
BBX 18 33 2 -7
BITMAP
5FFF2000000003FFF1
5FFF9000000003FFF1
5FFFF200000003FFF1
5FFFFA00000003FFF1
5FFFFF20000003FFF1
5FFFFFA0000003FFF1
5FFEFFF3000003FFF1
5FFD9FFA000003FFF1
5FFD2EFF300003FFF1
5FFD08FFB00003FFF1
5FFD01EFF30003FFF1
5FFD007FFB0003FFF1
5FFD001EFF4003FFF1
5FFD0006FFB003FFF1
5FFD0000DFF403FFF1
5FFD00006FFC03FFF1
5FFD00000DFF43FFF1
5FFD000005FFC3FFF1
5FFD000000CFF7FFF1
5FFD0000004FFEFFF1
5FFD0000000BFFFFF1
5FFD00000003FFFFF1
5FFD00000000AFFFF1
5FFD000000003FFFF1
5FFD000000000AFFF1
5FFD0000000003FFF1
00000000000003FFF1
00000000000004FFF1
00000000000006FFE0
0000000000000CFFB0
00000000006DEFFF50
00000000007FFFFA00
00000000006EFC6000
ENDCHAR
STARTCHAR eng
ENCODING 331
SWIDTH 498 0
DWIDTH 18 0
BBX 14 26 2 -7
BITMAP
9FF405BEEC6000
9FF58FFFFFFA00
9FFBFFCCFFFF60
9FFFA1001BFFD0
9FFB000002FFF2
9FF8000000DFF4
9FF8000000BFF5
9FF8000000BFF6
9FF8000000BFF6
9FF8000000BFF6
9FF8000000BFF6
9FF8000000BFF6
9FF8000000BFF6
9FF8000000BFF6
9FF8000000BFF6
9FF8000000BFF6
9FF8000000BFF6
9FF8000000BFF6
9FF8000000BFF6
0000000000BFF6
0000000000CFF5
0000000000DFF4
0000000005FFF1
0000000EDFFFB0
0000000FFFFE20
0000001DFE9200
ENDCHAR
STARTCHAR Omacron
ENCODING 332
SWIDTH 600 0
DWIDTH 22 0
BBX 18 31 2 0
BITMAP
000188888888880000
0002FFFFFFFFFF1000
0002FFFFFFFFFF1000
000000000000000000
000000000000000000
000006ADFED9300000
0003DFFFFFFFFA1000
003EFFFFEFFFFFB100
01DFFE610039FFF900
08FFE30000007FFF20
0EFF700000000CFF80
4FFF1000000006FFD0
7FFB0000000002FFF1
AFF80000000000EFF4
BFF70000000000DFF5
CFF60000000000CFF6
CFF60000000000CFF6
CFF60000000000CFF6
CFF60000000000CFF6
CFF60000000000CFF6
CFF60000000000CFF6
BFF70000000000DFF5
AFF80000000000EFF4
7FFB0000000002FFF2
4FFE1000000006FFE0
0EFF600000000BFF90
08FFE20000006FFF30
01DFFE610028FFF900
003EFFFFDEFFFFC100
0003DFFFFFFFFA1000
000006ADFED9400000
ENDCHAR
STARTCHAR omacron
ENCODING 333
SWIDTH 501 0
DWIDTH 18 0
BBX 16 25 1 0
BITMAP
0018888888888000
002FFFFFFFFFF100
002FFFFFFFFFF100
0000000000000000
0000000000000000
0000000000000000
000028DEED920000
0006FFFFFFFF7000
006FFFEBBEFFF700
02FFFA1001AFFF30
09FFC000000CFFA0
0EFF50000004FFE0
2FFF00000000EFF3
4FFD00000000CFF5
5FFC00000000BFF6
5FFC00000000BFF6
5FFC00000000BFF6
4FFD00000000CFF5
2FFF00000000EFF3
0EFF40000002FFE0
09FFC0000009FFA0
02FFFA10007FFF30
007FFFEBADFFF700
0007FFFFFFFF7000
000029DEED930000
ENDCHAR
STARTCHAR Obreve
ENCODING 334
SWIDTH 600 0
DWIDTH 22 0
BBX 18 33 2 0
BITMAP
000111000001110000
0005FF500009FF1000
0002FF90000DFE0000
0000BFF723AFF80000
00002DFFFFFFB00000
0000018DFEC6000000
000000000000000000
000006ADFED9300000
0003DFFFFFFFFA1000
003EFFFFEFFFFFB100
01DFFE610039FFF900
08FFE30000007FFF20
0EFF700000000CFF80
4FFF1000000006FFD0
7FFB0000000002FFF1
AFF80000000000EFF4
BFF70000000000DFF5
CFF60000000000CFF6
CFF60000000000CFF6
CFF60000000000CFF6
CFF60000000000CFF6
CFF60000000000CFF6
CFF60000000000CFF6
BFF70000000000DFF5
AFF80000000000EFF4
7FFB0000000002FFF2
4FFE1000000006FFE0
0EFF600000000BFF90
08FFE20000006FFF30
01DFFE610028FFF900
003EFFFFDEFFFFC100
0003DFFFFFFFFA1000
000006ADFED9400000
ENDCHAR
STARTCHAR obreve
ENCODING 335
SWIDTH 501 0
DWIDTH 18 0
BBX 16 27 1 0
BITMAP
0011100000111000
005FF500009FF100
002FF90000DFE000
000BFF723AFF8000
0002DFFFFFFB0000
000018DFEC600000
0000000000000000
0000000000000000
000028DEED920000
0006FFFFFFFF7000
006FFFEBBEFFF700
02FFFA1001AFFF30
09FFC000000CFFA0
0EFF50000004FFE0
2FFF00000000EFF3
4FFD00000000CFF5
5FFC00000000BFF6
5FFC00000000BFF6
5FFC00000000BFF6
4FFD00000000CFF5
2FFF00000000EFF3
0EFF40000002FFE0
09FFC0000009FFA0
02FFFA10007FFF30
007FFFEBADFFF700
0007FFFFFFFF7000
000029DEED930000
ENDCHAR
STARTCHAR Ohungarumlaut
ENCODING 336
SWIDTH 600 0
DWIDTH 22 0
BBX 18 33 2 0
BITMAP
0000000DFF40CFF800
0000006FFA08FFB000
000001EFE14FFD1000
000007FF61EFF30000
000008CB05BE600000
000000000000000000
000000000000000000
000006ADFED9300000
0003DFFFFFFFFA1000
003EFFFFEFFFFFB100
01DFFE610039FFF900
08FFE30000007FFF20
0EFF700000000CFF80
4FFF1000000006FFD0
7FFB0000000002FFF1
AFF80000000000EFF4
BFF70000000000DFF5
CFF60000000000CFF6
CFF60000000000CFF6
CFF60000000000CFF6
CFF60000000000CFF6
CFF60000000000CFF6
CFF60000000000CFF6
BFF70000000000DFF5
AFF80000000000EFF4
7FFB0000000002FFF2
4FFE1000000006FFE0
0EFF600000000BFF90
08FFE20000006FFF30
01DFFE610028FFF900
003EFFFFDEFFFFC100
0003DFFFFFFFFA1000
000006ADFED9400000
ENDCHAR
STARTCHAR ohungarumlaut
ENCODING 337
SWIDTH 501 0
DWIDTH 18 0
BBX 16 26 1 0
BITMAP
000000DFF40CFF80
000007FFA08FFB00
00001EFE14FFD100
00007FF61EFF3000
00008CB05BE60000
0000000000000000
0000000000000000
000028DEED920000
0006FFFFFFFF7000
006FFFEBBEFFF700
02FFFA1001AFFF30
09FFC000000CFFA0
0EFF50000004FFE0
2FFF00000000EFF3
4FFD00000000CFF5
5FFC00000000BFF6
5FFC00000000BFF6
5FFC00000000BFF6
4FFD00000000CFF5
2FFF00000000EFF3
0EFF40000002FFE0
09FFC0000009FFA0
02FFFA10007FFF30
007FFFEBADFFF700
0007FFFFFFFF7000
000029DEED930000
ENDCHAR
STARTCHAR OE
ENCODING 338
SWIDTH 826 0
DWIDTH 30 0
BBX 26 26 1 0
BITMAP
0000028CEFFFFFFFFFFFFFFFFC
00006EFFFFFFFFFFFFFFFFFFFC
0007FFFEBACDFFFDCCCCCCCCC9
004FFF700000CFF60000000000
00DFF7000000CFF60000000000
05FFD0000000CFF60000000000
0AFF80000000CFF60000000000
0DFF40000000CFF60000000000
0FFF10000000CFF60000000000
2FFF00000000CFF60000000000
2FFF00000000CFF60000000000
2FFF00000000CFFFFFFFFFFF70
2FFF00000000CFFFFFFFFFFF70
2FFF00000000CFFDCCCCCCCC50
2FFF00000000CFF60000000000
2FFF00000000CFF60000000000
2FFF00000000CFF60000000000
0FFF10000000CFF60000000000
0DFF40000000CFF60000000000
09FF80000000CFF60000000000
04FFD0000000CFF60000000000
00DFF8000000CFF60000000000
004FFF800000CFF60000000000
0007FFFEBABCFFFDCCCCCCCCCB
00006EFFFFFFFFFFFFFFFFFFFE
0000028CEFFFFFFFFFFFFFFFFE
ENDCHAR
STARTCHAR oe
ENCODING 339
SWIDTH 777 0
DWIDTH 28 0
BBX 26 19 1 0
BITMAP
000018CEEC7100005BEED81000
0004EFFFFFFD300AFFFFFFE400
003EFFEBBFFFE2AFFFCBEFFE20
00CFFB1002CFFDFFF4001CFFA0
05FFE100002EFFFF800003FFF1
0AFF80000009FFFE100000BFF5
0EFF30000004FFFA0000009FF7
1FFF10000002FFF70000008FF8
2FFE00000000FFFFFFFFFFFFF9
3FFE00000000FFFFFFFFFFFFF9
2FFE00000001FFFCAAAAAAAAA6
1FFF00000002FFF50000000000
0EFF30000004FFF80000000000
0AFF70000009FFFC0000000000
05FFE100001EFFFF4000000100
00CFFB1001CFFEFFE400005D70
003EFFEABEFFE2BFFFCABEFFE1
0004EFFFFFFD301BFFFFFFFF60
000018CEEC7100005BDFEC8200
ENDCHAR
STARTCHAR Racute
ENCODING 340
SWIDTH 530 0
DWIDTH 19 0
BBX 17 33 2 0
BITMAP
000000006FFF600000
00000003FFF7000000
0000001DFF80000000
000000AFF900000000
000002ADA000000000
000000000000000000
000000000000000000
4FFFFFFFEDA5000000
4FFFFFFFFFFFC20000
4FFFCCCCDFFFFD1000
4FFF0000018FFF9000
4FFF00000008FFF100
4FFF00000001FFF400
4FFF00000000CFF700
4FFF00000000BFF800
4FFF00000000BFF800
4FFF00000000DFF600
4FFF00000003FFF300
4FFF0000000CFFD000
4FFF000014CFFF5000
4FFFFFFFFFFFF80000
4FFFFFFFFFFE500000
4FFFCCCCDFFC000000
4FFF00003FFF400000
4FFF00000BFFA00000
4FFF000004FFF20000
4FFF000000DFF90000
4FFF0000006FFF1000
4FFF0000000EFF8000
4FFF00000008FFE100
4FFF00000001FFF700
4FFF000000009FFD00
4FFF000000003FFF60
ENDCHAR
STARTCHAR racute
ENCODING 341
SWIDTH 304 0
DWIDTH 11 0
BBX 10 26 2 0
BITMAP
000006FFF6
00003FFF70
0001DFF800
000AFF9000
002ADA0000
0000000000
0000000000
AFF52BED20
AFF8EFFF20
AFFFFFFF20
AFFFE63310
AFFE200000
AFF8000000
AFF7000000
AFF7000000
AFF7000000
AFF7000000
AFF7000000
AFF7000000
AFF7000000
AFF7000000
AFF7000000
AFF7000000
AFF7000000
AFF7000000
AFF7000000
ENDCHAR
STARTCHAR uni0156
ENCODING 342
SWIDTH 530 0
DWIDTH 19 0
BBX 17 35 2 -9
BITMAP
4FFFFFFFEDA5000000
4FFFFFFFFFFFC20000
4FFFCCCCDFFFFD1000
4FFF0000018FFF9000
4FFF00000008FFF100
4FFF00000001FFF400
4FFF00000000CFF700
4FFF00000000BFF800
4FFF00000000BFF800
4FFF00000000DFF600
4FFF00000003FFF300
4FFF0000000CFFD000
4FFF000014CFFF5000
4FFFFFFFFFFFF80000
4FFFFFFFFFFE500000
4FFFCCCCDFFC000000
4FFF00003FFF400000
4FFF00000BFFA00000
4FFF000004FFF20000
4FFF000000DFF90000
4FFF0000006FFF1000
4FFF0000000EFF8000
4FFF00000008FFE100
4FFF00000001FFF700
4FFF000000009FFD00
4FFF000000003FFF60
000000000000000000
000000000000000000
000002FFC000000000
000002FFC000000000
000003FFB000000000
000006FF8000000000
00000AFF3000000000
00001FFA0000000000
000004C10000000000
ENDCHAR
STARTCHAR uni0157
ENCODING 343
SWIDTH 304 0
DWIDTH 11 0
BBX 10 28 1 -9
BITMAP
0AFF52BED2
0AFF8EFFF2
0AFFFFFFF2
0AFFFE6331
0AFFE20000
0AFF800000
0AFF700000
0AFF700000
0AFF700000
0AFF700000
0AFF700000
0AFF700000
0AFF700000
0AFF700000
0AFF700000
0AFF700000
0AFF700000
0AFF700000
0AFF700000
0000000000
0000000000
06FF900000
06FF800000
07FF700000
09FF400000
0EFE000000
5FF6000000
07A0000000
ENDCHAR
STARTCHAR Rcaron
ENCODING 344
SWIDTH 530 0
DWIDTH 19 0
BBX 17 33 2 0
BITMAP
002EF9001DFC000000
0005FF509FE2000000
00008FE6FF40000000
00000BFFF700000000
000001DFA000000000
000000000000000000
000000000000000000
4FFFFFFFEDA5000000
4FFFFFFFFFFFC20000
4FFFCCCCDFFFFD1000
4FFF0000018FFF9000
4FFF00000008FFF100
4FFF00000001FFF400
4FFF00000000CFF700
4FFF00000000BFF800
4FFF00000000BFF800
4FFF00000000DFF600
4FFF00000003FFF300
4FFF0000000CFFD000
4FFF000014CFFF5000
4FFFFFFFFFFFF80000
4FFFFFFFFFFE500000
4FFFCCCCDFFC000000
4FFF00003FFF400000
4FFF00000BFFA00000
4FFF000004FFF20000
4FFF000000DFF90000
4FFF0000006FFF1000
4FFF0000000EFF8000
4FFF00000008FFE100
4FFF00000001FFF700
4FFF000000009FFD00
4FFF000000003FFF60
ENDCHAR
STARTCHAR rcaron
ENCODING 345
SWIDTH 304 0
DWIDTH 11 0
BBX 10 27 1 0
BITMAP
2EF9001DFC
05FF509FE2
008FE6FF40
000BFFF700
0001DFA000
0000000000
0000000000
0000000000
0AFF52BED2
0AFF8EFFF2
0AFFFFFFF2
0AFFFE6331
0AFFE20000
0AFF800000
0AFF700000
0AFF700000
0AFF700000
0AFF700000
0AFF700000
0AFF700000
0AFF700000
0AFF700000
0AFF700000
0AFF700000
0AFF700000
0AFF700000
0AFF700000
ENDCHAR
STARTCHAR Sacute
ENCODING 346
SWIDTH 518 0
DWIDTH 19 0
BBX 17 33 1 0
BITMAP
0000000004FFF90000
000000001EFFA00000
00000000BFFA000000
00000008FFB0000000
0000001ADB10000000
000000000000000000
000000000000000000
000017BEFEB7100000
0004EFFFFFFFE40000
004FFFFDCDFFFF4000
01EFFC30003CFFE100
06FFE1000001DFF700
0AFF900000006FFD00
0CFF700000003FFF00
0CFF700000001CCC10
0AFFC0000000000000
05FFF8000000000000
00BFFFC30000000000
002DFFFFC610000000
0001BFFFFFF9200000
000004BFFFFFE60000
000000028EFFFF8000
00000000006EFFF400
000000000002DFFB00
0000000000006FFF00
6CC9000000002FFF20
6FFD000000001FFF20
3FFF200000003FFF10
0CFFB0000000AFFC00
04FFFB300018FFF600
006FFFFDCCFFFFB000
0005EFFFFFFFFA1000
000016BDFED9300000
ENDCHAR
STARTCHAR sacute
ENCODING 347
SWIDTH 455 0
DWIDTH 16 0
BBX 14 26 1 0
BITMAP
000000001EFFC1
00000000BFFD10
00000008FFD200
0000004FFD2000
0000008CD20000
00000000000000
00000000000000
00016CEFEA4000
002DFFFFFFFA00
00DFFFCBEFFF90
06FFE30009FFF2
09FF800000DFF6
0AFF7000005884
08FFD200000000
02EFFF92000000
004EFFFFB50000
0002AFFFFFC300
0000028EFFFF60
000000017EFFF2
0000000002EFF8
3CCC0000008FFA
2FFF3000008FF9
0CFFC20003EFF5
03FFFFCACFFFD0
004EFFFFFFFD20
00017CEFEB6100
ENDCHAR
STARTCHAR Scircumflex
ENCODING 348
SWIDTH 518 0
DWIDTH 19 0
BBX 17 33 1 0
BITMAP
0000001CFC10000000
000000AFFFA0000000
000008FF5FF8000000
00006FF707FF600000
00009CB000BC900000
000000000000000000
000000000000000000
000017BEFEB7100000
0004EFFFFFFFE40000
004FFFFDCDFFFF4000
01EFFC30003CFFE100
06FFE1000001DFF700
0AFF900000006FFD00
0CFF700000003FFF00
0CFF700000001CCC10
0AFFC0000000000000
05FFF8000000000000
00BFFFC30000000000
002DFFFFC610000000
0001BFFFFFF9200000
000004BFFFFFE60000
000000028EFFFF8000
00000000006EFFF400
000000000002DFFB00
0000000000006FFF00
6CC9000000002FFF20
6FFD000000001FFF20
3FFF200000003FFF10
0CFFB0000000AFFC00
04FFFB300018FFF600
006FFFFDCCFFFFB000
0005EFFFFFFFFA1000
000016BDFED9300000
ENDCHAR
STARTCHAR scircumflex
ENCODING 349
SWIDTH 455 0
DWIDTH 16 0
BBX 14 27 1 0
BITMAP
0000009FE30000
000006FFFD1000
00004FF7DFC100
0003EFB03FFA00
0006CD1007DA20
00000000000000
00000000000000
00000000000000
00016CEFEA4000
002DFFFFFFFA00
00DFFFCBEFFF90
06FFE30009FFF2
09FF800000DFF6
0AFF7000005884
08FFD200000000
02EFFF92000000
004EFFFFB50000
0002AFFFFFC300
0000028EFFFF60
000000017EFFF2
0000000002EFF8
3CCC0000008FFA
2FFF3000008FF9
0CFFC20003EFF5
03FFFFCACFFFD0
004EFFFFFFFD20
00017CEFEB6100
ENDCHAR
STARTCHAR Scedilla
ENCODING 350
SWIDTH 518 0
DWIDTH 19 0
BBX 17 33 1 -7
BITMAP
000017BEFEB7100000
0004EFFFFFFFE40000
004FFFFDCDFFFF4000
01EFFC30003CFFE100
06FFE1000001DFF700
0AFF900000006FFD00
0CFF700000003FFF00
0CFF700000001CCC10
0AFFC0000000000000
05FFF8000000000000
00BFFFC30000000000
002DFFFFC610000000
0001BFFFFFF9200000
000004BFFFFFE60000
000000028EFFFF8000
00000000006EFFF400
000000000002DFFB00
0000000000006FFF00
6CC9000000002FFF20
6FFD000000001FFF20
3FFF200000003FFF10
0CFFB0000000AFFC00
04FFFB300018FFF600
006FFFFDCCFFFFB000
0005EFFFFFFFFA1000
000016BDFED9300000
00000008FB00000000
0000000BFFA1000000
000000026EF8000000
0000000009FC000000
000000002DFA000000
0000000BFFF3000000
0000000BEA30000000
ENDCHAR
STARTCHAR scedilla
ENCODING 351
SWIDTH 455 0
DWIDTH 16 0
BBX 14 26 1 -7
BITMAP
00016CEFEA4000
002DFFFFFFFA00
00DFFFCBEFFF90
06FFE30009FFF2
09FF800000DFF6
0AFF7000005884
08FFD200000000
02EFFF92000000
004EFFFFB50000
0002AFFFFFC300
0000028EFFFF60
000000017EFFF2
0000000002EFF8
3CCC0000008FFA
2FFF3000008FF9
0CFFC20003EFF5
03FFFFCACFFFD0
004EFFFFFFFD20
00017CEFEB6100
0000005FE00000
0000009FFB2000
00000025DFB000
000000007FE000
00000001BFD000
0000008FFF6000
0000008EB40000
ENDCHAR
STARTCHAR Scaron
ENCODING 352
SWIDTH 518 0
DWIDTH 19 0
BBX 17 33 1 0
BITMAP
0001DFB000BFE10000
00003FF707FF300000
000006FF5FF6000000
0000009FFF90000000
0000000CFC00000000
000000000000000000
000000000000000000
000017BEFEB7100000
0004EFFFFFFFE40000
004FFFFDCDFFFF4000
01EFFC30003CFFE100
06FFE1000001DFF700
0AFF900000006FFD00
0CFF700000003FFF00
0CFF700000001CCC10
0AFFC0000000000000
05FFF8000000000000
00BFFFC30000000000
002DFFFFC610000000
0001BFFFFFF9200000
000004BFFFFFE60000
000000028EFFFF8000
00000000006EFFF400
000000000002DFFB00
0000000000006FFF00
6CC9000000002FFF20
6FFD000000001FFF20
3FFF200000003FFF10
0CFFB0000000AFFC00
04FFFB300018FFF600
006FFFFDCCFFFFB000
0005EFFFFFFFFA1000
000016BDFED9300000
ENDCHAR
STARTCHAR scaron
ENCODING 353
SWIDTH 455 0
DWIDTH 16 0
BBX 14 27 1 0
BITMAP
000AFE2007FF40
0001DFB03FF700
00002EF7CFA000
000005FFFD1000
0000008FE20000
00000000000000
00000000000000
00000000000000
00016CEFEA4000
002DFFFFFFFA00
00DFFFCBEFFF90
06FFE30009FFF2
09FF800000DFF6
0AFF7000005884
08FFD200000000
02EFFF92000000
004EFFFFB50000
0002AFFFFFC300
0000028EFFFF60
000000017EFFF2
0000000002EFF8
3CCC0000008FFA
2FFF3000008FF9
0CFFC20003EFF5
03FFFFCACFFFD0
004EFFFFFFFD20
00017CEFEB6100
ENDCHAR
STARTCHAR uni0162
ENCODING 354
SWIDTH 520 0
DWIDTH 19 0
BBX 17 33 1 -7
BITMAP
EFFFFFFFFFFFFFFFB0
EFFFFFFFFFFFFFFFB0
BCCCCCDFFFCCCCCC80
0000004FFF00000000
0000004FFF00000000
0000004FFF00000000
0000004FFF00000000
0000004FFF00000000
0000004FFF00000000
0000004FFF00000000
0000004FFF00000000
0000004FFF00000000
0000004FFF00000000
0000004FFF00000000
0000004FFF00000000
0000004FFF00000000
0000004FFF00000000
0000004FFF00000000
0000004FFF00000000
0000004FFF00000000
0000004FFF00000000
0000004FFF00000000
0000004FFF00000000
0000004FFF00000000
0000004FFF00000000
0000004FFF00000000
0000000BF800000000
0000000EFE80000000
000000037FF5000000
000000000DF8000000
000000004FF7000000
0000000EFFD1000000
0000000ED920000000
ENDCHAR
STARTCHAR uni0163
ENCODING 355
SWIDTH 295 0
DWIDTH 11 0
BBX 11 31 0 -7
BITMAP
000AFF600000
000AFF600000
000AFF600000
000AFF600000
000AFF600000
9FFFFFFFF400
9FFFFFFFF400
588DFFB88200
000AFF600000
000AFF600000
000AFF600000
000AFF600000
000AFF600000
000AFF600000
000AFF600000
000AFF600000
000AFF600000
000AFF600000
000AFF600000
000AFF700000
0009FFB00000
0005FFFDD400
0000CFFFF400
00002AEFC300
000000FF4000
000003FFD500
0000014AFF10
00000001FF40
00000007FF30
000004EFFB00
000003EC7000
ENDCHAR
STARTCHAR Tcaron
ENCODING 356
SWIDTH 520 0
DWIDTH 19 0
BBX 17 33 1 0
BITMAP
0002EFA000CFC10000
00004FF508FE200000
000008FE6FF4000000
000000BFFF70000000
0000001DFA00000000
000000000000000000
000000000000000000
EFFFFFFFFFFFFFFFB0
EFFFFFFFFFFFFFFFB0
BCCCCCDFFFCCCCCC80
0000004FFF00000000
0000004FFF00000000
0000004FFF00000000
0000004FFF00000000
0000004FFF00000000
0000004FFF00000000
0000004FFF00000000
0000004FFF00000000
0000004FFF00000000
0000004FFF00000000
0000004FFF00000000
0000004FFF00000000
0000004FFF00000000
0000004FFF00000000
0000004FFF00000000
0000004FFF00000000
0000004FFF00000000
0000004FFF00000000
0000004FFF00000000
0000004FFF00000000
0000004FFF00000000
0000004FFF00000000
0000004FFF00000000
ENDCHAR
STARTCHAR tcaron
ENCODING 357
SWIDTH 314 0
DWIDTH 11 0
BBX 12 29 0 0
BITMAP
000000001FFD
000000001FFD
000000002FFC
000000005FF8
000000009FF3
000AFF61EFB0
000AFF604C20
000AFF600000
000AFF600000
000AFF600000
9FFFFFFFF400
9FFFFFFFF400
588DFFB88200
000AFF600000
000AFF600000
000AFF600000
000AFF600000
000AFF600000
000AFF600000
000AFF600000
000AFF600000
000AFF600000
000AFF600000
000AFF600000
000AFF700000
0009FFB00000
0005FFFDD400
0000CFFFF400
00002AEFC300
ENDCHAR
STARTCHAR Tbar
ENCODING 358
SWIDTH 520 0
DWIDTH 19 0
BBX 17 26 1 0
BITMAP
EFFFFFFFFFFFFFFFB0
EFFFFFFFFFFFFFFFB0
BCCCCCDFFFCCCCCC80
0000004FFF00000000
0000004FFF00000000
0000004FFF00000000
0000004FFF00000000
0000004FFF00000000
0000004FFF00000000
0003FFFFFFFFF50000
0003FFFFFFFFF50000
0002AABFFFAAA30000
0000004FFF00000000
0000004FFF00000000
0000004FFF00000000
0000004FFF00000000
0000004FFF00000000
0000004FFF00000000
0000004FFF00000000
0000004FFF00000000
0000004FFF00000000
0000004FFF00000000
0000004FFF00000000
0000004FFF00000000
0000004FFF00000000
0000004FFF00000000
ENDCHAR
STARTCHAR tbar
ENCODING 359
SWIDTH 295 0
DWIDTH 11 0
BBX 10 24 0 0
BITMAP
000AFF6000
000AFF6000
000AFF6000
000AFF6000
000AFF6000
9FFFFFFFF4
9FFFFFFFF4
588DFFB882
000AFF6000
000AFF6000
000AFF6000
FFFFFFFFF8
FFFFFFFFF8
AAADFFCAA6
000AFF6000
000AFF6000
000AFF6000
000AFF6000
000AFF6000
000AFF7000
0009FFB000
0005FFFDD4
0000DFFFF4
00002AEFC3
ENDCHAR
STARTCHAR Utilde
ENCODING 360
SWIDTH 561 0
DWIDTH 20 0
BBX 16 33 2 0
BITMAP
000016610007A300
0002EFFD300DF400
000AFFFFE9BFF100
000FF618FFFF9000
002ED0005DE90000
0000000000000000
0000000000000000
BFF7000000003FFF
BFF7000000003FFF
BFF7000000003FFF
BFF7000000003FFF
BFF7000000003FFF
BFF7000000003FFF
BFF7000000003FFF
BFF7000000003FFF
BFF7000000003FFF
BFF7000000003FFF
BFF7000000003FFF
BFF7000000003FFF
BFF7000000003FFF
BFF7000000003FFF
BFF7000000003FFF
BFF7000000003FFF
BFF7000000003FFF
BFF7000000003FFF
AFF8000000004FFF
9FF9000000005FFE
7FFC000000008FFB
3FFF40000001EFF7
0BFFE500003CFFE1
02EFFFECCDFFFF40
003DFFFFFFFFE400
00005ADEFDB61000
ENDCHAR
STARTCHAR utilde
ENCODING 361
SWIDTH 483 0
DWIDTH 17 0
BBX 14 27 2 0
BITMAP
0003740001B900
007FFF9004FD00
02FFFFFC8EFA00
07FD23DFFFF300
08E7001AED5000
00000000000000
00000000000000
00000000000000
BFF5000001FFF1
BFF5000001FFF1
BFF5000001FFF1
BFF5000001FFF1
BFF5000001FFF1
BFF5000001FFF1
BFF5000001FFF1
BFF5000001FFF1
BFF5000001FFF1
BFF5000001FFF1
BFF5000001FFF1
BFF5000001FFF1
BFF6000001FFF1
AFF7000001FFF1
8FFB000008FFF1
4FFF50017FFFF1
0DFFFDCEFFFFF1
03EFFFFFF8EFF1
002AEFEA40EFF1
ENDCHAR
STARTCHAR Umacron
ENCODING 362
SWIDTH 561 0
DWIDTH 20 0
BBX 16 31 2 0
BITMAP
0007888888888200
000EFFFFFFFFF400
000EFFFFFFFFF400
0000000000000000
0000000000000000
BFF7000000003FFF
BFF7000000003FFF
BFF7000000003FFF
BFF7000000003FFF
BFF7000000003FFF
BFF7000000003FFF
BFF7000000003FFF
BFF7000000003FFF
BFF7000000003FFF
BFF7000000003FFF
BFF7000000003FFF
BFF7000000003FFF
BFF7000000003FFF
BFF7000000003FFF
BFF7000000003FFF
BFF7000000003FFF
BFF7000000003FFF
BFF7000000003FFF
AFF8000000004FFF
9FF9000000005FFE
7FFC000000008FFB
3FFF40000001EFF7
0BFFE500003CFFE1
02EFFFECCDFFFF40
003DFFFFFFFFE400
00005ADEFDB61000
ENDCHAR
STARTCHAR umacron
ENCODING 363
SWIDTH 483 0
DWIDTH 17 0
BBX 14 25 2 0
BITMAP
03888888888700
05FFFFFFFFFD00
05FFFFFFFFFD00
00000000000000
00000000000000
00000000000000
BFF5000001FFF1
BFF5000001FFF1
BFF5000001FFF1
BFF5000001FFF1
BFF5000001FFF1
BFF5000001FFF1
BFF5000001FFF1
BFF5000001FFF1
BFF5000001FFF1
BFF5000001FFF1
BFF5000001FFF1
BFF5000001FFF1
BFF6000001FFF1
AFF7000001FFF1
8FFB000008FFF1
4FFF50017FFFF1
0DFFFDCEFFFFF1
03EFFFFFF8EFF1
002AEFEA40EFF1
ENDCHAR
STARTCHAR Ubreve
ENCODING 364
SWIDTH 561 0
DWIDTH 20 0
BBX 16 31 2 0
BITMAP
0001110000011000
002FF900005FF500
000EFD00009FF200
0008FFA328FFB000
0000BFFFFFFD2000
BFF706CEFD813FFF
BFF7000000003FFF
BFF7000000003FFF
BFF7000000003FFF
BFF7000000003FFF
BFF7000000003FFF
BFF7000000003FFF
BFF7000000003FFF
BFF7000000003FFF
BFF7000000003FFF
BFF7000000003FFF
BFF7000000003FFF
BFF7000000003FFF
BFF7000000003FFF
BFF7000000003FFF
BFF7000000003FFF
BFF7000000003FFF
BFF7000000003FFF
AFF8000000004FFF
9FF9000000005FFE
7FFC000000008FFB
3FFF40000001EFF7
0BFFE500003CFFE1
02EFFFECCDFFFF40
003DFFFFFFFFE400
00005ADEFDB61000
ENDCHAR
STARTCHAR ubreve
ENCODING 365
SWIDTH 483 0
DWIDTH 17 0
BBX 14 27 2 0
BITMAP
01110000011100
08FF20000CFE00
05FF60001EFB00
01DFE624CFF500
003EFFFFFF8000
00029DFEB50000
00000000000000
00000000000000
BFF5000001FFF1
BFF5000001FFF1
BFF5000001FFF1
BFF5000001FFF1
BFF5000001FFF1
BFF5000001FFF1
BFF5000001FFF1
BFF5000001FFF1
BFF5000001FFF1
BFF5000001FFF1
BFF5000001FFF1
BFF5000001FFF1
BFF6000001FFF1
AFF7000001FFF1
8FFB000008FFF1
4FFF50017FFFF1
0DFFFDCEFFFFF1
03EFFFFFF8EFF1
002AEFEA40EFF1
ENDCHAR
STARTCHAR Uring
ENCODING 366
SWIDTH 561 0
DWIDTH 20 0
BBX 16 35 2 0
BITMAP
000002AEEB300000
00001DFBAFF30000
00007F7003FB0000
0000AF2000DD0000
00008F6003FB0000
00001EFAAEF40000
000002AEEB300000
0000000000000000
0000000000000000
BFF7000000003FFF
BFF7000000003FFF
BFF7000000003FFF
BFF7000000003FFF
BFF7000000003FFF
BFF7000000003FFF
BFF7000000003FFF
BFF7000000003FFF
BFF7000000003FFF
BFF7000000003FFF
BFF7000000003FFF
BFF7000000003FFF
BFF7000000003FFF
BFF7000000003FFF
BFF7000000003FFF
BFF7000000003FFF
BFF7000000003FFF
BFF7000000003FFF
AFF8000000004FFF
9FF9000000005FFE
7FFC000000008FFB
3FFF40000001EFF7
0BFFE500003CFFE1
02EFFFECCDFFFF40
003DFFFFFFFFE400
00005ADEFDB61000
ENDCHAR
STARTCHAR uring
ENCODING 367
SWIDTH 483 0
DWIDTH 17 0
BBX 14 28 2 0
BITMAP
00005CFE810000
0006FE9CFB0000
000EE100AF4000
001FB0005F7000
000EE1009F5000
0006FE9CFC0000
00005CED810000
00000000000000
00000000000000
BFF5000001FFF1
BFF5000001FFF1
BFF5000001FFF1
BFF5000001FFF1
BFF5000001FFF1
BFF5000001FFF1
BFF5000001FFF1
BFF5000001FFF1
BFF5000001FFF1
BFF5000001FFF1
BFF5000001FFF1
BFF5000001FFF1
BFF6000001FFF1
AFF7000001FFF1
8FFB000008FFF1
4FFF50017FFFF1
0DFFFDCEFFFFF1
03EFFFFFF8EFF1
002AEFEA40EFF1
ENDCHAR
STARTCHAR Uhungarumlaut
ENCODING 368
SWIDTH 561 0
DWIDTH 20 0
BBX 16 33 2 0
BITMAP
000000AFF809FFC0
000003FFD15FFE20
00000BFF42EFF400
00003FFA0BFF7000
00006BD13ADA0000
0000000000000000
0000000000000000
BFF7000000003FFF
BFF7000000003FFF
BFF7000000003FFF
BFF7000000003FFF
BFF7000000003FFF
BFF7000000003FFF
BFF7000000003FFF
BFF7000000003FFF
BFF7000000003FFF
BFF7000000003FFF
BFF7000000003FFF
BFF7000000003FFF
BFF7000000003FFF
BFF7000000003FFF
BFF7000000003FFF
BFF7000000003FFF
BFF7000000003FFF
BFF7000000003FFF
AFF8000000004FFF
9FF9000000005FFE
7FFC000000008FFB
3FFF40000001EFF7
0BFFE500003CFFE1
02EFFFECCDFFFF40
003DFFFFFFFFE400
00005ADEFDB61000
ENDCHAR
STARTCHAR uhungarumlaut
ENCODING 369
SWIDTH 483 0
DWIDTH 17 0
BBX 14 26 2 0
BITMAP
00002FFF21EFF6
00009FF70BFF90
0002FFC07FFC00
000AFF33FFE200
0009D907BE4000
00000000000000
00000000000000
BFF5000001FFF1
BFF5000001FFF1
BFF5000001FFF1
BFF5000001FFF1
BFF5000001FFF1
BFF5000001FFF1
BFF5000001FFF1
BFF5000001FFF1
BFF5000001FFF1
BFF5000001FFF1
BFF5000001FFF1
BFF5000001FFF1
BFF6000001FFF1
AFF7000001FFF1
8FFB000008FFF1
4FFF50017FFFF1
0DFFFDCEFFFFF1
03EFFFFFF8EFF1
002AEFEA40EFF1
ENDCHAR
STARTCHAR Uogonek
ENCODING 370
SWIDTH 561 0
DWIDTH 20 0
BBX 16 33 2 -7
BITMAP
BFF7000000003FFF
BFF7000000003FFF
BFF7000000003FFF
BFF7000000003FFF
BFF7000000003FFF
BFF7000000003FFF
BFF7000000003FFF
BFF7000000003FFF
BFF7000000003FFF
BFF7000000003FFF
BFF7000000003FFF
BFF7000000003FFF
BFF7000000003FFF
BFF7000000003FFF
BFF7000000003FFF
BFF7000000003FFF
BFF7000000003FFF
BFF7000000003FFF
AFF8000000004FFF
9FF9000000005FFE
7FFC000000008FFB
3FFF40000001EFF7
0BFFE500003CFFE1
02EFFFECCDFFFF50
003DFFFFFFFFE500
00005ADEFFF91000
00000002EFC00000
00000008FF300000
0000000CFD000000
0000000DFC000000
0000000BFF884000
00000006FFFF7000
000000007DEB3000
ENDCHAR
STARTCHAR uogonek
ENCODING 371
SWIDTH 483 0
DWIDTH 17 0
BBX 14 26 2 -7
BITMAP
BFF5000001FFF1
BFF5000001FFF1
BFF5000001FFF1
BFF5000001FFF1
BFF5000001FFF1
BFF5000001FFF1
BFF5000001FFF1
BFF5000001FFF1
BFF5000001FFF1
BFF5000001FFF1
BFF5000001FFF1
BFF5000001FFF1
BFF6000001FFF1
AFF7000001FFF1
8FFB000008FFF1
4FFF50017FFFF1
0DFFFDCEFFFFF1
03EFFFFFF8EFF1
002AEFEA40EFF1
0000000008FF50
000000007FF400
00000001EFA000
00000003FF6000
00000003FFD7A0
00000000DFFFF1
000000003BED81
ENDCHAR
STARTCHAR Wcircumflex
ENCODING 372
SWIDTH 761 0
DWIDTH 27 0
BBX 26 33 1 0
BITMAP
000000000005FF500000000000
00000000004FFFE30000000000
0000000002EFAAFE2000000000
000000001DFD11DFC100000000
000000005BE4004EB400000000
00000000000000000000000000
00000000000000000000000000
AFF800000008FF60000000DFF6
7FFB0000000BFF90000000FFF3
4FFE0000000EFFC0000003FFE0
1FFF1000003FFFF1000005FFC0
0DFF4000006FFFF4000008FF90
0AFF700000AFEFF700000BFF60
07FF900000DFCDFB00000DFF30
04FFC00002FF8AFE00001FFF00
01FFF00005FF57FF20004FFC00
00DFF20008FF14FF50006FF900
00BFF5000CFD01FF90009FF600
008FF8000FF900CFC000CFF300
005FFA004FF6009FF100EFF100
002FFD007FF2005FF402FFC000
000EFF10AFE0002FF704FF9000
000BFF30EFA0000DFA07FF6000
0008FF62FF70000AFD0AFF4000
0005FF96FF300007FF2CFF1000
0002FFB9FF000003FF5EFD0000
0000EFDCFC000000FF9FFA0000
0000BFEEF8000000CFEFF70000
00008FFFF40000008FFFF40000
00005FFFF10000005FFFF10000
00002FFFD00000001FFFD00000
00000EFF900000000DFFA00000
00000CFF500000000AFF700000
ENDCHAR
STARTCHAR wcircumflex
ENCODING 373
SWIDTH 649 0
DWIDTH 23 0
BBX 22 27 1 0
BITMAP
000000000BFD1000000000
000000009FFFB000000000
00000007FF6EF900000000
0000005FF805FF70000000
0000008CC000ADA1000000
0000000000000000000000
0000000000000000000000
0000000000000000000000
FFF100000BFF100000BFF5
BFF400000EFF400000EFF1
8FF700004FFF800002FFD0
4FFB00008FFFC00005FF90
1FFE0000CFFFF10009FF50
0CFF2001FFEFF5000CFF20
08FF6005FF6FF9000FFD00
05FF9009FF1CFD003FF900
01FFD00DFC08FF206FF600
00CFF12FF804FF60AFF200
009FF46FF400EFA0DFD000
005FF8AFF000BFE1FFA000
001FFBEFB0007FF8FF6000
000DFFFF70003FFEFF2000
0009FFFF30000DFFFE0000
0005FFFE000009FFFA0000
0002FFFA000005FFF60000
0000DFF6000001FFF30000
00009FF2000000CFE00000
ENDCHAR
STARTCHAR Ycircumflex
ENCODING 374
SWIDTH 524 0
DWIDTH 19 0
BBX 19 33 0 0
BITMAP
00000001CFC100000000
0000000BFFFA00000000
0000009FF5FF80000000
000006FF607FF6000000
000009CB000BC9000000
00000000000000000000
00000000000000000000
4FFF60000000008FFF10
0CFFC000000000EFF900
05FFF300000005FFF300
00DFF90000000BFFB000
007FFE1000002FFF4000
001EFF6000008FFD0000
0009FFC00000EFF60000
0002FFF30005FFE00000
0000AFF9000BFF700000
00003FFE102FFF100000
00000CFF608FF9000000
000005FFC0EFF2000000
000000DFF8FFB0000000
0000007FFFFF40000000
0000001EFFFC00000000
00000008FFF600000000
00000003FFF000000000
00000003FFF000000000
00000003FFF000000000
00000003FFF000000000
00000003FFF000000000
00000003FFF000000000
00000003FFF000000000
00000003FFF000000000
00000003FFF000000000
00000003FFF000000000
ENDCHAR
STARTCHAR ycircumflex
ENCODING 375
SWIDTH 416 0
DWIDTH 15 0
BBX 15 34 0 -7
BITMAP
0000008FE3000000
000006FFFD200000
00004FF7CFC10000
0002EFB02FFA0000
0006BD2006DA3000
0000000000000000
0000000000000000
0000000000000000
4FFF2000002FFF20
0EFF6000006FFD00
09FFA00000AFF800
05FFE00000EFF400
01FFF30003FFE000
00BFF70006FFA000
006FFB000AFF6000
002FFE000EFF1000
000CFF303FFC0000
0007FF707FF70000
0003FFB0BFF30000
0000DFF1EFE00000
00009FF7FF900000
00004FFEFF500000
00000EFFFF100000
00000AFFFB000000
000005FFF6000000
000001FFF2000000
000000DFD0000000
000002FF80000000
000007FF40000000
00000DFE00000000
0001AFF800000000
06DFFFE100000000
07FFFF5000000000
05EFB30000000000
ENDCHAR
STARTCHAR Ydieresis
ENCODING 376
SWIDTH 524 0
DWIDTH 19 0
BBX 19 32 0 0
BITMAP
00004A8100007A400000
0001EFF80007FFF20000
0001FFF90008FFF30000
00008ED30002CE900000
00000000000000000000
00000000000000000000
4FFF60000000008FFF10
0CFFC000000000EFF900
05FFF300000005FFF300
00DFF90000000BFFB000
007FFE1000002FFF4000
001EFF6000008FFD0000
0009FFC00000EFF60000
0002FFF30005FFE00000
0000AFF9000BFF700000
00003FFE102FFF100000
00000CFF608FF9000000
000005FFC0EFF2000000
000000DFF8FFB0000000
0000007FFFFF40000000
0000001EFFFC00000000
00000008FFF600000000
00000003FFF000000000
00000003FFF000000000
00000003FFF000000000
00000003FFF000000000
00000003FFF000000000
00000003FFF000000000
00000003FFF000000000
00000003FFF000000000
00000003FFF000000000
00000003FFF000000000
ENDCHAR
STARTCHAR Zacute
ENCODING 377
SWIDTH 522 0
DWIDTH 19 0
BBX 17 33 1 0
BITMAP
0000000005FFF80000
000000002EFF900000
00000000CFFA000000
00000009FFA0000000
0000001ADB00000000
000000000000000000
000000000000000000
4FFFFFFFFFFFFFFD00
4FFFFFFFFFFFFFFD00
3CCCCCCCCCCCEFFC00
000000000003FFF400
00000000000BFFB000
00000000004FFF2000
0000000000DFF90000
0000000006FFE10000
000000001EFF700000
000000008FFD000000
00000002FFF5000000
0000000AFFC0000000
0000003FFF30000000
000000CFFA00000000
000005FFF200000000
00000DFF8000000000
00007FFE1000000000
0001EFF60000000000
0009FFC00000000000
003FFF400000000000
00BFFB000000000000
04FFF2000000000000
0DFF90000000000000
5FFFCCCCCCCCCCCC40
6FFFFFFFFFFFFFFF50
6FFFFFFFFFFFFFFF50
ENDCHAR
STARTCHAR zacute
ENCODING 378
SWIDTH 438 0
DWIDTH 16 0
BBX 14 26 1 0
BITMAP
00000000CFFD20
00000009FFE200
0000005FFE3000
000002EFE30000
000006BE400000
00000000000000
00000000000000
4FFFFFFFFFFFF0
4FFFFFFFFFFFF0
3AAAAAAAAEFFD0
000000002FFF40
00000000BFFA00
00000006FFE100
0000001EFF6000
000000AFFB0000
000004FFF20000
00000DFF800000
00008FFD000000
0003FFF4000000
000CFF90000000
006FFE10000000
01EFF500000000
0AFFB000000000
3FFFBAAAAAAAA4
5FFFFFFFFFFFF6
5FFFFFFFFFFFF6
ENDCHAR
STARTCHAR Zdotaccent
ENCODING 379
SWIDTH 522 0
DWIDTH 19 0
BBX 17 32 1 0
BITMAP
00000007A700000000
0000004FFF40000000
0000006FFF50000000
0000001BEB00000000
000000000000000000
000000000000000000
4FFFFFFFFFFFFFFD00
4FFFFFFFFFFFFFFD00
3CCCCCCCCCCCEFFC00
000000000003FFF400
00000000000BFFB000
00000000004FFF2000
0000000000DFF90000
0000000006FFE10000
000000001EFF700000
000000008FFD000000
00000002FFF5000000
0000000AFFC0000000
0000003FFF30000000
000000CFFA00000000
000005FFF200000000
00000DFF8000000000
00007FFE1000000000
0001EFF60000000000
0009FFC00000000000
003FFF400000000000
00BFFB000000000000
04FFF2000000000000
0DFF90000000000000
5FFFCCCCCCCCCCCC40
6FFFFFFFFFFFFFFF50
6FFFFFFFFFFFFFFF50
ENDCHAR
STARTCHAR zdotaccent
ENCODING 380
SWIDTH 438 0
DWIDTH 16 0
BBX 14 26 1 0
BITMAP
000003A9200000
00000CFFB00000
00000EFFC00000
000006EE400000
00000000000000
00000000000000
00000000000000
4FFFFFFFFFFFF0
4FFFFFFFFFFFF0
3AAAAAAAAEFFD0
000000002FFF40
00000000BFFA00
00000006FFE100
0000001EFF6000
000000AFFB0000
000004FFF20000
00000DFF800000
00008FFD000000
0003FFF4000000
000CFF90000000
006FFE10000000
01EFF500000000
0AFFB000000000
3FFFBAAAAAAAA4
5FFFFFFFFFFFF6
5FFFFFFFFFFFF6
ENDCHAR
STARTCHAR Zcaron
ENCODING 381
SWIDTH 522 0
DWIDTH 19 0
BBX 17 33 1 0
BITMAP
0001DFB000BFD10000
00003FF607FF300000
000006FF5FF6000000
0000009FFF90000000
0000001CFB00000000
000000000000000000
000000000000000000
4FFFFFFFFFFFFFFD00
4FFFFFFFFFFFFFFD00
3CCCCCCCCCCCEFFC00
000000000003FFF400
00000000000BFFB000
00000000004FFF2000
0000000000DFF90000
0000000006FFE10000
000000001EFF700000
000000008FFD000000
00000002FFF5000000
0000000AFFC0000000
0000003FFF30000000
000000CFFA00000000
000005FFF200000000
00000DFF8000000000
00007FFE1000000000
0001EFF60000000000
0009FFC00000000000
003FFF400000000000
00BFFB000000000000
04FFF2000000000000
0DFF90000000000000
5FFFCCCCCCCCCCCC40
6FFFFFFFFFFFFFFF50
6FFFFFFFFFFFFFFF50
ENDCHAR
STARTCHAR zcaron
ENCODING 382
SWIDTH 438 0
DWIDTH 16 0
BBX 14 27 1 0
BITMAP
007FF3005FF600
000BFD11EFA000
0001DF9AFC1000
00003FFFE20000
000006FF400000
00000000000000
00000000000000
00000000000000
4FFFFFFFFFFFF0
4FFFFFFFFFFFF0
3AAAAAAAAEFFD0
000000002FFF40
00000000BFFA00
00000006FFE100
0000001EFF6000
000000AFFB0000
000004FFF20000
00000DFF800000
00008FFD000000
0003FFF4000000
000CFF90000000
006FFE10000000
01EFF500000000
0AFFB000000000
3FFFBAAAAAAAA4
5FFFFFFFFFFFF6
5FFFFFFFFFFFF6
ENDCHAR
STARTCHAR longs
ENCODING 383
SWIDTH 234 0
DWIDTH 8 0
BBX 8 27 2 0
BITMAP
0017CFEB
01CFFFFC
08FFFDB8
0EFF9000
3FFF1000
4FFD0000
5FFC0000
5FFC0000
5FFC0000
5FFC0000
5FFC0000
5FFC0000
5FFC0000
5FFC0000
5FFC0000
5FFC0000
5FFC0000
5FFC0000
5FFC0000
5FFC0000
5FFC0000
5FFC0000
5FFC0000
5FFC0000
5FFC0000
5FFC0000
5FFC0000
ENDCHAR
STARTCHAR uni018F
ENCODING 399
SWIDTH 597 0
DWIDTH 22 0
BBX 19 26 1 0
BITMAP
000049CEFEC830000000
002CFFFFFFFFFA100000
002FFFFDDEFFFFD20000
000CB5100028FFFD1000
0001000000003EFF8000
00000000000006FFF200
00000000000000CFF700
000000000000007FFC00
000000000000002FFF10
000000000000000FFF30
000000000000000DFF50
000000000000000DFF60
7FFFFFFFFFFFFFFFFF60
7FFFFFFFFFFFFFFFFF70
6FFE99999999999EFF60
6FFC00000000000EFF50
5FFD00000000001FFF30
3FFE00000000004FFF10
0FFF20000000008FFC00
0BFF6000000000DFF700
06FFC000000006FFE100
01EFF70000002EFF8000
006FFF920005EFFD1000
0009FFFFDCEFFFD20000
00007FFFFFFFFB200000
0000027CEFEA50000000
ENDCHAR
STARTCHAR florin
ENCODING 402
SWIDTH 309 0
DWIDTH 11 0
BBX 11 34 0 -7
BITMAP
0000019DFE80
00002DFFFF90
0000BFFFDC70
0002FFF60000
0006FFD00000
0007FFA00000
0008FF900000
0008FF900000
0FFFFFFFF600
0FFFFFFFF600
088BFFC88300
0008FF900000
0008FF900000
0008FF900000
0008FF900000
0008FF900000
0008FF900000
0008FF900000
0008FF900000
0008FF900000
0008FF900000
0008FF900000
0008FF900000
0008FF900000
0008FF900000
0008FF900000
0008FF900000
0008FF900000
0008FF900000
000AFF700000
002EFF400000
9BEFFD000000
CFFFF4000000
BFEA30000000
ENDCHAR
STARTCHAR Ohorn
ENCODING 416
SWIDTH 592 0
DWIDTH 21 0
BBX 21 28 1 0
BITMAP
000000000000000003BB50
000000000000000006FF70
0000016BEFDA400008FF50
00003DFFFFFFFA100DFF10
0004EFFFFEFFFFC2AFFA00
001EFFE50016EFFFFFE200
009FFE2000003EFFFC2000
02FFF500000006FFD00000
07FFC000000000EFF30000
0CFF70000000009FF80000
0FFF30000000005FFC0000
2FFF10000000003FFE0000
4FFE00000000001FFF1000
5FFE00000000001FFF2000
5FFD00000000000FFF2000
5FFD00000000000FFF2000
5FFE00000000001FFF2000
4FFE00000000001FFF1000
2FFF10000000003FFF0000
0FFF30000000005FFD0000
0CFF70000000009FFA0000
07FFC000000000DFF60000
02FFF400000005FFE10000
009FFE2000002EFF800000
001EFFD50005EFFE100000
0004FFFFFDFFFFE3000000
00003DFFFFFFFD30000000
0000016BEFDB6000000000
ENDCHAR
STARTCHAR ohorn
ENCODING 417
SWIDTH 502 0
DWIDTH 18 0
BBX 18 22 1 0
BITMAP
000000000000000221
000000000000002FF5
000000000000003FF4
000018CEED92006FF1
0004EFFFFFFF73DFC0
003EFFEBBEFFFFFE30
00CFFB1001BFFFB300
06FFE100001DFF8000
0BFF70000006FFD000
0FFF20000001FFF200
3FFE00000000EFF400
4FFD00000000CFF500
4FFC00000000CFF500
4FFD00000000CFF400
3FFE00000000EFF300
0FFF20000002FFF100
0BFF70000006FFC000
06FFD100001DFF6000
00DFFB1001BFFD0000
003EFFEBBEFFF40000
0004EFFFFFFE400000
000018CEEC81000000
ENDCHAR
STARTCHAR Uhorn
ENCODING 431
SWIDTH 608 0
DWIDTH 22 0
BBX 22 28 2 0
BITMAP
0000000000000000000332
0000000000000000000EFA
BFF7000000003FFF000FFA
BFF7000000003FFF003FF7
BFF7000000003FFF009FF3
BFF7000000003FFF39FFC0
BFF7000000003FFFFFFE30
BFF7000000003FFFFFC300
BFF7000000003FFF520000
BFF7000000003FFF000000
BFF7000000003FFF000000
BFF7000000003FFF000000
BFF7000000003FFF000000
BFF7000000003FFF000000
BFF7000000003FFF000000
BFF7000000003FFF000000
BFF7000000003FFF000000
BFF7000000003FFF000000
BFF7000000003FFF000000
BFF7000000003FFF000000
AFF8000000004FFE000000
8FFB000000007FFC000000
4FFE10000000CFF9000000
1EFF80000005FFF3000000
07FFF810006EFFA0000000
00BFFFFCCEFFFD10000000
0009FFFFFFFFB100000000
000039DEFDA40000000000
ENDCHAR
STARTCHAR uhorn
ENCODING 432
SWIDTH 549 0
DWIDTH 20 0
BBX 18 21 2 0
BITMAP
0000000000000007C9
0000000000000009FB
BFF5000001FFF10BF8
BFF5000001FFF26FF4
BFF5000001FFFFFFB0
BFF5000001FFFEC700
BFF5000001FFF10000
BFF5000001FFF10000
BFF5000001FFF10000
BFF5000001FFF10000
BFF5000001FFF10000
BFF5000001FFF10000
BFF5000001FFF10000
BFF5000001FFF10000
BFF6000001FFF10000
AFF7000001FFF10000
8FFB000008FFF10000
4FFF50017FFFF10000
0DFFFDCEFFFFF10000
03EFFFFFF8EFF10000
002AEFEA40EFF10000
ENDCHAR
STARTCHAR uni01F0
ENCODING 496
SWIDTH 237 0
DWIDTH 9 0
BBX 11 34 -1 -7
BITMAP
1EFA000CFD10
04FF608FE300
007FE5FF5000
000AFFF80000
0001CFB00000
000000000000
000000000000
000000000000
0002FFE00000
0002FFE00000
0002FFE00000
0002FFE00000
0002FFE00000
0002FFE00000
0002FFE00000
0002FFE00000
0002FFE00000
0002FFE00000
0002FFE00000
0002FFE00000
0002FFE00000
0002FFE00000
0002FFE00000
0002FFE00000
0002FFE00000
0002FFE00000
0002FFE00000
0002FFE00000
0003FFE00000
0005FFD00000
000BFFA00000
5BCFFF400000
7FFFF9000000
6EEC60000000
ENDCHAR
STARTCHAR Aringacute
ENCODING 506
SWIDTH 576 0
DWIDTH 21 0
BBX 20 34 0 0
BITMAP
000000000007FF700000
00000000005FF5000000
0000000000AD40000000
00000000000000000000
000000001BEB10000000
00000000BD7DA0000000
00000001F506F0000000
00000001F505F0000000
00000000EFFFB0000000
000000009FFF50000000
00000000CFFF80000000
00000002FFFFD0000000
00000006FFEFF3000000
0000000BFF7FF8000000
0000001FFC1FFC000000
0000006FF70BFF200000
000000BFF306FF700000
000001FFD002FFC00000
000005FF9000CFF20000
00000AFF40008FF60000
00000EFE00003FFB0000
00004FFA00000DFF1000
00009FF5000009FF5000
0000EFF1000004FFA000
0004FFFFFFFFFFFFE100
0008FFFFFFFFFFFFF500
000DFFCCCCCCCCDFFA00
003FFD000000001FFE00
008FF9000000000CFF40
00CFF40000000008FF90
02FFF10000000004FFD0
07FFB00000000000EFF3
0CFF700000000000BFF8
1FFF3000000000006FFD
ENDCHAR
STARTCHAR aringacute
ENCODING 507
SWIDTH 479 0
DWIDTH 17 0
BBX 14 29 2 0
BITMAP
00000001DFD200
0000000CFC1000
0000004CA00000
00000000000000
000006DD600000
00003F99F30000
00008D00D70000
00008C00D70000
00004F99F30000
000006DD600000
00039DEEC82000
008FFFFFFFE400
07FFFDBCFFFE10
2FFF70003EFF60
7FFB000008FFA0
7BB6000006FFB0
0000000005FFB0
0000000005FFB0
00049CEFFFFFB0
01BFFFFFFFFFB0
1CFFFB7548FFB0
7FFD200005FFB0
CFF5000005FFB0
EFF2000005FFB0
EFF4000009FFB0
CFFC10029FFFC0
6FFFFDDFFEFFD0
0AFFFFFFD4FFF1
005BEFD811FFF4
ENDCHAR
STARTCHAR AEacute
ENCODING 508
SWIDTH 812 0
DWIDTH 29 0
BBX 29 33 0 0
BITMAP
000000000000000AFFE30000000000
000000000000006FFF400000000000
00000000000003FFF5000000000000
0000000000001DFF50000000000000
0000000000004BE600000000000000
000000000000000000000000000000
000000000000000000000000000000
0000000000004FFFFFFFFFFFFFF800
000000000000CFFFFFFFFFFFFFF800
000000000004FFFFFCAAAAAAAAA500
00000000000CFFFFF5000000000000
00000000004FFDBFF5000000000000
0000000000CFF6BFF6000000000000
0000000004FFE0AFF6000000000000
000000000CFF70AFF7000000000000
000000004FFE109FF8000000000000
00000000CFF9009FF8000000000000
00000004FFF2008FF9000000000000
0000000CFFA0008FFFFFFFFFFF4000
0000004FFF30007FFFFFFFFFFF4000
000000CFFB00007FFDAAAAAAAA3000
000004FFF500006FFB000000000000
00000CFFD000006FFB000000000000
00004FFF6000005FFC000000000000
0000CFFFFFFFFFFFFC000000000000
0004FFFFFFFFFFFFFD000000000000
000CFFFFFFFFFFFFFD000000000000
004FFF811111114FFE000000000000
00CFFE100000003FFE000000000000
04FFF8000000002FFF000000000000
0CFFE1000000002FFFAAAAAAAAAA40
4FFF80000000001FFFFFFFFFFFFF60
CFFE10000000000FFFFFFFFFFFFF60
ENDCHAR
STARTCHAR aeacute
ENCODING 509
SWIDTH 728 0
DWIDTH 26 0
BBX 24 26 1 0
BITMAP
0000000000000BFFE3000000
0000000000007FFE30000000
000000000004FFF400000000
00000000001EFF5000000000
00000000005BE50000000000
000000000000000000000000
000000000000000000000000
00017CEFD930004BEFD93000
004EFFFFFFF609FFFFFFF600
03EFFFCBEFFFBFFFCBDFFF40
0AFFE3001BFFFFE40008FFD0
0FFF500003FFFF700000CFF4
1ACD100000EFFE1000007FF8
0000000000CFFA0000004FFB
0000000000CFF70000003FFC
00049CDEEEFFFFFFFFFFFFFD
01AFFFFFFFFFFFFFFFFFFFFD
0AFFFDA888DFFA8888888887
3FFF800000CFF60000000000
7FFD000000CFF80000000000
8FF9000000CFFD0000000000
7FFB000001DFFF6000000020
4FFF40004DFFFFF6000029E1
0DFFFCADFFFA9FFFDAACFFF6
03EFFFFFFF9008FFFFFFFFC2
0029DFEC83000039DEED9400
ENDCHAR
STARTCHAR Oslashacute
ENCODING 510
SWIDTH 600 0
DWIDTH 22 0
BBX 18 35 2 -2
BITMAP
0000000001DFFD2000
000000000AFFD20000
000000006FFE200000
00000003FFE3000000
00000007CE30000000
000000000000000000
0000000000000006B7
000004ADFEC8201EF4
0001AFFFFFFFF69FB0
001CFFFFEFFFFFFF30
00AFFF92003BFFFA00
04FFF6000000AFFD00
0BFFB0000000BFFF50
1FFF30000004FFFFB0
6FFD0000000CFBFFF0
9FF90000005FE2FFF3
BFF7000000CF70CFF6
DFF5000006FE10BFF7
EFF400000DF600AFF8
EFF400006FD000AFF8
EFF40001EF5000AFF8
DFF40007FC0000AFF8
CFF5001EF40000BFF7
BFF6008FB00000CFF6
9FF902FF400000FFF3
6FFD09FB000003FFF1
2FFF5FF3000008FFB0
0AFFFFA000001EFF60
04FFFF200000AFFD00
009FFF71003BFFF500
004FFFFFDEFFFF7000
00CFDFFFFFFFF70000
05FE14ADFEC8200000
0CF700000000000000
144000000000000000
ENDCHAR
STARTCHAR oslashacute
ENCODING 511
SWIDTH 498 0
DWIDTH 18 0
BBX 16 28 1 -2
BITMAP
000000007FFF6000
00000003FFF70000
0000001DFF800000
000000BFF9000000
000002AD90000000
000000000002DB00
000000000008F600
000018CEEC8EE100
0004EFFFFFFFA000
003EFFEBBEFFF300
00CFFB1005FFFD00
06FFE1000BFEFF60
0BFF70002FD6FFB0
0FFF20009F71FFF1
3FFE0001EE10EFF3
4FFD0007F900CFF4
4FFC000DF200CFF5
3FFD005FB000CFF5
2FFE00BF4000EFF3
0EFF22FD0002FFF1
0BFF69F70006FFC0
06FFDEE1001DFF60
00DFFF9001BFFD10
003EFFEBBEFFF400
0007FFFFFFFE4000
000BF9CEEC810000
002FD00000000000
009F600000000000
ENDCHAR
STARTCHAR uni0218
ENCODING 536
SWIDTH 518 0
DWIDTH 19 0
BBX 17 35 1 -9
BITMAP
000017BEFEB7100000
0004EFFFFFFFE40000
004FFFFDCDFFFF4000
01EFFC30003CFFE100
06FFE1000001DFF700
0AFF900000006FFD00
0CFF700000003FFF00
0CFF700000001CCC10
0AFFC0000000000000
05FFF8000000000000
00BFFFC30000000000
002DFFFFC610000000
0001BFFFFFF9200000
000004BFFFFFE60000
000000028EFFFF8000
00000000006EFFF400
000000000002DFFB00
0000000000006FFF00
6CC9000000002FFF20
6FFD000000001FFF20
3FFF200000003FFF10
0CFFB0000000AFFC00
04FFFB300018FFF600
006FFFFDCCFFFFB000
0005EFFFFFFFFA1000
000016BDFED9300000
000000000000000000
000000000000000000
0000000DFF10000000
0000000DFF10000000
0000000EFE00000000
0000002FFB00000000
0000006FF600000000
000000CFD000000000
0000002B3000000000
ENDCHAR
STARTCHAR uni0219
ENCODING 537
SWIDTH 455 0
DWIDTH 16 0
BBX 14 28 1 -9
BITMAP
00016CEFEA4000
002DFFFFFFFA00
00DFFFCBEFFF90
06FFE30009FFF2
09FF800000DFF6
0AFF7000005884
08FFD200000000
02EFFF92000000
004EFFFFB50000
0002AFFFFFC300
0000028EFFFF60
000000017EFFF2
0000000002EFF8
3CCC0000008FFA
2FFF3000008FF9
0CFFC20003EFF5
03FFFFCACFFFD0
004EFFFFFFFD20
00017CEFEB6100
00000000000000
00000000000000
000000BFF40000
000000BFF30000
000000CFF20000
000000EFE00000
000004FF900000
00000AFF200000
000001A6000000
ENDCHAR
STARTCHAR uni021A
ENCODING 538
SWIDTH 520 0
DWIDTH 19 0
BBX 17 35 1 -9
BITMAP
EFFFFFFFFFFFFFFFB0
EFFFFFFFFFFFFFFFB0
BCCCCCDFFFCCCCCC80
0000004FFF00000000
0000004FFF00000000
0000004FFF00000000
0000004FFF00000000
0000004FFF00000000
0000004FFF00000000
0000004FFF00000000
0000004FFF00000000
0000004FFF00000000
0000004FFF00000000
0000004FFF00000000
0000004FFF00000000
0000004FFF00000000
0000004FFF00000000
0000004FFF00000000
0000004FFF00000000
0000004FFF00000000
0000004FFF00000000
0000004FFF00000000
0000004FFF00000000
0000004FFF00000000
0000004FFF00000000
0000004FFF00000000
000000000000000000
000000000000000000
0000001FFD00000000
0000001FFD00000000
0000002FFB00000000
0000005FF800000000
000000AFF300000000
000001FFB000000000
0000004C1000000000
ENDCHAR
STARTCHAR uni021B
ENCODING 539
SWIDTH 295 0
DWIDTH 11 0
BBX 10 33 0 -9
BITMAP
000AFF6000
000AFF6000
000AFF6000
000AFF6000
000AFF6000
9FFFFFFFF4
9FFFFFFFF4
588DFFB882
000AFF6000
000AFF6000
000AFF6000
000AFF6000
000AFF6000
000AFF6000
000AFF6000
000AFF6000
000AFF6000
000AFF6000
000AFF6000
000AFF7000
0009FFB000
0005FFFDD4
0000CFFFF4
00002AEFC3
0000000000
0000000000
000005FF90
000005FF90
000006FF70
000009FF40
00000EFE00
00004FF700
000007A000
ENDCHAR
STARTCHAR uni0237
ENCODING 567
SWIDTH 237 0
DWIDTH 9 0
BBX 7 26 -1 -7
BITMAP
0002FFE0
0002FFE0
0002FFE0
0002FFE0
0002FFE0
0002FFE0
0002FFE0
0002FFE0
0002FFE0
0002FFE0
0002FFE0
0002FFE0
0002FFE0
0002FFE0
0002FFE0
0002FFE0
0002FFE0
0002FFE0
0002FFE0
0002FFE0
0003FFE0
0005FFD0
000BFFA0
5BCFFF40
7FFFF900
6EEC6000
ENDCHAR
STARTCHAR uni0259
ENCODING 601
SWIDTH 465 0
DWIDTH 17 0
BBX 15 19 1 0
BITMAP
0005ADEEC8100000
01BFFFFFFFE40000
08FFFCABEFFF4000
02FA20001BFFD100
0030000001EFF600
00000000007FFB00
00000000002FFF00
00000000000EFF20
00000000000DFF30
3FFFFFFFFFFFFF40
3FFFFFFFFFFFFF30
2FFFAAAAAAAFFF20
1FFF0000002FFE00
0EFF2000006FFA00
0AFF800000DFF500
05FFE40009FFC000
00BFFFCADFFE3000
001CFFFFFFE30000
00006BEFD9100000
ENDCHAR
STARTCHAR uni02BC
ENCODING 700
SWIDTH 194 0
DWIDTH 7 0
BBX 5 9 1 18
BITMAP
09FF70
09FF70
09FF70
0AFF50
0CFF30
1FFD00
7FF700
DFD100
2B3000
ENDCHAR
STARTCHAR circumflex
ENCODING 710
SWIDTH 428 0
DWIDTH 15 0
BBX 9 5 3 22
BITMAP
001CFC1000
00AFFFA000
08FF5FF800
6FF707FF60
9CB000BC90
ENDCHAR
STARTCHAR caron
ENCODING 711
SWIDTH 403 0
DWIDTH 15 0
BBX 10 5 2 22
BITMAP
5FF6002EF9
08FE20CFC0
00BFC8FE20
001DFFF400
0003FF6000
ENDCHAR
STARTCHAR uni02C9
ENCODING 713
SWIDTH 414 0
DWIDTH 15 0
BBX 11 2 2 22
BITMAP
8FFFFFFFFFA0
8FFFFFFFFFA0
ENDCHAR
STARTCHAR breve
ENCODING 728
SWIDTH 426 0
DWIDTH 15 0
BBX 11 6 2 20
BITMAP
AFF00000EFB0
8FF30002FF90
2FFD313CFF30
06FFFFFFF700
004BFFFC5000
000001000000
ENDCHAR
STARTCHAR dotaccent
ENCODING 729
SWIDTH 242 0
DWIDTH 9 0
BBX 5 4 2 22
BITMAP
08A600
6FFF30
7FFF40
1CEA00
ENDCHAR
STARTCHAR ring
ENCODING 730
SWIDTH 334 0
DWIDTH 12 0
BBX 8 7 2 21
BITMAP
03BEEA20
3FFABFD1
AF4006F8
DE0001FA
BF3006F8
3FEAAFE2
03BEEA20
ENDCHAR
STARTCHAR ogonek
ENCODING 731
SWIDTH 253 0
DWIDTH 9 0
BBX 6 8 1 -7
BITMAP
002A90
05FF80
3FF800
AFE000
EFB000
DFF894
8FFFF6
19EEA2
ENDCHAR
STARTCHAR tilde
ENCODING 732
SWIDTH 427 0
DWIDTH 15 0
BBX 11 5 2 22
BITMAP
004730002B80
09FFF7006FB0
3FFFFFC8EF80
8FC14DFFFE10
9E5001BEC400
ENDCHAR
STARTCHAR hungarumlaut
ENCODING 733
SWIDTH 331 0
DWIDTH 12 0
BBX 12 5 1 22
BITMAP
005FFD04FFE3
00DFF41DFF50
05FF90AFF900
0DFE16FFB000
2AD509CD1000
ENDCHAR
STARTCHAR uni02F3
ENCODING 755
SWIDTH 263 0
DWIDTH 9 0
BBX 6 6 2 -7
BITMAP
1AEC40
9E7BE1
E702F4
CB16F3
4EFF90
025400
ENDCHAR
STARTCHAR gravecomb
ENCODING 768
SWIDTH 0 0
DWIDTH 0 0
BBX 7 5 -13 22
BITMAP
4FFF7000
06FFE200
009FFB00
000CFF50
0002DC80
ENDCHAR
STARTCHAR acutecomb
ENCODING 769
SWIDTH 0 0
DWIDTH 0 0
BBX 7 5 -10 22
BITMAP
001EFF90
00AFFB00
05FFD100
1DFE2000
4BE40000
ENDCHAR
STARTCHAR tildecomb
ENCODING 771
SWIDTH 0 0
DWIDTH 0 0
BBX 11 5 -13 22
BITMAP
005720004B60
0BFFF6008F90
5FFFFFB9FF60
BFA15EFFFD00
BE3003CEC200
ENDCHAR
STARTCHAR hookabovecomb
ENCODING 777
SWIDTH 0 0
DWIDTH 0 0
BBX 5 7 -10 22
BITMAP
9EB500
9FFF60
01BFD0
008FD0
4BFF90
7FE810
6FB000
ENDCHAR
STARTCHAR uni030F
ENCODING 783
SWIDTH 0 0
DWIDTH 0 0
BBX 11 5 -14 22
BITMAP
BFFD1AFFA000
1CFFA1DFF400
01DFF74FFC00
002EFF48FF70
0003EC80BC80
ENDCHAR
STARTCHAR dotbelowcomb
ENCODING 803
SWIDTH 0 0
DWIDTH 0 0
BBX 5 4 -13 -6
BITMAP
1CEA00
7FFF40
6FFF30
08A600
ENDCHAR
STARTCHAR tonos
ENCODING 900
SWIDTH 256 0
DWIDTH 9 0
BBX 5 6 3 22
BITMAP
0EFF10
1FFB00
4FF600
7FF100
9FA000
7C5000
ENDCHAR
STARTCHAR dieresistonos
ENCODING 901
SWIDTH 452 0
DWIDTH 16 0
BBX 13 8 1 22
BITMAP
0000009FF60000
000000CFF10000
000000EFB00000
000002FF600000
05A602AD207930
1FFF300005FFD0
2FFF400006FFF0
09EB000001CE70
ENDCHAR
STARTCHAR Alphatonos
ENCODING 902
SWIDTH 576 0
DWIDTH 21 0
BBX 20 28 0 0
BITMAP
0004FFA0000000000000
0007FF50000000000000
0009FE102FFE00000000
000CFA007FFF40000000
000EF500CFFF80000000
001AD102FFFFD0000000
00000006FFEFF3000000
0000000BFF7FF8000000
0000001FFC1FFC000000
0000006FF70BFF200000
000000BFF306FF700000
000001FFD002FFC00000
000005FF9000CFF20000
00000AFF40008FF60000
00000EFE00003FFB0000
00004FFA00000DFF1000
00009FF5000009FF5000
0000EFF1000004FFA000
0004FFFFFFFFFFFFE100
0008FFFFFFFFFFFFF500
000DFFCCCCCCCCDFFA00
003FFD000000001FFE00
008FF9000000000CFF40
00CFF40000000008FF90
02FFF10000000004FFD0
07FFB00000000000EFF3
0CFF700000000000BFF8
1FFF3000000000006FFD
ENDCHAR
STARTCHAR anoteleia
ENCODING 903
SWIDTH 243 0
DWIDTH 9 0
BBX 5 4 2 11
BITMAP
2CE800
7FFF10
7FFF10
1BD700
ENDCHAR
STARTCHAR Epsilontonos
ENCODING 904
SWIDTH 496 0
DWIDTH 18 0
BBX 21 28 -4 0
BITMAP
06FF900000000000000000
08FF400000000000000000
0BFE004FFFFFFFFFFFFF50
0DF9004FFFFFFFFFFFFF50
1FF4004FFFCCCCCCCCCC40
2AC0004FFF000000000000
0000004FFF000000000000
0000004FFF000000000000
0000004FFF000000000000
0000004FFF000000000000
0000004FFF000000000000
0000004FFF000000000000
0000004FFF000000000000
0000004FFFFFFFFFFFF000
0000004FFFFFFFFFFFF000
0000004FFFCCCCCCCCC000
0000004FFF000000000000
0000004FFF000000000000
0000004FFF000000000000
0000004FFF000000000000
0000004FFF000000000000
0000004FFF000000000000
0000004FFF000000000000
0000004FFF000000000000
0000004FFF000000000000
0000004FFFCCCCCCCCCC60
0000004FFFFFFFFFFFFF80
0000004FFFFFFFFFFFFF80
ENDCHAR
STARTCHAR Etatonos
ENCODING 905
SWIDTH 620 0
DWIDTH 22 0
BBX 23 28 -3 0
BITMAP
3FFC00000000000000000000
5FF700000000000000000000
8FF204FFF0000000000BFF80
BFC004FFF0000000000BFF80
DF6004FFF0000000000BFF80
AD1004FFF0000000000BFF80
000004FFF0000000000BFF80
000004FFF0000000000BFF80
000004FFF0000000000BFF80
000004FFF0000000000BFF80
000004FFF0000000000BFF80
000004FFF0000000000BFF80
000004FFF0000000000BFF80
000004FFFFFFFFFFFFFFFF80
000004FFFFFFFFFFFFFFFF80
000004FFFCCCCCCCCCCEFF80
000004FFF0000000000BFF80
000004FFF0000000000BFF80
000004FFF0000000000BFF80
000004FFF0000000000BFF80
000004FFF0000000000BFF80
000004FFF0000000000BFF80
000004FFF0000000000BFF80
000004FFF0000000000BFF80
000004FFF0000000000BFF80
000004FFF0000000000BFF80
000004FFF0000000000BFF80
000004FFF0000000000BFF80
ENDCHAR
STARTCHAR Iotatonos
ENCODING 906
SWIDTH 250 0
DWIDTH 9 0
BBX 10 28 -3 0
BITMAP
2FFC000000
5FF7000000
7FF201FFF2
AFC001FFF2
CF7001FFF2
9D2001FFF2
000001FFF2
000001FFF2
000001FFF2
000001FFF2
000001FFF2
000001FFF2
000001FFF2
000001FFF2
000001FFF2
000001FFF2
000001FFF2
000001FFF2
000001FFF2
000001FFF2
000001FFF2
000001FFF2
000001FFF2
000001FFF2
000001FFF2
000001FFF2
000001FFF2
000001FFF2
ENDCHAR
STARTCHAR Omicrontonos
ENCODING 908
SWIDTH 610 0
DWIDTH 22 0
BBX 21 28 -1 0
BITMAP
09FF500000000000000000
0CFF100000000000000000
0EFA000039DEFDA6000000
2FF5001AFFFFFFFFD30000
4FE101BFFFFFEFFFFE3000
4BA009FFF930016EFFD100
00003FFF70000002EFF800
00009FFC000000007FFE00
0000EFF6000000001FFF40
0002FFF1000000000CFF70
0004FFE00000000009FF90
0005FFC00000000008FFA0
0006FFB00000000007FFB0
0007FFB00000000007FFC0
0007FFB00000000007FFC0
0007FFB00000000007FFC0
0007FFB00000000007FFC0
0006FFB00000000007FFB0
0006FFC00000000008FFA0
0004FFE00000000009FF90
0002FFF1000000000BFF70
0000EFF5000000001EFF40
00009FFC000000006FFE00
00003FFF70000002EFF800
000009FFF920005DFFE100
000001CFFFFEDFFFFE4000
0000001AFFFFFFFFD40000
0000000039DEFDB6000000
ENDCHAR
STARTCHAR Upsilontonos
ENCODING 910
SWIDTH 573 0
DWIDTH 21 0
BBX 24 28 -4 0
BITMAP
0BFF40000000000000000000
0DFE00000000000000000000
1FF9007FFF2000000000CFFD
4FF4001EFF8000000003FFF6
6FD00009FFE000000009FFE0
5C800002FFF50000001EFF70
00000000AFFB0000006FFF10
000000004FFF200000CFF900
000000000CFF800003FFF200
0000000005FFE00009FFB000
0000000000DFF5001EFF4000
00000000007FFB006FFC0000
00000000001EFF20CFF60000
000000000009FF83FFE00000
000000000002FFE9FF700000
000000000000AFFFFE100000
0000000000003FFFF9000000
0000000000000CFFF2000000
00000000000007FFC0000000
00000000000006FFC0000000
00000000000006FFC0000000
00000000000006FFC0000000
00000000000006FFC0000000
00000000000006FFC0000000
00000000000006FFC0000000
00000000000006FFC0000000
00000000000006FFC0000000
00000000000006FFC0000000
ENDCHAR
STARTCHAR Omegatonos
ENCODING 911
SWIDTH 591 0
DWIDTH 21 0
BBX 20 28 -1 0
BITMAP
09FF5000000000000000
0CFF1000000000000000
0EFA00004ADFEB600000
2FF5001AFFFFFFFD3000
4FE101CFFFECDFFFE300
4BA00AFFE60004DFFD10
00003FFF4000001EFF70
0000AFFA00000006FFE0
0001FFF400000000EFF4
0004FFE000000000AFF8
0007FFC0000000008FFB
0009FFA0000000006FFD
000AFF90000000005FFE
000AFF90000000004FFF
000AFF90000000004FFF
000AFF90000000005FFE
0009FF90000000005FFD
0008FFA0000000006FFC
0005FFC0000000007FFA
0002FFE0000000009FF6
0000DFF200000000DFF2
00007FF700000002FFB0
00001EFD00000008FF50
000008FF7000003FFC00
000000CFF81004EFE200
0006CCDFFFD07FFFECC9
0008FFFFFFD07FFFFFFC
0008FFFFFFD07FFFFFFC
ENDCHAR
STARTCHAR iotadieresistonos
ENCODING 912
SWIDTH 299 0
DWIDTH 11 0
BBX 13 30 -2 0
BITMAP
0000009FF70000
000000BFF20000
000000EFC00000
000001FF700000
05A602AD207A40
1FFF300005FFE0
2FFF500006FFF0
09EB000001CE80
00000000000000
00000000000000
00000000000000
00000AFF600000
00000AFF600000
00000AFF600000
00000AFF600000
00000AFF600000
00000AFF600000
00000AFF600000
00000AFF600000
00000AFF600000
00000AFF600000
00000AFF600000
00000AFF600000
00000AFF600000
00000AFF600000
00000AFF700000
000009FFB00000
000005FFFDC400
000000DFFFF400
0000002AEFD300
ENDCHAR
STARTCHAR Alpha
ENCODING 913
SWIDTH 576 0
DWIDTH 21 0
BBX 20 26 0 0
BITMAP
000000002FFE00000000
000000007FFF40000000
00000000CFFF80000000
00000002FFFFD0000000
00000006FFEFF3000000
0000000BFF7FF8000000
0000001FFC1FFC000000
0000006FF70BFF200000
000000BFF306FF700000
000001FFD002FFC00000
000005FF9000CFF20000
00000AFF40008FF60000
00000EFE00003FFB0000
00004FFA00000DFF1000
00009FF5000009FF5000
0000EFF1000004FFA000
0004FFFFFFFFFFFFE100
0008FFFFFFFFFFFFF500
000DFFCCCCCCCCDFFA00
003FFD000000001FFE00
008FF9000000000CFF40
00CFF40000000008FF90
02FFF10000000004FFD0
07FFB00000000000EFF3
0CFF700000000000BFF8
1FFF3000000000006FFD
ENDCHAR
STARTCHAR Beta
ENCODING 914
SWIDTH 545 0
DWIDTH 20 0
BBX 16 26 2 0
BITMAP
4FFFFFFFFDB60000
4FFFFFFFFFFFD200
4FFFCCCCDFFFFD10
4FFF0000008FFF70
4FFF0000000AFFC0
4FFF00000005FFF0
4FFF00000003FFF1
4FFF00000003FFF0
4FFF00000007FFD0
4FFF0000001DFF70
4FFF000014CFFC00
4FFFFFFFFFFFA100
4FFFFFFFFFFF7000
4FFFBBBBBDFFFC10
4FFF0000003DFF90
4FFF00000004FFF1
4FFF00000000DFF5
4FFF00000000BFF8
4FFF00000000AFF8
4FFF00000000BFF8
4FFF00000000EFF5
4FFF00000006FFF2
4FFF0000006FFFA0
4FFFCCCCCEFFFE20
4FFFFFFFFFFFD300
4FFFFFFFFEB61000
ENDCHAR
STARTCHAR Gamma
ENCODING 915
SWIDTH 487 0
DWIDTH 18 0
BBX 15 26 2 0
BITMAP
1FFFFFFFFFFFFF30
1FFFFFFFFFFFFF30
1FFFCCCCCCCCCC30
1FFF200000000000
1FFF200000000000
1FFF200000000000
1FFF200000000000
1FFF200000000000
1FFF200000000000
1FFF200000000000
1FFF200000000000
1FFF200000000000
1FFF200000000000
1FFF200000000000
1FFF200000000000
1FFF200000000000
1FFF200000000000
1FFF200000000000
1FFF200000000000
1FFF200000000000
1FFF200000000000
1FFF200000000000
1FFF200000000000
1FFF200000000000
1FFF200000000000
1FFF200000000000
ENDCHAR
STARTCHAR Delta.dup1
ENCODING 916
SWIDTH 614 0
DWIDTH 22 0
BBX 21 26 0 0
BITMAP
0000000005FFC000000000
000000000BFFF200000000
000000001FFFF700000000
000000006FFFFB00000000
00000000BFFFFF10000000
00000002FFEAFF60000000
00000007FF95FFB0000000
0000000CFF41FFF1000000
0000002FFE00BFF6000000
0000008FF9006FFB000000
000000DFF4001FFF100000
000003FFE0000CFF500000
000008FF900007FFA00000
00000DFF400002FFE10000
00004FFD000000DFF50000
00009FF90000008FFA0000
0000EFF30000003FFE0000
0004FFD00000000EFF5000
000AFF8000000009FF9000
001EFF3000000004FFE000
005FFD0000000000EFF400
00AFF80000000000AFF900
01FFF300000000005FFE00
06FFFCCCCCCCCCCCCFFF40
0BFFFFFFFFFFFFFFFFFF90
1FFFFFFFFFFFFFFFFFFFD0
ENDCHAR
STARTCHAR Epsilon
ENCODING 917
SWIDTH 496 0
DWIDTH 18 0
BBX 15 26 2 0
BITMAP
4FFFFFFFFFFFFF50
4FFFFFFFFFFFFF50
4FFFCCCCCCCCCC40
4FFF000000000000
4FFF000000000000
4FFF000000000000
4FFF000000000000
4FFF000000000000
4FFF000000000000
4FFF000000000000
4FFF000000000000
4FFFFFFFFFFFF000
4FFFFFFFFFFFF000
4FFFCCCCCCCCC000
4FFF000000000000
4FFF000000000000
4FFF000000000000
4FFF000000000000
4FFF000000000000
4FFF000000000000
4FFF000000000000
4FFF000000000000
4FFF000000000000
4FFFCCCCCCCCCC60
4FFFFFFFFFFFFF80
4FFFFFFFFFFFFF80
ENDCHAR
STARTCHAR Zeta
ENCODING 918
SWIDTH 522 0
DWIDTH 19 0
BBX 17 26 1 0
BITMAP
4FFFFFFFFFFFFFFD00
4FFFFFFFFFFFFFFD00
3CCCCCCCCCCCEFFC00
000000000003FFF400
00000000000BFFB000
00000000004FFF2000
0000000000DFF90000
0000000006FFE10000
000000001EFF700000
000000008FFD000000
00000002FFF5000000
0000000AFFC0000000
0000003FFF30000000
000000CFFA00000000
000005FFF200000000
00000DFF8000000000
00007FFE1000000000
0001EFF60000000000
0009FFC00000000000
003FFF400000000000
00BFFB000000000000
04FFF2000000000000
0DFF90000000000000
5FFFCCCCCCCCCCCC40
6FFFFFFFFFFFFFFF50
6FFFFFFFFFFFFFFF50
ENDCHAR
STARTCHAR Eta
ENCODING 919
SWIDTH 620 0
DWIDTH 22 0
BBX 18 26 2 0
BITMAP
4FFF0000000000BFF8
4FFF0000000000BFF8
4FFF0000000000BFF8
4FFF0000000000BFF8
4FFF0000000000BFF8
4FFF0000000000BFF8
4FFF0000000000BFF8
4FFF0000000000BFF8
4FFF0000000000BFF8
4FFF0000000000BFF8
4FFF0000000000BFF8
4FFFFFFFFFFFFFFFF8
4FFFFFFFFFFFFFFFF8
4FFFCCCCCCCCCCEFF8
4FFF0000000000BFF8
4FFF0000000000BFF8
4FFF0000000000BFF8
4FFF0000000000BFF8
4FFF0000000000BFF8
4FFF0000000000BFF8
4FFF0000000000BFF8
4FFF0000000000BFF8
4FFF0000000000BFF8
4FFF0000000000BFF8
4FFF0000000000BFF8
4FFF0000000000BFF8
ENDCHAR
STARTCHAR Theta
ENCODING 920
SWIDTH 593 0
DWIDTH 21 0
BBX 19 26 1 0
BITMAP
0000006BEFEB61000000
00002CFFFFFFFD300000
0003EFFFFEFFFFF40000
001DFFE61015EFFE1000
008FFE3000002EFF9000
01EFF700000005FFF200
05FFE000000000CFF700
0AFF90000000008FFB00
0DFF50000000004FFE00
0FFF30000000002FFF20
2FFF10000000000FFF30
3FFF00EFFFFFF80EFF40
3FFF00EFFFFFF80EFF40
3FFF009AAAAAA50EFF40
3FFF00000000000EFF40
2FFF10000000000FFF30
0FFF30000000001FFF20
0DFF50000000004FFE00
0AFF90000000007FFB00
05FFE000000000CFF700
01EFF600000004FFF200
008FFE3000001DFFA000
001DFFE60004DFFE2000
0003EFFFFDFFFFF40000
00002CFFFFFFFE400000
0000006BEFEB71000000
ENDCHAR
STARTCHAR Iota
ENCODING 921
SWIDTH 250 0
DWIDTH 9 0
BBX 5 26 2 0
BITMAP
1FFF20
1FFF20
1FFF20
1FFF20
1FFF20
1FFF20
1FFF20
1FFF20
1FFF20
1FFF20
1FFF20
1FFF20
1FFF20
1FFF20
1FFF20
1FFF20
1FFF20
1FFF20
1FFF20
1FFF20
1FFF20
1FFF20
1FFF20
1FFF20
1FFF20
1FFF20
ENDCHAR
STARTCHAR Kappa
ENCODING 922
SWIDTH 544 0
DWIDTH 20 0
BBX 18 26 2 0
BITMAP
4FFF000000006FFF70
4FFF00000002EFFB00
4FFF0000000CFFE200
4FFF0000008FFF5000
4FFF000003FFF90000
4FFF00001DFFC00000
4FFF0000AFFE200000
4FFF0005FFF6000000
4FFF002EFFA0000000
4FFF00BFFD10000000
4FFF08FFF400000000
4FFF4FFFA000000000
4FFFDFFFF300000000
4FFFFFFFFC00000000
4FFFFE6FFF60000000
4FFFF409FFE1000000
4FFF7001EFFA000000
4FFF00007FFF400000
4FFF00000CFFD00000
4FFF000004FFF70000
4FFF000000AFFF2000
4FFF0000001EFFB000
4FFF00000007FFF500
4FFF00000000DFFE10
4FFF000000004FFF90
4FFF000000000AFFF3
ENDCHAR
STARTCHAR Lambda
ENCODING 923
SWIDTH 572 0
DWIDTH 21 0
BBX 19 26 1 0
BITMAP
00000005FFC000000000
0000000AFFF100000000
0000000EFFF600000000
0000004FFFFA00000000
0000008FFFFE10000000
000000DFFFFF40000000
000002FFE9FF90000000
000007FFB4FFD0000000
00000BFF60EFF3000000
00001FFF20BFF8000000
00005FFD006FFC000000
0000AFF9002FFF200000
0000EFF4000DFF600000
0004FFF10009FFB00000
0008FFB00004FFF10000
000DFF700000EFF50000
002FFF200000BFF90000
007FFD0000006FFE0000
00BFF90000002FFF3000
01FFF40000000DFF8000
05FFF100000009FFC000
0AFFB000000004FFF200
0EFF7000000001FFF600
4FFF2000000000BFFB00
8FFD00000000006FFF10
DFF900000000002FFF50
ENDCHAR
STARTCHAR Mu
ENCODING 924
SWIDTH 755 0
DWIDTH 27 0
BBX 23 26 2 0
BITMAP
4FFFF1000000000000DFFF60
4FFFF6000000000003FFFF60
4FFFFA000000000008FFFF60
4FFFFE10000000000DFFFF60
4FFFFF50000000002FFFFF60
4FFFFFA0000000007FFFFF60
4FFCFFE000000000CFFCFF60
4FFBCFF400000001FFE8FF60
4FFB7FF900000006FF99FF60
4FFC2FFD0000000BFF49FF60
4FFC0CFF3000001FFE0AFF60
4FFD07FF8000005FF90AFF60
4FFD02FFD00000AFF40BFF60
4FFE00CFF20000EFE00BFF60
4FFE007FF70004FF900BFF60
4FFF002FFC0009FF400CFF60
4FFF000CFF200EFE000CFF60
4FFF0007FF604FF9000CFF60
4FFF0002FFB08FF4000CFF60
4FFF0000CFF1DFE0000CFF60
4FFF00007FF8FF90000CFF60
4FFF00002FFFFF40000CFF60
4FFF00000CFFFE00000CFF60
4FFF000007FFF900000CFF60
4FFF000002FFF400000CFF60
4FFF000000CFE000000CFF60
ENDCHAR
STARTCHAR Nu
ENCODING 925
SWIDTH 619 0
DWIDTH 22 0
BBX 18 26 2 0
BITMAP
4FFF4000000000BFF7
4FFFB000000000BFF7
4FFFF400000000BFF7
4FFFFC00000000BFF7
4FFFFF40000000BFF7
4FFFFFC0000000BFF7
4FFFBFF5000000BFF7
4FFF3FFC000000BFF7
4FFF0BFF500000BFF7
4FFF03FFD00000BFF7
4FFF00AFF50000BFF7
4FFF003FFD0000BFF7
4FFF000AFF6000BFF7
4FFF0002FFD000BFF7
4FFF0000AFF600BFF7
4FFF00002FFD00BFF7
4FFF000009FF60BFF7
4FFF000002FFE1BFF7
4FFF0000009FF7BFF7
4FFF0000002FFEBFF7
4FFF00000008FFFFF7
4FFF00000001EFFFF7
4FFF000000008FFFF7
4FFF000000001EFFF7
4FFF0000000008FFF7
4FFF0000000001EFF7
ENDCHAR
STARTCHAR Xi
ENCODING 926
SWIDTH 502 0
DWIDTH 18 0
BBX 15 26 2 0
BITMAP
DFFFFFFFFFFFFD00
DFFFFFFFFFFFFD00
ACCCCCCCCCCCCA00
0000000000000000
0000000000000000
0000000000000000
0000000000000000
0000000000000000
0000000000000000
0000000000000000
0000000000000000
09FFFFFFFFFFB000
09FFFFFFFFFFB000
07CCCCCCCCCC8000
0000000000000000
0000000000000000
0000000000000000
0000000000000000
0000000000000000
0000000000000000
0000000000000000
0000000000000000
0000000000000000
ACCCCCCCCCCCCC10
DFFFFFFFFFFFFF10
DFFFFFFFFFFFFF10
ENDCHAR
STARTCHAR Omicron
ENCODING 927
SWIDTH 600 0
DWIDTH 22 0
BBX 18 26 2 0
BITMAP
000006ADFED9300000
0003DFFFFFFFFA1000
003EFFFFEFFFFFB100
01DFFE610039FFF900
08FFE30000007FFF20
0EFF700000000CFF80
4FFF1000000006FFD0
7FFB0000000002FFF1
AFF80000000000EFF4
BFF70000000000DFF5
CFF60000000000CFF6
CFF60000000000CFF6
CFF60000000000CFF6
CFF60000000000CFF6
CFF60000000000CFF6
CFF60000000000CFF6
BFF70000000000DFF5
AFF80000000000EFF4
7FFB0000000002FFF2
4FFE1000000006FFE0
0EFF600000000BFF90
08FFE20000006FFF30
01DFFE610028FFF900
003EFFFFDEFFFFC100
0003DFFFFFFFFA1000
000006ADFED9400000
ENDCHAR
STARTCHAR Pi
ENCODING 928
SWIDTH 620 0
DWIDTH 22 0
BBX 18 26 2 0
BITMAP
1FFFFFFFFFFFFFFFF6
1FFFFFFFFFFFFFFFF6
1FFFCCCCCCCCCCFFF6
1FFF2000000000DFF6
1FFF2000000000DFF6
1FFF2000000000DFF6
1FFF2000000000DFF6
1FFF2000000000DFF6
1FFF2000000000DFF6
1FFF2000000000DFF6
1FFF2000000000DFF6
1FFF2000000000DFF6
1FFF2000000000DFF6
1FFF2000000000DFF6
1FFF2000000000DFF6
1FFF2000000000DFF6
1FFF2000000000DFF6
1FFF2000000000DFF6
1FFF2000000000DFF6
1FFF2000000000DFF6
1FFF2000000000DFF6
1FFF2000000000DFF6
1FFF2000000000DFF6
1FFF2000000000DFF6
1FFF2000000000DFF6
1FFF2000000000DFF6
ENDCHAR
STARTCHAR Rho
ENCODING 929
SWIDTH 554 0
DWIDTH 20 0
BBX 17 26 2 0
BITMAP
4FFFFFFFFED9400000
4FFFFFFFFFFFFA1000
4FFFCCCCCDFFFFB000
4FFF00000019FFF700
4FFF00000000AFFE00
4FFF000000002FFF40
4FFF000000000CFF70
4FFF000000000AFF80
4FFF000000000AFF80
4FFF000000000CFF70
4FFF000000002FFF40
4FFF00000000AFFE00
4FFF0000014BFFF700
4FFFFFFFFFFFFFB000
4FFFFFFFFFFFF80000
4FFFCCCCCB96200000
4FFF00000000000000
4FFF00000000000000
4FFF00000000000000
4FFF00000000000000
4FFF00000000000000
4FFF00000000000000
4FFF00000000000000
4FFF00000000000000
4FFF00000000000000
4FFF00000000000000
ENDCHAR
STARTCHAR Sigma
ENCODING 931
SWIDTH 502 0
DWIDTH 18 0
BBX 16 26 1 0
BITMAP
9FFFFFFFFFFFFFE0
9FFFFFFFFFFFFFE0
8FFFDCCCCCCCCCB0
1DFFA00000000000
04FFF50000000000
00AFFE1000000000
001EFFA000000000
0005FFF500000000
0000AFFE10000000
00001EFF90000000
000005FFF4000000
000000AFFD100000
0000001EFF900000
0000001EFF800000
000000AFFD100000
000005FFF4000000
00001EFF90000000
0000AFFD10000000
0005FFF400000000
001EFF9000000000
00AFFD1000000000
04FFF50000000000
1DFFA00000000000
8FFFCCCCCCCCCCC7
9FFFFFFFFFFFFFF9
9FFFFFFFFFFFFFF9
ENDCHAR
STARTCHAR Tau
ENCODING 932
SWIDTH 520 0
DWIDTH 19 0
BBX 17 26 1 0
BITMAP
EFFFFFFFFFFFFFFFB0
EFFFFFFFFFFFFFFFB0
BCCCCCDFFFCCCCCC80
0000004FFF00000000
0000004FFF00000000
0000004FFF00000000
0000004FFF00000000
0000004FFF00000000
0000004FFF00000000
0000004FFF00000000
0000004FFF00000000
0000004FFF00000000
0000004FFF00000000
0000004FFF00000000
0000004FFF00000000
0000004FFF00000000
0000004FFF00000000
0000004FFF00000000
0000004FFF00000000
0000004FFF00000000
0000004FFF00000000
0000004FFF00000000
0000004FFF00000000
0000004FFF00000000
0000004FFF00000000
0000004FFF00000000
ENDCHAR
STARTCHAR Upsilon
ENCODING 933
SWIDTH 524 0
DWIDTH 19 0
BBX 19 26 0 0
BITMAP
4FFF60000000008FFF10
0CFFC000000000EFF900
05FFF300000005FFF300
00DFF90000000BFFB000
007FFE1000002FFF4000
001EFF6000008FFD0000
0009FFC00000EFF60000
0002FFF30005FFE00000
0000AFF9000BFF700000
00003FFE102FFF100000
00000CFF608FF9000000
000005FFC0EFF2000000
000000DFF8FFB0000000
0000007FFFFF40000000
0000001EFFFC00000000
00000008FFF600000000
00000003FFF000000000
00000003FFF000000000
00000003FFF000000000
00000003FFF000000000
00000003FFF000000000
00000003FFF000000000
00000003FFF000000000
00000003FFF000000000
00000003FFF000000000
00000003FFF000000000
ENDCHAR
STARTCHAR Phi
ENCODING 934
SWIDTH 621 0
DWIDTH 22 0
BBX 20 26 1 0
BITMAP
000000005FFD00000000
000000005FFD00000000
000000005FFD00000000
000004ADFFFFEC710000
0001BFFFFFFFFFFE5000
001CFFFEDFFFDFFFF600
00BFFE505FFD02AFFF30
05FFE3005FFD000AFFC0
0CFF70005FFD0001EFF4
2FFF20005FFD00009FF9
5FFD00005FFD00006FFD
7FFB00005FFD00003FFF
8FFA00005FFD00002FFF
8FFA00005FFD00003FFF
7FFB00005FFD00004FFE
5FFD00005FFD00006FFC
1FFF20005FFD0000AFF8
0BFF90005FFD0002FFF3
04FFF4005FFD000BFFB0
009FFF836FFD15CFFE20
001BFFFFFFFFFFFFF400
00008FFFFFFFFFFC3000
0000027ADFFFB9400000
000000005FFD00000000
000000005FFD00000000
000000005FFD00000000
ENDCHAR
STARTCHAR Chi
ENCODING 935
SWIDTH 550 0
DWIDTH 20 0
BBX 18 26 1 0
BITMAP
6FFF5000000007FFF4
0DFFC00000001EFFC0
05FFF50000007FFF40
00DFFC000000DFFB00
005FFF400006FFF300
000CFFC0000DFFB000
0004FFF4006FFF3000
0000CFFB00DFFA0000
00004FFF45FFF20000
00000BFFBCFFA00000
000003FFFFFF200000
000000AFFFF9000000
0000003FFFF2000000
0000004FFFF3000000
000000CFFFFB000000
000005FFFFFF400000
00000DFFABFFB00000
00006FFF24FFF40000
0000DFFA00CFFC0000
0006FFF3004FFF5000
001DFFA0000CFFC000
007FFF300005FFF500
01EFFB000000CFFD00
07FFF30000005FFF60
1EFFB00000000DFFD0
8FFF4000000006FFF6
ENDCHAR
STARTCHAR Psi
ENCODING 936
SWIDTH 600 0
DWIDTH 22 0
BBX 19 26 1 0
BITMAP
8FFB0001FFF20006FFD0
8FFB0001FFF20006FFD0
8FFB0001FFF20006FFD0
8FFB0001FFF20006FFD0
8FFB0001FFF20006FFD0
8FFB0001FFF20006FFD0
8FFB0001FFF20006FFD0
8FFB0001FFF20006FFD0
8FFB0001FFF20006FFD0
7FFB0001FFF20006FFD0
7FFB0001FFF20007FFB0
6FFD0001FFF20008FFA0
3FFF1001FFF2000BFF80
0EFF5001FFF2001FFF40
0AFFC001FFF2008FFE00
03FFF801FFF205FFF600
009FFFA4FFF48FFFC000
000BFFFFFFFFFFFD1000
00009FFFFFFFFFB10000
0000028CFFFD93000000
00000001FFF200000000
00000001FFF200000000
00000001FFF200000000
00000001FFF200000000
00000001FFF200000000
00000001FFF200000000
ENDCHAR
ENDFONT
